<svg id="Isolation_Mode" data-name="Isolation Mode" xmlns="http://www.w3.org/2000/svg" viewBox="0 0 431.64 507.47"><defs><style>.cls-1,.cls-2,.cls-3{fill:#a4c639;}.cls-1,.cls-2,.cls-4{stroke:#fff;}.cls-1{stroke-width:14.4px;}.cls-2,.cls-4{stroke-width:7.2px;}.cls-4{fill:#fff;}</style></defs><title>android</title><g id="b"><ellipse class="cls-1" cx="215.82" cy="162.53" rx="135.05" ry="124.66"/><rect class="cls-1" x="80.77" y="131.37" width="270.1" height="270.1" rx="32.65" ry="32.65"/></g><g id="a"><path class="cls-2" d="M167.52,7.08h0a9.63,9.63,0,0,0-3.76,13.11l52.52,94.75a9.63,9.63,0,0,0,13.11,3.76h0a9.64,9.64,0,0,0,3.76-13.11L180.63,10.84A9.63,9.63,0,0,0,167.52,7.08Z" transform="translate(-40.18 -2.27)"/><path id="c" class="cls-2" d="M432.6,164.8h0A35.61,35.61,0,0,0,397,200.42V326.56a35.61,35.61,0,0,0,35.61,35.62h0a35.62,35.62,0,0,0,35.62-35.62V200.42A35.62,35.62,0,0,0,432.6,164.8Z" transform="translate(-40.18 -2.27)"/><path id="c-2" data-name="c" class="cls-2" d="M306.46,308.75h0a35.62,35.62,0,0,0-35.62,35.62V470.52a35.61,35.61,0,0,0,35.62,35.61h0a35.61,35.61,0,0,0,35.62-35.61V344.37A35.62,35.62,0,0,0,306.46,308.75Z" transform="translate(-40.18 -2.27)"/></g><g id="a-2" data-name="a"><path class="cls-2" d="M344.48,7.08h0a9.63,9.63,0,0,1,3.76,13.11l-52.52,94.75a9.63,9.63,0,0,1-13.11,3.76h0a9.64,9.64,0,0,1-3.76-13.11l52.52-94.75A9.63,9.63,0,0,1,344.48,7.08Z" transform="translate(-40.18 -2.27)"/><path id="c-3" data-name="c" class="cls-2" d="M79.4,164.8h0A35.62,35.62,0,0,1,115,200.42V326.56A35.62,35.62,0,0,1,79.4,362.18h0a35.62,35.62,0,0,1-35.62-35.62V200.42A35.62,35.62,0,0,1,79.4,164.8Z" transform="translate(-40.18 -2.27)"/><path id="c-4" data-name="c" class="cls-2" d="M205.54,308.75h0a35.62,35.62,0,0,1,35.62,35.62V470.52a35.61,35.61,0,0,1-35.62,35.61h0a35.61,35.61,0,0,1-35.61-35.61V344.37A35.61,35.61,0,0,1,205.54,308.75Z" transform="translate(-40.18 -2.27)"/></g><g id="b-2" data-name="b"><ellipse class="cls-3" cx="215.82" cy="162.53" rx="135.05" ry="124.66"/><rect class="cls-3" x="80.77" y="131.37" width="270.1" height="270.1" rx="32.65" ry="32.65"/></g><path class="cls-4" d="M115,170H397" transform="translate(-40.18 -2.27)"/><path class="cls-4" d="M193.67,98a5.94,5.94,0,1,1-5.94,5.93A5.94,5.94,0,0,1,193.67,98Z" transform="translate(-40.18 -2.27)"/><path class="cls-4" d="M318.33,98a5.94,5.94,0,1,1-5.94,5.93A5.94,5.94,0,0,1,318.33,98Z" transform="translate(-40.18 -2.27)"/></svg>