<svg id="Layer_1" data-name="Layer 1" xmlns="http://www.w3.org/2000/svg" viewBox="0 0 495 495"><defs><style>.cls-1{fill:#fff;}.cls-2{fill:#ff5e5e;}.cls-3{fill:#02033b;}</style></defs><title>calendar</title><g id="Color"><path class="cls-1" d="M486.94,171.62H25.06V430.34C25.06,461.1,50.9,486,82.79,486h346.4c31.88,0,57.73-24.93,57.73-55.69V171.62Z" transform="translate(-8.5 -8.5)"/><path class="cls-2" d="M423.06,62.5H88.94C58.23,62.5,33.25,86.94,33.25,117v73.4h445.5V117c0-30-25-54.49-55.69-54.49Z" transform="translate(-8.5 -8.5)"/></g><g id="_1.5" data-name="1.5"><path class="cls-3" d="M446.78,503.5H65.22A56.77,56.77,0,0,1,8.5,446.78V106.47A56.77,56.77,0,0,1,65.22,49.75H446.78a56.77,56.77,0,0,1,56.72,56.72V446.78A56.77,56.77,0,0,1,446.78,503.5ZM65.22,80.69a25.82,25.82,0,0,0-25.78,25.78V446.78a25.82,25.82,0,0,0,25.78,25.78H446.78a25.82,25.82,0,0,0,25.78-25.78V106.47a25.82,25.82,0,0,0-25.78-25.78Z" transform="translate(-8.5 -8.5)"/><path class="cls-3" d="M488,204.44H24a15.47,15.47,0,0,1,0-30.94H488a15.47,15.47,0,1,1,0,30.94Z" transform="translate(-8.5 -8.5)"/><path class="cls-3" d="M127.09,132.25a15.47,15.47,0,0,1-15.47-15.47V24a15.47,15.47,0,0,1,30.94,0v92.81A15.47,15.47,0,0,1,127.09,132.25Z" transform="translate(-8.5 -8.5)"/><path class="cls-3" d="M384.91,132.25a15.47,15.47,0,0,1-15.47-15.47V24a15.47,15.47,0,1,1,30.93,0v92.81A15.47,15.47,0,0,1,384.91,132.25Z" transform="translate(-8.5 -8.5)"/></g></svg>