<svg id="Layer_1" data-name="Layer 1" xmlns="http://www.w3.org/2000/svg" viewBox="0 0 480 480"><defs><style>.cls-1{fill:#e0dada;}.cls-2{fill:#fff;}.cls-3{fill:#ff5e5e;}.cls-4{fill:#02033b;}</style></defs><title>education</title><rect class="cls-1" x="8" y="8" width="464" height="376" rx="10" ry="10"/><path class="cls-2" d="M24,72H488V344H24Z" transform="translate(-16 -16)"/><rect class="cls-3" x="232" y="88" width="208" height="96" rx="10" ry="10"/><path class="cls-3" d="M352,488H160v-9.58a20,20,0,0,1,13.67-19l7-2.32A40,40,0,0,0,208,419.17V400h96v19.17a40,40,0,0,0,27.35,37.95l7,2.32a20,20,0,0,1,13.68,19Z" transform="translate(-16 -16)"/><path class="cls-2" d="M144,184c-64,0-88,86.56-88,144v8H232v-8C232,270.56,208,184,144,184Z" transform="translate(-16 -16)"/><path class="cls-2" d="M160,152H128l-8,40,24,40,24-40Z" transform="translate(-16 -16)"/><path class="cls-3" d="M240,248h36a20,20,0,0,0,0-40h-6.46A20,20,0,0,0,251,220.57Z" transform="translate(-16 -16)"/><path class="cls-1" d="M240,248h32l-24,88H200Z" transform="translate(-16 -16)"/><path class="cls-3" d="M192,200l-16,56-32-24,24-40Z" transform="translate(-16 -16)"/><path class="cls-3" d="M96,200l16,56,32-24-24-40Z" transform="translate(-16 -16)"/><path class="cls-2" d="M174.29,145.15l-20,12a20,20,0,0,1-20.58,0l-20-12A20,20,0,0,1,104,128V59.32h80V128A20,20,0,0,1,174.29,145.15Z" transform="translate(-16 -16)"/><path class="cls-3" d="M178,24H126A30,30,0,0,0,96,54V72h40s13.43,16,30,16h42V54A30,30,0,0,0,178,24Z" transform="translate(-16 -16)"/><path class="cls-4" d="M478,16H400V32h78a2,2,0,0,1,2,2V64H216V54a37.8,37.8,0,0,0-7-22H384V16H34A18,18,0,0,0,16,34V152H32V80H96v48a28.15,28.15,0,0,0,13.59,24l9.15,5.49-5,25c-21.24,9.84-38.58,30.76-50.33,60.82C53.61,268.39,48,299.24,48,328H32V168H16V390a18,18,0,0,0,18,18H200v11.17a32,32,0,0,1-21.88,30.36l-7,2.32A28,28,0,0,0,152,478.42V488a8,8,0,0,0,8,8H352a8,8,0,0,0,8-8v-9.58a28,28,0,0,0-19.15-26.57l-7-2.32A32,32,0,0,1,312,419.17V408h80V392H34a2,2,0,0,1-2-2V344H480v46a2,2,0,0,1-2,2H408v16h70a18,18,0,0,0,18-18V34A18,18,0,0,0,478,16ZM296,408v11.17a47.94,47.94,0,0,0,32.82,45.54l7,2.32A12,12,0,0,1,344,478.42V480H168v-1.58A12,12,0,0,1,176.21,467l7-2.32A47.94,47.94,0,0,0,216,419.17V408ZM200,54V80H166a22,22,0,0,1-22-22V32h34A22,22,0,0,1,200,54ZM128,32V64H104V54a22,22,0,0,1,22-22ZM32,34a2,2,0,0,1,2-2H95a37.8,37.8,0,0,0-7,22V64H32Zm80,94V80h23a38,38,0,0,0,31,16h10v32a12.06,12.06,0,0,1-5.83,10.29l-20,12a12,12,0,0,1-12.34,0l-20-12A12.06,12.06,0,0,1,112,128Zm69.83,78.48L171.5,242.63l-16.93-12.7,18.09-30.16a64.17,64.17,0,0,1,9.17,6.71Zm-66.5-6.72,18.1,30.17-16.93,12.7-10.34-36.19a63.21,63.21,0,0,1,9.17-6.68ZM144,168a27.85,27.85,0,0,0,10.62-2.1l4.93,24.63L144,216.45l-15.55-25.91,4.93-24.63A27.85,27.85,0,0,0,144,168ZM78.3,249.19a131.67,131.67,0,0,1,15.23-28.71l10.78,37.72a8,8,0,0,0,12.49,4.2L144,242l27.2,20.4a8,8,0,0,0,11.2-1.6,7.92,7.92,0,0,0,1.29-2.6l10.76-37.67c10.3,14.25,18.43,33.4,23.66,56.29L194.85,328H104V280H88v48H64C64,301.15,69.21,272.43,78.3,249.19ZM212.42,328l22.15-48.71.42-.09-.12-.59L245.15,256h16.38l-19.64,72ZM288,228a12,12,0,0,1-12,12H251.82l6.58-16.46A11.94,11.94,0,0,1,269.54,216H276A12,12,0,0,1,288,228ZM258.47,328l19.66-72.08a28,28,0,0,0,21.94-42.21L358.25,141l-12.5-10-57.47,71.84A27.65,27.65,0,0,0,276,200h-6.46a27.87,27.87,0,0,0-26,17.6l-10.9,27.25-4.21,9.27a170,170,0,0,0-14.68-33.35c-10.73-18.24-24-31.09-39.49-38.24l-5-25,9.15-5.49A28.15,28.15,0,0,0,192,128V96h16a8,8,0,0,0,8-8V80H480V328Z" transform="translate(-16 -16)"/><path class="cls-4" d="M232,360h48v16H232Z" transform="translate(-16 -16)"/><path class="cls-4" d="M48,40H64V56H48Z" transform="translate(-16 -16)"/><path class="cls-4" d="M416,40h16V56H416Z" transform="translate(-16 -16)"/><path class="cls-4" d="M448,40h16V56H448Z" transform="translate(-16 -16)"/><path class="cls-4" d="M432,264h32v16H432Z" transform="translate(-16 -16)"/><path class="cls-4" d="M336,264h80v16H336Z" transform="translate(-16 -16)"/><path class="cls-4" d="M392,232h72v16H392Z" transform="translate(-16 -16)"/><path class="cls-4" d="M336,232h40v16H336Z" transform="translate(-16 -16)"/><path class="cls-4" d="M296,296h88v16H296Z" transform="translate(-16 -16)"/><path class="cls-4" d="M400,296h64v16H400Z" transform="translate(-16 -16)"/><path class="cls-4" d="M456,96H248a8,8,0,0,0-8,8v80h16V112H448v80H336v16H456a8,8,0,0,0,8-8V104A8,8,0,0,0,456,96Z" transform="translate(-16 -16)"/></svg>