<svg id="Layer_1" data-name="Layer 1" xmlns="http://www.w3.org/2000/svg" viewBox="0 0 480 480"><defs><style>.cls-1{fill:#fff;}.cls-2{fill:#e0dada;}.cls-3{fill:#ff5e5e;}.cls-4{fill:#02033b;}</style></defs><title>fintech</title><path class="cls-1" d="M488,440v32a16.05,16.05,0,0,1-16,16H40a16.05,16.05,0,0,1-16-16V232a16,16,0,0,1,16-16h88V328H96v32H416V328H384V216h88a16,16,0,0,1,16,16v32H472a16,16,0,0,0-16,16V424a16.05,16.05,0,0,0,16,16Z" transform="translate(-16 -16)"/><path class="cls-2" d="M488,264V440H472a16.05,16.05,0,0,1-16-16V280a16,16,0,0,1,16-16Z" transform="translate(-16 -16)"/><path class="cls-3" d="M416,328v32H96V328H416Z" transform="translate(-16 -16)"/><path class="cls-3" d="M416,136H320a64,64,0,0,0-63.6-64H256a64,64,0,0,0-64,64H96L256,24Z" transform="translate(-16 -16)"/><path class="cls-2" d="M384,216V328H336V136h48Z" transform="translate(-16 -16)"/><path class="cls-1" d="M336,136V328H176V136h16a64,64,0,0,0,63.6,64h.4a64,64,0,0,0,64-64Z" transform="translate(-16 -16)"/><path class="cls-3" d="M256.4,72H256a64,64,0,0,0-.4,128h.4a64,64,0,1,0,.4-128Z" transform="translate(-16 -16)"/><path class="cls-2" d="M176,136V328H128V136Z" transform="translate(-16 -16)"/><path class="cls-4" d="M472,208H392V144h24a8,8,0,0,0,4.58-14.55l-160-112a8,8,0,0,0-9.16,0l-160,112A8,8,0,0,0,96,144h24v64H40a24,24,0,0,0-24,24V472a24,24,0,0,0,24,24H472a24,24,0,0,0,24-24V232A24,24,0,0,0,472,208ZM408,336v16H104V336ZM184.47,144a72,72,0,0,0,143.06,0H328V320H184V144ZM200,136a56,56,0,1,1,56,56A56,56,0,0,1,200,136ZM376,320H344V144h32ZM256,33.77,390.62,128H327.53a72,72,0,0,0-143.06,0H121.38ZM168,144V320H136V144ZM472,480H40a8,8,0,0,1-8-8V232a8,8,0,0,1,8-8h80v96H96a8,8,0,0,0-8,8v32a8,8,0,0,0,8,8H416a8,8,0,0,0,8-8V328a8,8,0,0,0-8-8H392V224h80a8,8,0,0,1,8,8v24h-8a24,24,0,0,0-24,24V424a24,24,0,0,0,24,24h8v24A8,8,0,0,1,472,480Zm8-208V432h-8a8,8,0,0,1-8-8V280a8,8,0,0,1,8-8Z" transform="translate(-16 -16)"/><path class="cls-4" d="M248,184h16v-8a16,16,0,0,0,16-16V144a16,16,0,0,0-16-16H248V112h32V96H264V88H248v8a16,16,0,0,0-16,16v16a16,16,0,0,0,16,16h16v16H232v16h16Z" transform="translate(-16 -16)"/><path class="cls-4" d="M200,224H312v16H200Z" transform="translate(-16 -16)"/><path class="cls-4" d="M200,256H312v16H200Z" transform="translate(-16 -16)"/><path class="cls-4" d="M200,288H312v16H200Z" transform="translate(-16 -16)"/><path class="cls-4" d="M88,384H200v16H88Z" transform="translate(-16 -16)"/><path class="cls-4" d="M216,384H424v16H216Z" transform="translate(-16 -16)"/><path class="cls-4" d="M88,416H344v16H88Z" transform="translate(-16 -16)"/><path class="cls-4" d="M360,416h64v16H360Z" transform="translate(-16 -16)"/><path class="cls-4" d="M136,448H424v16H136Z" transform="translate(-16 -16)"/></svg>