<svg id="Layer_1" data-name="Layer 1" xmlns="http://www.w3.org/2000/svg" viewBox="0 0 480 463.96"><defs><style>.cls-1{fill:#ff5e5e;}.cls-2{fill:#fff;}.cls-3{fill:#e0dada;}.cls-4{fill:#02033b;}</style></defs><title>healthcare</title><path class="cls-1" d="M384,176a103.54,103.54,0,0,0-72,29.07A103.91,103.91,0,0,0,136,280c0,96,150.08,186.94,176,186.94S488,376,488,280A104,104,0,0,0,384,176Z" transform="translate(-16 -24.02)"/><rect class="cls-2" x="40" y="31.96" width="176" height="280" rx="16" ry="16"/><rect class="cls-3" x="72" y="63.96" width="112" height="200"/><circle class="cls-1" cx="128" cy="135.96" r="24"/><path class="cls-2" d="M120,480l-14.84-121.6a16,16,0,0,1,2.4-11.73l5.7-8.55A40.07,40.07,0,0,0,120,315.87v-3.32a40,40,0,0,0-11.71-28.28L104,280h0l18.18-30.29A14.5,14.5,0,0,0,120,232h0a14.48,14.48,0,0,0-17.7-2.17l-24.94,15a8,8,0,0,1-9.78-1.2l-9.24-9.26A8,8,0,0,1,56,228.67V136L25.14,213.12A16.13,16.13,0,0,0,24,219.06v82.26a32,32,0,0,0,6.4,19.2l5.28,7a48,48,0,0,1,8.94,36.69L32,480Z" transform="translate(-16 -24.02)"/><path class="cls-4" d="M496,280A111.9,111.9,0,0,0,312,194.3,111.37,111.37,0,0,0,240,168V72a24.07,24.07,0,0,0-24-24H72A24.07,24.07,0,0,0,48,72v62.48L17.6,210.3a25.94,25.94,0,0,0-1.6,8.8v82.24a39.72,39.72,0,0,0,8,24l5.28,7a40.34,40.34,0,0,1,7.44,31L24.08,479.1a8.08,8.08,0,0,0,2,6.24A8,8,0,0,0,32,488h88a7.85,7.85,0,0,0,6-2.72,7.74,7.74,0,0,0,1.92-6.24L113,356.94a8.16,8.16,0,0,1,1.28-5.92l4.72-7h28.16a215.94,215.94,0,0,0,16.08,24H136v16h40.56c47.2,52.56,115,91,135.44,91,20.8,0,88.72-37.84,135.92-91H488V368H461.12C481.76,340.86,496,310.7,496,280ZM98.32,285.66l4.32,4.32a20,20,0,0,1,2.48,2.8c0,.08.08.08.16.08l-.08.08a31.88,31.88,0,0,1,6.8,19.6v3.36a32,32,0,0,1-5.36,17.76L101,342.14a23.68,23.68,0,0,0-3.76,17.12L111,472H41l11.6-106.4a56.52,56.52,0,0,0-10.48-42.8l-5.28-7a24.12,24.12,0,0,1-4.8-14.4V219.1a7.74,7.74,0,0,1,.56-3L48,177.5v51.2A16.15,16.15,0,0,0,52.64,240l9.28,9.28a16.18,16.18,0,0,0,19.6,2.4l10.56-6.4,14.48-8.64a6.48,6.48,0,0,1,7.76,1,6.31,6.31,0,0,1,1,7.92L97.12,275.9A8.12,8.12,0,0,0,98.32,285.66Zm17-5.68c-.4-.4-.8-.8-1.2-1.28l15-24.88a22.51,22.51,0,0,0-3.36-27.52,23.08,23.08,0,0,0-27.44-3.36L96,224.3V96h96V280Zm11,48A47,47,0,0,0,128,315.9v-3.36A48.54,48.54,0,0,0,125,296h75a8,8,0,0,0,8-8V88a8,8,0,0,0-8-8H88a8,8,0,0,0-8,8V233.82l-6.72,4.08L64,228.7V72a8,8,0,0,1,8-8H216a8,8,0,0,1,8,8V320a8,8,0,0,1-8,8ZM312,458.94c-12.72,0-69.36-30.32-113.6-75H248a7.89,7.89,0,0,0,7.28-4.72L279,326.06,312.4,426.54A8,8,0,0,0,320,432h.32a8.1,8.1,0,0,0,7.44-6.08l30.08-120.32,10.24,71.52A8,8,0,0,0,376,384h49.76C382.08,428.06,325.68,458.94,312,458.94Zm128.48-91H383l-15-105.12A8.1,8.1,0,0,0,360.4,256a8,8,0,0,0-8.16,6.08L318.88,395.42l-31.28-94a8,8,0,0,0-7.2-5.44,8.29,8.29,0,0,0-7.68,4.72L242.8,368H183.68a212.65,212.65,0,0,1-17.92-24H216a24.07,24.07,0,0,0,24-24V184a95.88,95.88,0,0,1,66.48,26.8,8,8,0,0,0,11,0A96,96,0,0,1,480,280C480,310.7,463.36,341.18,440.48,368Z" transform="translate(-16 -24.02)"/><path class="cls-4" d="M176,160a32,32,0,1,0-32,32A32,32,0,0,0,176,160Zm-48,0a16,16,0,1,1,16,16A16,16,0,0,1,128,160Z" transform="translate(-16 -24.02)"/><path class="cls-4" d="M348.69,124.67a16,16,0,1,0,22.62,0h0A16,16,0,0,0,348.69,124.67Z" transform="translate(-16 -24.02)"/><path class="cls-4" d="M393.94,102a48,48,0,0,0-67.88,0l11.31,11.31a32.05,32.05,0,0,1,45.26,0Z" transform="translate(-16 -24.02)"/><path class="cls-4" d="M416.57,79.41a80,80,0,0,0-113.14,0l11.31,11.32a64,64,0,0,1,90.51,0h0Z" transform="translate(-16 -24.02)"/><path class="cls-4" d="M427.88,68.1,439.2,56.78a112.12,112.12,0,0,0-158.4,0l11.31,11.31A96.11,96.11,0,0,1,427.88,68.1Z" transform="translate(-16 -24.02)"/></svg>