<svg id="Layer_1" data-name="Layer 1" xmlns="http://www.w3.org/2000/svg" viewBox="0 0 496.48 411.21"><defs><style>.cls-1{fill:#ff5e5e;}.cls-2{fill:#02033b;}</style></defs><title>heart</title><path class="cls-1" d="M363.46,63.16A128.84,128.84,0,0,1,491.67,191.37C491.67,320.83,256,449,256,449S20.33,318.94,20.33,191.37A128.21,128.21,0,0,1,148.53,63.16h0A127,127,0,0,1,256,121,128.21,128.21,0,0,1,363.46,63.16Z" transform="translate(-7.76 -50.4)"/><path class="cls-2" d="M256,461.6a11.9,11.9,0,0,1-6.29-1.88c-9.42-5-241.95-135.12-241.95-268.35A140.77,140.77,0,0,1,148.53,50.6h0A137.64,137.64,0,0,1,256,100.24a140.78,140.78,0,0,1,248.24,91.13c0,135.12-232.53,263.32-241.95,268.35A12,12,0,0,1,256,461.6ZM148.53,75.73A115.63,115.63,0,0,0,32.9,191.37h0c0,108.09,186.65,221.84,223.1,243.21,36.45-20.74,223.1-133.86,223.1-243.21a115.64,115.64,0,0,0-212.42-63.48,13.19,13.19,0,0,1-18.43,2.94,13,13,0,0,1-2.93-2.94A113.17,113.17,0,0,0,148.53,75.73Z" transform="translate(-7.76 -50.4)"/></svg>