<svg id="Layer_1" data-name="Layer 1" xmlns="http://www.w3.org/2000/svg" viewBox="0 0 473.25 486"><defs><style>.cls-1{fill:#fff;}.cls-2{fill:#ff5e5e;}.cls-3{fill:#e0dada;}.cls-4{fill:#02033b;}</style></defs><title>icon-6</title><path class="cls-1" d="M289.33,397.11a98.88,98.88,0,0,1,98.77-98.86V143.55L263.58,19H31.9a9,9,0,0,0-9,9V486.92a9.06,9.06,0,0,0,9,9.06H388.1a98.86,98.86,0,0,1-98.77-98.87Z" transform="translate(-18.32 -14.5)"/><path class="cls-1" d="M31.9,32.61H277.16L263.57,19H31.9a9,9,0,0,0-9,9V41.67A9.06,9.06,0,0,1,31.9,32.61Z" transform="translate(-18.32 -14.5)"/><path class="cls-2" d="M263.58,19V134.49a9.06,9.06,0,0,0,9.06,9.06H388.1Z" transform="translate(-18.32 -14.5)"/><path class="cls-2" d="M290,387.58a98.85,98.85,0,1,1,88.58,108.15A98.86,98.86,0,0,1,290,387.58Z" transform="translate(-18.32 -14.5)"/><circle class="cls-3" cx="369.87" cy="382.61" r="72.45"/><path class="cls-4" d="M78.69,103.55H228.11a4.53,4.53,0,1,0,0-9H78.69a4.53,4.53,0,1,0,0,9Z" transform="translate(-18.32 -14.5)"/><path class="cls-4" d="M78.69,148.83H228.11a4.53,4.53,0,1,0,0-9.05H78.69a4.53,4.53,0,1,0,0,9.05Z" transform="translate(-18.32 -14.5)"/><path class="cls-4" d="M78.69,194.11H332.25a4.53,4.53,0,0,0,0-9.06H78.69a4.53,4.53,0,0,0,0,9.06Z" transform="translate(-18.32 -14.5)"/><path class="cls-4" d="M78.69,239.39H332.25a4.53,4.53,0,0,0,0-9.06H78.69a4.53,4.53,0,0,0,0,9.06Z" transform="translate(-18.32 -14.5)"/><path class="cls-4" d="M78.69,284.67H332.25a4.53,4.53,0,1,0,0-9.06H78.69a4.53,4.53,0,1,0,0,9.06Z" transform="translate(-18.32 -14.5)"/><path class="cls-4" d="M78.69,330H277.92a4.53,4.53,0,0,0,0-9.06H78.69a4.53,4.53,0,0,0,0,9.06Z" transform="translate(-18.32 -14.5)"/><path class="cls-4" d="M78.69,375.23h163a4.53,4.53,0,0,0,0-9.06h-163a4.53,4.53,0,0,0,0,9.06Z" transform="translate(-18.32 -14.5)"/><path class="cls-4" d="M78.69,420.51h163a4.53,4.53,0,0,0,0-9.06h-163a4.53,4.53,0,1,0,0,9.06Z" transform="translate(-18.32 -14.5)"/><path class="cls-4" d="M22.85,396.74a4.52,4.52,0,0,0,4.52-4.53V340.14a4.53,4.53,0,1,0-9,0v52.07A4.53,4.53,0,0,0,22.85,396.74Z" transform="translate(-18.32 -14.5)"/><path class="cls-4" d="M392.62,293.84V143.54a4.51,4.51,0,0,0-1.52-3.38L266.77,15.83a4.49,4.49,0,0,0-3.2-1.33H31.9A13.58,13.58,0,0,0,18.32,28.08V319.76a4.53,4.53,0,1,0,9.05,0V28.08a4.52,4.52,0,0,1,4.53-4.52H259.05V134.49a13.58,13.58,0,0,0,13.58,13.58H383.56V293.84A103.35,103.35,0,0,0,346,491.44H31.9a4.52,4.52,0,0,1-4.53-4.52v-76a4.53,4.53,0,1,0-9,0v76A13.58,13.58,0,0,0,31.9,500.5H388.19a103.38,103.38,0,0,0,4.43-206.66ZM268.11,134.49V30L377.16,139H272.63a4.53,4.53,0,0,1-4.53-4.53Zm120.09,357a94.33,94.33,0,1,1,94.33-94.33,94.33,94.33,0,0,1-94.33,94.33Z" transform="translate(-18.32 -14.5)"/><path class="cls-4" d="M388.19,320.14a77,77,0,1,0,77,77A77,77,0,0,0,388.19,320.14Zm0,144.89a67.92,67.92,0,1,1,67.92-67.92h0A68,68,0,0,1,388.19,465Z" transform="translate(-18.32 -14.5)"/><path class="cls-4" d="M428.82,392.59H398.56a11.32,11.32,0,0,0-5.94-5.89v-40a4.53,4.53,0,1,0-9.06,0v40.07a11.32,11.32,0,1,0,15,14.83h30.26a4.53,4.53,0,1,0,0-9.05Z" transform="translate(-18.32 -14.5)"/></svg>