<svg id="Layer_1" data-name="Layer 1" xmlns="http://www.w3.org/2000/svg" viewBox="0 0 493.94 402.58"><defs><style>.cls-1{fill:#fff;}.cls-2{fill:#e0dada;}.cls-3{fill:#02033b;}.cls-4{fill:#ff5e5e;}</style></defs><title>icon-2</title><rect class="cls-1" x="49.04" y="4.25" width="403.56" height="331.82" rx="16.99" ry="16.99"/><path class="cls-1" d="M445.16,377H77.47a17.94,17.94,0,0,1-17.95-17.92h0V373.5a17,17,0,0,0,17,17H446.09a17,17,0,0,0,17-17V359.11A17.93,17.93,0,0,1,445.16,377Z" transform="translate(-10.5 -54.43)"/><path class="cls-2" d="M446.09,58.68H76.51a17,17,0,0,0-17,17v48H463.08v-48A17,17,0,0,0,446.09,58.68Z" transform="translate(-10.5 -54.43)"/><path class="cls-3" d="M367.44,81.47A10.47,10.47,0,1,0,377.9,91.94h0A10.47,10.47,0,0,0,367.44,81.47Z" transform="translate(-10.5 -54.43)"/><path class="cls-3" d="M398.82,81.47a10.47,10.47,0,1,0,10.47,10.47h0A10.47,10.47,0,0,0,398.82,81.47Z" transform="translate(-10.5 -54.43)"/><path class="cls-3" d="M430.21,81.47a10.47,10.47,0,1,1-10.46,10.47A10.47,10.47,0,0,1,430.21,81.47Z" transform="translate(-10.5 -54.43)"/><path class="cls-4" d="M481.52,150.14H367.79a18.69,18.69,0,0,0-18.69,18.69h0v60.36a18.69,18.69,0,0,0,18.69,18.7h27.8v26.9l30.46-26.9h55.47a18.69,18.69,0,0,0,18.69-18.7h0V168.83a18.69,18.69,0,0,0-18.69-18.69Z" transform="translate(-10.5 -54.43)"/><path class="cls-4" d="M39,172.8H186.61a24.26,24.26,0,0,1,24.26,24.25V275.4a24.26,24.26,0,0,1-24.26,24.26h-36.1v34.92L111,299.66H39A24.26,24.26,0,0,1,14.75,275.4V197.05A24.25,24.25,0,0,1,39,172.8Z" transform="translate(-10.5 -54.43)"/><path class="cls-1" d="M238.42,452.77H368.58A21.39,21.39,0,0,0,390,431.38V362.29a21.38,21.38,0,0,0-21.38-21.38H336.76V310.1l-34.83,30.79H238.42A21.39,21.39,0,0,0,217,362.27h0v69.1a21.39,21.39,0,0,0,21.37,21.4Z" transform="translate(-10.5 -54.43)"/><path class="cls-3" d="M380.44,123.7a4.25,4.25,0,0,0-4.25-4.25H337a4.25,4.25,0,1,0,0,8.49h39.24A4.24,4.24,0,0,0,380.44,123.7Z" transform="translate(-10.5 -54.43)"/><path class="cls-3" d="M481.52,145.9H467.33V75.67a21.27,21.27,0,0,0-21.24-21.24H76.51A21.27,21.27,0,0,0,55.27,75.67v92.88H39a28.53,28.53,0,0,0-28.5,28.5V275.4A28.52,28.52,0,0,0,39,303.9H55.27v69.6a21.26,21.26,0,0,0,21.24,21.24H212.79v36.64A25.66,25.66,0,0,0,238.42,457H368.58a25.67,25.67,0,0,0,25.63-25.64V394.74h51.88a21.27,21.27,0,0,0,21.24-21.24V252.13H481.5a22.94,22.94,0,0,0,22.94-22.94h0V168.83A22.93,22.93,0,0,0,481.52,145.9ZM19,275.4V197.05a20,20,0,0,1,20-20H186.61a20,20,0,0,1,20,20V275.4a20,20,0,0,1-20,20h-36.1a4.25,4.25,0,0,0-4.25,4.25v25.48L113.8,296.46A4.29,4.29,0,0,0,111,295.4H39A20,20,0,0,1,19,275.4Zm366.72,156a17.16,17.16,0,0,1-17.14,17.14H238.42a17.16,17.16,0,0,1-17.14-17.14V362.29a17.15,17.15,0,0,1,17.14-17.13h63.49a4.24,4.24,0,0,0,2.81-1.07l27.79-24.55v21.37a4.25,4.25,0,0,0,4.25,4.25h31.82a17.16,17.16,0,0,1,17.14,17.13Zm73.11-57.88a12.74,12.74,0,0,1-12.74,12.75H394.21v-24a25.66,25.66,0,0,0-25.63-25.63H341V310.1a4.25,4.25,0,0,0-7.07-3.17L300.3,336.67H238.42a25.65,25.65,0,0,0-25.63,25.63v24H76.51a12.74,12.74,0,0,1-12.74-12.75V303.9h45.62l38.33,33.86a4.25,4.25,0,0,0,7.06-3.18V303.9h31.86a28.51,28.51,0,0,0,28.49-28.5V197.05a28.52,28.52,0,0,0-28.49-28.5H63.77V127.94H315.25a4.25,4.25,0,1,0,0-8.49H63.77V75.67A12.74,12.74,0,0,1,76.51,62.93H446.09a12.74,12.74,0,0,1,12.74,12.74v43.78H398.69a4.25,4.25,0,1,0,0,8.49h60.14v18h-91a22.94,22.94,0,0,0-22.94,22.93h0v60.36a22.94,22.94,0,0,0,22.94,22.94h23.55v22.66a4.23,4.23,0,0,0,2.51,3.87,4.16,4.16,0,0,0,1.74.38A4.21,4.21,0,0,0,398.4,278l29.25-25.84h31.18Zm37.11-144.31a14.45,14.45,0,0,1-14.44,14.45H426.05a4.29,4.29,0,0,0-2.82,1.06l-23.39,20.67V247.88a4.25,4.25,0,0,0-4.25-4.25h-27.8a14.45,14.45,0,0,1-14.44-14.44h0V168.83a14.45,14.45,0,0,1,14.44-14.45H481.52A14.44,14.44,0,0,1,496,168.83h0Z" transform="translate(-10.5 -54.43)"/><path class="cls-3" d="M404.26,181.87l-26.14,11.34a6.66,6.66,0,0,0-4,6.11v.07a6.65,6.65,0,0,0,4,6.11l26.16,11.34a4.64,4.64,0,0,0,6.49-4.25v-.08a4.65,4.65,0,0,0-2.94-4.32l-22.61-8.9,22.58-8.69a4.65,4.65,0,0,0,3-4.34v-.12a4.65,4.65,0,0,0-4.63-4.66,4.73,4.73,0,0,0-1.88.39Z" transform="translate(-10.5 -54.43)"/><path class="cls-3" d="M431.42,171.4a4.31,4.31,0,0,0-5.2,3.17h0l-11.51,47.53a4.32,4.32,0,0,0,8.39,2l11.52-47.54a4.32,4.32,0,0,0-3.19-5.2Z" transform="translate(-10.5 -54.43)"/><path class="cls-3" d="M471.19,193.19,445,181.9a4.64,4.64,0,1,0-3.7,8.52l.19.08,22.65,8.76-22.68,8.92a4.65,4.65,0,0,0-2.94,4.32v.06a4.65,4.65,0,0,0,4.65,4.64,4.72,4.72,0,0,0,1.85-.39l26.16-11.39a6.66,6.66,0,0,0,0-12.22Z" transform="translate(-10.5 -54.43)"/><path class="cls-3" d="M275.67,387.9V372.39a3.68,3.68,0,0,1,.85-2.7,3.41,3.41,0,0,1,2.55-.85h2.59a4.21,4.21,0,0,0,2.82-1,4.1,4.1,0,0,0,0-5.66,4.21,4.21,0,0,0-2.82-1h-6.07a8.93,8.93,0,0,0-9.77,9.78v15.67a7.66,7.66,0,0,1-1.13,4.67,5.42,5.42,0,0,1-4,1.7,4.08,4.08,0,0,0-2.87,1.13,3.79,3.79,0,0,0-1,2.75,3.74,3.74,0,0,0,3.49,4h.38a5.46,5.46,0,0,1,4,1.7,7.66,7.66,0,0,1,1.13,4.67v15.67a8.93,8.93,0,0,0,9.77,9.78h6.06a4.22,4.22,0,0,0,2.83-1,4.12,4.12,0,0,0,0-5.66,4.21,4.21,0,0,0-2.83-1h-2.59a3.47,3.47,0,0,1-2.54-.85,3.71,3.71,0,0,1-.85-2.71V406.08a9.49,9.49,0,0,0-1.9-6.06,7.74,7.74,0,0,0-4.48-3,7.72,7.72,0,0,0,4.48-3,9.68,9.68,0,0,0,1.9-6.12Z" transform="translate(-10.5 -54.43)"/><path class="cls-3" d="M303.36,406.56a5.51,5.51,0,0,0-4.17,1.74,6.07,6.07,0,0,0-1.66,4.32,5.5,5.5,0,0,0,1.5,3.92,5.93,5.93,0,0,0,3.82,1.81,12.43,12.43,0,0,1-3.14,5.82,2.74,2.74,0,0,0-.81,1.86,2.49,2.49,0,0,0,.89,1.94,3,3,0,0,0,2.09.81,3.21,3.21,0,0,0,2.27-1,18.58,18.58,0,0,0,5.33-13.25,8.9,8.9,0,0,0-1.7-5.9,5.52,5.52,0,0,0-4.42-2Z" transform="translate(-10.5 -54.43)"/><path class="cls-3" d="M303.5,377.88a5.82,5.82,0,0,0-6,5.64v.34a6,6,0,0,0,1.7,4.33,6.15,6.15,0,0,0,8.56,0,6,6,0,0,0,1.7-4.33,5.82,5.82,0,0,0-5.64-6Z" transform="translate(-10.5 -54.43)"/><path class="cls-3" d="M346.35,393.07a5.45,5.45,0,0,1-4-1.7,7.59,7.59,0,0,1-1.13-4.67V371a8.93,8.93,0,0,0-9.77-9.78h-6.07a4.19,4.19,0,0,0-2.82,1,4.1,4.1,0,0,0,0,5.66,4.19,4.19,0,0,0,2.82,1h2.59a3.41,3.41,0,0,1,2.55.85,3.72,3.72,0,0,1,.85,2.7V387.9a9.62,9.62,0,0,0,1.9,6.1,7.62,7.62,0,0,0,4.48,3,7.74,7.74,0,0,0-4.48,3,9.49,9.49,0,0,0-1.9,6.06v15.51a3.76,3.76,0,0,1-.85,2.71,3.49,3.49,0,0,1-2.55.85h-2.59a3.8,3.8,0,0,0-2.82,6.62,4.19,4.19,0,0,0,2.82,1h6.05a8.93,8.93,0,0,0,9.77-9.78V407.29a7.66,7.66,0,0,1,1.13-4.67,5.42,5.42,0,0,1,4-1.7,3.94,3.94,0,0,0,2.91-1.18,4,4,0,0,0,1-2.78,3.81,3.81,0,0,0-1-2.75,4.07,4.07,0,0,0-2.88-1.14Z" transform="translate(-10.5 -54.43)"/><path class="cls-3" d="M76.84,217.66l-30.07,13a7.62,7.62,0,0,0-4.6,7v.08a7.62,7.62,0,0,0,4.6,7l30.07,13a5.34,5.34,0,0,0,7.45-4.9v-.09a5.33,5.33,0,0,0-3.37-5l-26-10.23,25.94-10a5.35,5.35,0,0,0,3.4-5v-.15a5.32,5.32,0,0,0-5.34-5.33A5.23,5.23,0,0,0,76.84,217.66Z" transform="translate(-10.5 -54.43)"/><path class="cls-3" d="M116.79,267.39a5.84,5.84,0,0,0,1.88-4.6,6.15,6.15,0,0,0-6.06-6.24h-.18a6.21,6.21,0,0,0-4.52,1.8,6,6,0,0,0-1.85,4.44,5.81,5.81,0,0,0,1.91,4.62,6.6,6.6,0,0,0,4.46,1.66A6.4,6.4,0,0,0,116.79,267.39Z" transform="translate(-10.5 -54.43)"/><path class="cls-3" d="M113.43,214.52a9.08,9.08,0,0,1,6.43,2.3,7.36,7.36,0,0,1,2.49,5.65,6.43,6.43,0,0,1-.81,3.18,12.09,12.09,0,0,1-2,2.66q-1.19,1.19-3.87,3.54a64.25,64.25,0,0,0-4.86,4.62,14.84,14.84,0,0,0-4,10.62,5.59,5.59,0,0,0,1.49,4.25,5.08,5.08,0,0,0,3.66,1.42,4.66,4.66,0,0,0,5-4.34h0c.3-1.37.53-2.33.69-2.87a9.51,9.51,0,0,1,.64-1.63,9.06,9.06,0,0,1,1.28-1.8,27.25,27.25,0,0,1,2.28-2.28q5.15-4.61,7.14-6.56a19.14,19.14,0,0,0,3.43-4.62,13,13,0,0,0,1.45-6.24,15.05,15.05,0,0,0-2.55-8.38,17.42,17.42,0,0,0-7.19-6.09,24.42,24.42,0,0,0-10.71-2.24A23.42,23.42,0,0,0,102,208.38a19.72,19.72,0,0,0-7.46,6.76A15.09,15.09,0,0,0,92,223.21a5,5,0,0,0,1.61,3.58,5.31,5.31,0,0,0,4,1.66q4,0,5.39-4.74a18.65,18.65,0,0,1,3.69-6.84A8.86,8.86,0,0,1,113.43,214.52Z" transform="translate(-10.5 -54.43)"/><path class="cls-3" d="M148.78,257.9l30.06-13.09a7.64,7.64,0,0,0,0-14l-30.06-13a5.33,5.33,0,0,0-4.35,9.74l.32.13,26,10.07L144.7,248a5.34,5.34,0,0,0-3.4,5V253a5.34,5.34,0,0,0,5.34,5.34,5.23,5.23,0,0,0,2.14-.45Z" transform="translate(-10.5 -54.43)"/></svg>