<svg id="Layer_1" data-name="Layer 1" xmlns="http://www.w3.org/2000/svg" xmlns:xlink="http://www.w3.org/1999/xlink" viewBox="0 0 491.75 512"><defs><style>.cls-1{fill:none;}.cls-2{clip-path:url(#clip-path);}.cls-3{fill:#fff;}.cls-4{fill:#ff5e5e;}.cls-5{fill:#e0dada;}.cls-6{fill:#02033b;}</style><clipPath id="clip-path" transform="translate(0 0)"><rect class="cls-1" width="491.75" height="512"/></clipPath></defs><title>icon-3</title><g class="cls-2"><path class="cls-3" d="M308.83,339.53h-190a14,14,0,0,1-14-14v-304a14,14,0,0,1,14-14h190a14,14,0,0,1,14,14V325.54a14,14,0,0,1-14,14" transform="translate(0 0)"/><path class="cls-4" d="M272,411.65,266.27,428v56a20.53,20.53,0,0,0,20.53,20.53H463.73A20.53,20.53,0,0,0,484.26,484V428l-5.7-16.3Z" transform="translate(0 0)"/><path class="cls-5" d="M478.56,180.58l5.7-22V119.5A20.53,20.53,0,0,0,463.73,99H286.8a20.53,20.53,0,0,0-20.53,20.53v39.09l5.71,22Z" transform="translate(0 0)"/><rect class="cls-3" x="266.27" y="159.08" width="217.99" height="269.36"/><path class="cls-4" d="M380.39,196.53A55.46,55.46,0,1,1,324.94,252a55.46,55.46,0,0,1,55.45-55.46" transform="translate(0 0)"/><path class="cls-6" d="M491.75,119.5a28.05,28.05,0,0,0-28-28H330.32v-70A21.49,21.49,0,0,0,308.85,0h-190A21.49,21.49,0,0,0,97.35,21.47V221.66h-51a7.49,7.49,0,0,0,0,15h51v15.94h-51a7.49,7.49,0,0,0,0,15h51v2.92a7.49,7.49,0,1,0,15,0v-2.92h40.4a7.49,7.49,0,1,0,0-15h-40.4V236.64h40.4a7.49,7.49,0,1,0,0-15h-40.4V21.47A6.5,6.5,0,0,1,118.82,15h190a6.5,6.5,0,0,1,6.49,6.49v70H296.6V43.87a11.52,11.52,0,0,0-11.49-11.48H142.56a11.52,11.52,0,0,0-11.49,11.48V145.51A11.52,11.52,0,0,0,142.56,157H226a7.49,7.49,0,0,0,0-15H161.57l52.27-38,45,32.73V332h-140a6.5,6.5,0,0,1-6.49-6.49V307.44a7.49,7.49,0,1,0-15,0v18.11A21.49,21.49,0,0,0,118.82,347h140V484a28.05,28.05,0,0,0,28,28H463.73a28.05,28.05,0,0,0,28-28V313.88a7.49,7.49,0,0,0-15,0V421h-203V166.57h203V275.34a7.49,7.49,0,0,0,15,0ZM266.1,47.37,213.83,85.43,161.57,47.37Zm-120,87.42V54.6l55.06,40.09ZM281.62,54.6V92a28.06,28.06,0,0,0-22.8,26.21L226.56,94.69ZM476.77,435.92V484a13.06,13.06,0,0,1-13,13H286.8a13.06,13.06,0,0,1-13-13V435.92Zm-203-284.33V119.5a13.06,13.06,0,0,1,13-13H463.73a13.06,13.06,0,0,1,13,13v32.09Z" transform="translate(0 0)"/><path class="cls-6" d="M380.39,189a63,63,0,0,0-55.7,33.68l-26.29,2.78a4,4,0,0,0-2.17,7l18.66,15.83-18.66,15.84a4,4,0,0,0,2.17,7l22.87,2.42A63,63,0,1,0,380.39,189m0,110.91a48,48,0,1,1,48-47.95,48,48,0,0,1-48,47.95" transform="translate(0 0)"/><path class="cls-6" d="M375.27,454.56A13.45,13.45,0,1,1,361.82,468a13.44,13.44,0,0,1,13.45-13.44" transform="translate(0 0)"/><path class="cls-6" d="M360.14,39.38h80.22a7.49,7.49,0,1,0,0-15H360.14a7.49,7.49,0,0,0,0,15" transform="translate(0 0)"/><path class="cls-6" d="M360.14,70.92h28.57a7.49,7.49,0,1,0,0-15H360.14a7.49,7.49,0,0,0,0,15" transform="translate(0 0)"/><path class="cls-6" d="M17.4,176.48l13-15.06a7.49,7.49,0,1,0-11.32-9.81l-17.29,20a7.49,7.49,0,0,0,0,9.81l17.29,20a7.49,7.49,0,1,0,11.32-9.81Z" transform="translate(0 0)"/><path class="cls-6" d="M51.71,202.1a7.49,7.49,0,0,0,10.56-.75l17.29-20a7.49,7.49,0,0,0,0-9.81l-17.29-20A7.49,7.49,0,1,0,51,161.42l13,15.06L51,191.54a7.48,7.48,0,0,0,.76,10.56" transform="translate(0 0)"/><path class="cls-6" d="M410.57,351.51c3.06,0,4.23,1,6.78,3.19,3.35,2.87,7.94,6.8,16.54,6.8a7.49,7.49,0,0,0,0-15c-3.06,0-4.23-1-6.79-3.2-3.35-2.86-7.94-6.79-16.53-6.79s-13.19,3.93-16.54,6.79c-2.56,2.2-3.72,3.2-6.79,3.2s-4.22-1-6.78-3.2c-3.35-2.86-7.93-6.79-16.53-6.79s-13.19,3.93-16.53,6.79c-2.56,2.2-3.73,3.2-6.79,3.2s-4.23-1-6.79-3.2c-3.34-2.86-7.93-6.79-16.53-6.79a7.49,7.49,0,1,0,0,15c3.06,0,4.23,1,6.79,3.19,3.35,2.87,7.93,6.8,16.53,6.8s13.18-3.93,16.53-6.8c2.56-2.19,3.73-3.19,6.79-3.19s4.23,1,6.78,3.19c3.35,2.87,7.94,6.8,16.53,6.8s13.19-3.93,16.54-6.8c2.56-2.19,3.72-3.19,6.79-3.19" transform="translate(0 0)"/><path class="cls-6" d="M380.46,376.05c-3.35-2.87-7.93-6.79-16.53-6.79s-13.19,3.92-16.53,6.79c-2.56,2.19-3.73,3.19-6.79,3.19s-4.23-1-6.79-3.19c-3.34-2.87-7.93-6.79-16.53-6.79a7.49,7.49,0,1,0,0,15c3.06,0,4.23,1,6.79,3.19,3.35,2.87,7.93,6.79,16.53,6.79s13.18-3.92,16.53-6.79c2.56-2.19,3.73-3.19,6.79-3.19s4.23,1,6.78,3.19c3.35,2.87,7.94,6.79,16.53,6.79a7.49,7.49,0,0,0,0-15c-3.05,0-4.22-1-6.78-3.19" transform="translate(0 0)"/><path class="cls-6" d="M218.94,236.64a7.49,7.49,0,1,0,0-15H181.5a7.49,7.49,0,0,0,0,15Z" transform="translate(0 0)"/><path class="cls-6" d="M362.23,234.25a11.37,11.37,0,1,1-8.45,13.69,11.37,11.37,0,0,1,8.45-13.69" transform="translate(0 0)"/></g></svg>