<svg id="Layer_1" data-name="Layer 1" xmlns="http://www.w3.org/2000/svg" viewBox="0 0 417 490.74"><defs><style>.cls-1{fill:#ff5e5e;}.cls-2{fill:#e0dada;}.cls-3{fill:#fff;}.cls-4{fill:#02033b;}.cls-5{fill:#3a2c60;}</style></defs><title>icon-9</title><path class="cls-1" d="M390.92,343l-18-1a28.38,28.38,0,0,0-29,21.05l-6.17,23.15A28.38,28.38,0,0,1,292.51,401L273.9,385.82a28.26,28.26,0,0,0-12.22-5.72l54,115.77a4.09,4.09,0,0,0,7.32.18l35-66.5,73.45,15.92a4.09,4.09,0,0,0,4.58-5.72Z" transform="translate(-47.5 -11.63)"/><path class="cls-1" d="M238.11,385.86,219.51,401a28.39,28.39,0,0,1-45.33-14.72L168,363.09A28.38,28.38,0,0,0,139.06,342l-18,1L76,439.79a4.09,4.09,0,0,0,4.58,5.72L154,429.6l35,66.49a4.09,4.09,0,0,0,7.32-.18l54-115.76a28.17,28.17,0,0,0-12.2,5.71Z" transform="translate(-47.5 -11.63)"/><path class="cls-2" d="M273.9,37.19l18.61-15.12a28.38,28.38,0,0,1,45.32,14.71L344,59.94a28.36,28.36,0,0,0,29,21l23.93-1.29a28.39,28.39,0,0,1,28,38.56l-8.62,22.36a28.37,28.37,0,0,0,11.06,34l20.12,13a28.38,28.38,0,0,1,0,47.65l-20.12,13a28.38,28.38,0,0,0-11.06,34l8.62,22.36a28.38,28.38,0,0,1-28,38.55L373,342a28.38,28.38,0,0,0-29,21.05l-6.17,23.15A28.38,28.38,0,0,1,292.51,401L273.9,385.82a28.38,28.38,0,0,0-35.79,0L219.51,401a28.39,28.39,0,0,1-45.33-14.72L168,363.09A28.38,28.38,0,0,0,139.06,342l-23.94,1.3a28.39,28.39,0,0,1-28-38.56l8.63-22.36a28.39,28.39,0,0,0-11.07-34l-20.12-13a28.38,28.38,0,0,1,0-47.66l20.12-13a28.38,28.38,0,0,0,11.07-34l-8.62-22.37a28.38,28.38,0,0,1,28-38.55L139.06,81a28.37,28.37,0,0,0,29-21l6.17-23.16a28.38,28.38,0,0,1,45.32-14.72l18.61,15.13A28.37,28.37,0,0,0,273.9,37.19Z" transform="translate(-47.5 -11.63)"/><circle class="cls-3" cx="256.01" cy="211.53" r="136.97" transform="translate(-122.09 231.35) rotate(-45)"/><path class="cls-4" d="M449.68,184.27l-20.12-13a24.4,24.4,0,0,1-9.47-29.14l8.62-22.35a32.46,32.46,0,0,0-32-44.11l-23.93,1.29a24.46,24.46,0,0,1-24.79-18l-6.17-23.18a32.48,32.48,0,0,0-51.84-16.85L271.34,34a24.41,24.41,0,0,1-30.64,0L222.1,18.91a32.47,32.47,0,0,0-51.87,16.85l-6.17,23.15a24.36,24.36,0,0,1-24.79,18l-23.93-1.28a32.46,32.46,0,0,0-32,44.1l8.62,22.37a24.38,24.38,0,0,1-9.47,29.13l-20.12,13a32.47,32.47,0,0,0,0,54.52l20.12,13A24.41,24.41,0,0,1,91.92,281L83.3,303.31a32.43,32.43,0,0,0,31.25,44.11L72.27,438.06a8.18,8.18,0,0,0,9.14,11.45l70.42-15.26L185.4,498a8.13,8.13,0,0,0,7.23,4.37h.2a8.16,8.16,0,0,0,7.22-4.72l53-113.78a24.55,24.55,0,0,1,5.81,0l53,113.77a8.15,8.15,0,0,0,7.22,4.73h.2a8.14,8.14,0,0,0,7.23-4.37l33.57-63.75L430.6,449.5a8.17,8.17,0,0,0,9.14-11.44l-42.28-90.64a32.42,32.42,0,0,0,31.24-44.11L420.08,281a24.41,24.41,0,0,1,9.47-29.14l20.12-13a32.47,32.47,0,0,0,0-54.52Zm-257,309.92-35-66.5a4.1,4.1,0,0,0-3.62-2.18,4.28,4.28,0,0,0-.87.09L79.68,441.52,123.77,347l15.5-.82a24.32,24.32,0,0,1,24.79,18l6.17,23.16a32.48,32.48,0,0,0,51.84,16.85L240.68,389c.45-.37,1-.64,1.43-1Zm239.7-52.67L358.88,425.6a4.11,4.11,0,0,0-4.5,2.09l-35,66.5L269.91,388.07c.47.33,1,.6,1.43,1l18.6,15.13a32.49,32.49,0,0,0,51.87-16.86L348,364.16a24.33,24.33,0,0,1,24.79-18l15.54.82,44.11,94.55Zm12.9-209.6-20.12,13a32.59,32.59,0,0,0-12.65,38.94l8.62,22.37a24.3,24.3,0,0,1-24,33L373.18,338A32.81,32.81,0,0,0,340.06,362l-6.16,23.15a24.3,24.3,0,0,1-38.8,12.61l-18.6-15.12a32.62,32.62,0,0,0-41,0l-18.6,15.12a24.3,24.3,0,0,1-38.79-12.6L172,362A32.65,32.65,0,0,0,138.87,338l-23.94,1.29a23.88,23.88,0,0,1-21-10,24.21,24.21,0,0,1-3-23l8.62-22.37a32.6,32.6,0,0,0-12.65-38.94l-20.12-13a24.28,24.28,0,0,1,0-40.79l20.08-13a32.61,32.61,0,0,0,12.66-38.94l-8.63-22.37a24.28,24.28,0,0,1,24-33l23.93,1.29A32.71,32.71,0,0,0,172,61l6.18-23.14a24.29,24.29,0,0,1,38.8-12.6l18.6,15.12a32.61,32.61,0,0,0,41,0l18.61-15.12a24.29,24.29,0,0,1,38.79,12.6L340.05,61A32.73,32.73,0,0,0,373.16,85.1l23.93-1.29a24.28,24.28,0,0,1,24,33l-8.62,22.36a32.59,32.59,0,0,0,12.65,38.94l20.12,13a24.29,24.29,0,0,1,0,40.79Z" transform="translate(-47.5 -11.63)"/><path class="cls-5" d="M348.47,307a133,133,0,0,1-33,23.41,4.09,4.09,0,0,0,1.83,7.75,4,4,0,0,0,1.83-.44,141,141,0,0,0,35-24.86,4.09,4.09,0,0,0-5.7-5.86Z" transform="translate(-47.5 -11.63)"/><path class="cls-4" d="M256,70.48a141,141,0,1,0,47.12,274,4.09,4.09,0,1,0-2.64-7.74l-.09,0a133,133,0,1,1,59.28-42.15,4.09,4.09,0,0,0,6.38,5.12h0A141,141,0,0,0,256,70.48Z" transform="translate(-47.5 -11.63)"/><path class="cls-1" d="M235,237.75a5.91,5.91,0,0,1-5.81-6.93l3.48-20.3L217.9,196.13A5.9,5.9,0,0,1,221.21,186l20.37-2.94,9.12-18.46a5.9,5.9,0,0,1,10.61,0l9.12,18.46,20.39,2.94a5.9,5.9,0,0,1,5,6.64,6,6,0,0,1-1.76,3.47l-14.74,14.38,3.49,20.29a5.9,5.9,0,0,1-4.79,6.82,5.8,5.8,0,0,1-1,.09,5.89,5.89,0,0,1-2.79-.7L256,227.51l-18.25,9.56A5.93,5.93,0,0,1,235,237.75Z" transform="translate(-47.5 -11.63)"/><path class="cls-4" d="M256,164.83a2.47,2.47,0,0,1,1.05.24,2.41,2.41,0,0,1,1.11,1.12l9.94,20.13,22.22,3.2a2.4,2.4,0,0,1,2.05,2.71,2.38,2.38,0,0,1-.72,1.41l-16.07,15.7,3.8,22.09a2.4,2.4,0,0,1-1.95,2.78,2,2,0,0,1-.42,0,2.49,2.49,0,0,1-1.13-.28L256,223.56,236.12,234a2.42,2.42,0,0,1-1.13.28,2.39,2.39,0,0,1-2.12-1.27,2.44,2.44,0,0,1-.25-1.55l3.8-22.13-16.07-15.68a2.39,2.39,0,0,1-.08-3.39,2.35,2.35,0,0,1,1.41-.72l22.22-3.21,9.94-20.11a2.39,2.39,0,0,1,2.16-1.36m0-7h0a9.47,9.47,0,0,0-8.45,5.27l-8.3,16.8-18.57,2.68a9.4,9.4,0,0,0-5.21,16.07l13.43,13.09-3.17,18.51a9.4,9.4,0,0,0,13.66,9.91l16.61-8.7,16.61,8.7a9.49,9.49,0,0,0,4.4,1.09,9.4,9.4,0,0,0,9.26-11.05l-3.17-18.43,13.43-13.11a9.42,9.42,0,0,0,2.78-5.51,9.39,9.39,0,0,0-8-10.56l-18.55-2.67-8.31-16.83a9.45,9.45,0,0,0-8.44-5.26Z" transform="translate(-47.5 -11.63)"/><path class="cls-1" d="M166.42,249.2a5.2,5.2,0,0,1-5.11-6.1l2.35-13.65-9.94-9.68a5.18,5.18,0,0,1,2.87-8.85l13.74-2,6.14-12.44a5.19,5.19,0,0,1,9.31,0l6.13,12.43,13.74,2a5.19,5.19,0,0,1,2.88,8.85l-9.94,9.68,2.34,13.68a5.19,5.19,0,0,1-4.22,6,5.26,5.26,0,0,1-.89.08,5.18,5.18,0,0,1-2.41-.6l-12.29-6.46-12.28,6.46A5.22,5.22,0,0,1,166.42,249.2Z" transform="translate(-47.5 -11.63)"/><path class="cls-4" d="M181.12,197.09a1.69,1.69,0,0,1,.75.18,1.65,1.65,0,0,1,.76.76l7,14.1,15.55,2.26a1.68,1.68,0,0,1,1.43,1.91,1.65,1.65,0,0,1-.49,1l-11.25,11,2.65,15.49a1.68,1.68,0,0,1-1.37,1.95,1.43,1.43,0,0,1-.29,0,1.72,1.72,0,0,1-.79-.2l-13.91-7.31-13.91,7.31a1.72,1.72,0,0,1-.79.2,1.68,1.68,0,0,1-1.49-.91,1.6,1.6,0,0,1-.17-1.07l2.66-15.49-11.26-11a1.69,1.69,0,0,1,0-2.39,1.65,1.65,0,0,1,1-.49l15.55-2.26,7-14.1a1.68,1.68,0,0,1,1.51-.93m0-7h0a8.64,8.64,0,0,0-7.77,4.8L168,205.72l-11.91,1.73a8.74,8.74,0,0,0-5,2.55,8.69,8.69,0,0,0,.18,12.28l8.61,8.39-2,11.85a8.69,8.69,0,0,0,12.61,9.18l10.65-5.61,10.66,5.61a8.75,8.75,0,0,0,4,1,9.27,9.27,0,0,0,1.49-.13,8.68,8.68,0,0,0,7.07-10.06l-2-11.84,8.61-8.39a8.69,8.69,0,0,0-4.81-14.82l-11.91-1.73-5.33-10.8A8.7,8.7,0,0,0,185,191a8.79,8.79,0,0,0-3.89-.92Z" transform="translate(-47.5 -11.63)"/><path class="cls-1" d="M316.18,249.2a5.2,5.2,0,0,1-4.6-2.78,5.3,5.3,0,0,1-.51-3.29l2.34-13.68-9.93-9.67a5.2,5.2,0,0,1,2.87-8.86l13.74-2,6.14-12.45a5.17,5.17,0,0,1,4.65-2.89,5.16,5.16,0,0,1,4.65,2.9l6.14,12.44,13.74,2a5.19,5.19,0,0,1,2.87,8.86l-9.94,9.67,2.35,13.68a5.19,5.19,0,0,1-4.22,6,5.26,5.26,0,0,1-.89.08,5.33,5.33,0,0,1-2.41-.59l-12.29-6.47-12.29,6.46A5.18,5.18,0,0,1,316.18,249.2Z" transform="translate(-47.5 -11.63)"/><path class="cls-4" d="M330.88,197.09a1.69,1.69,0,0,1,.75.18,1.65,1.65,0,0,1,.76.76l7,14.1,15.55,2.26a1.68,1.68,0,0,1,1.43,1.91,1.65,1.65,0,0,1-.49,1l-11.26,11,2.66,15.49a1.69,1.69,0,0,1-1.37,1.95l-.29,0a1.72,1.72,0,0,1-.79-.2l-13.91-7.31L317,245.5a1.68,1.68,0,0,1-.78.2,1.7,1.7,0,0,1-1.5-.91,1.66,1.66,0,0,1-.16-1.07l2.65-15.49-11.25-11a1.69,1.69,0,0,1,0-2.39,1.65,1.65,0,0,1,1-.49l15.55-2.26,7-14.1a1.69,1.69,0,0,1,1.51-.94m0-7h0a8.64,8.64,0,0,0-7.79,4.83l-5.33,10.81-11.91,1.73A8.69,8.69,0,0,0,301,222.29l8.61,8.38-2,11.86a8.69,8.69,0,0,0,8.56,10.17,8.82,8.82,0,0,0,4.05-1l10.65-5.61,10.65,5.61a8.76,8.76,0,0,0,4.05,1,9.27,9.27,0,0,0,1.49-.13,8.7,8.7,0,0,0,7.07-10l-2-11.85,8.61-8.39a8.68,8.68,0,0,0-4.82-14.82L344,205.73l-5.33-10.8a8.77,8.77,0,0,0-3.92-3.93,8.87,8.87,0,0,0-3.87-.91Z" transform="translate(-47.5 -11.63)"/></svg>