<svg id="Layer_1" data-name="Layer 1" xmlns="http://www.w3.org/2000/svg" viewBox="0 0 412.62 486"><defs><style>.cls-1{fill:#fff;}.cls-2{fill:#ff5e5e;}.cls-3{fill:#e0dada;}.cls-4{fill:#02033b;}</style></defs><title>icon-8</title><path class="cls-1" d="M254.15,91.49a204.12,204.12,0,0,1,22.92,1.33v-37H231.24v37a203.82,203.82,0,0,1,22.91-1.35Z" transform="translate(-47.66 -14.1)"/><rect class="cls-2" x="148.17" y="4.08" width="116.65" height="37.62" rx="8.16" ry="8.16"/><circle class="cls-3" cx="254.15" cy="293.5" r="202.01" transform="translate(-180.75 251.57) rotate(-45)"/><circle class="cls-3" cx="254.15" cy="293.5" r="167.62" transform="matrix(0.13, -0.99, 0.99, 0.13, -118.23, 492.21)"/><path class="cls-1" d="M421.78,293.5A167.63,167.63,0,1,1,254.13,125.89h0V293.5L372.69,175A167.1,167.1,0,0,1,421.78,293.5Z" transform="translate(-47.66 -14.1)"/><path class="cls-2" d="M336,211.59l-78.35,56.92a25.32,25.32,0,1,0,20.13,16.08Z" transform="translate(-47.66 -14.1)"/><path class="cls-2" d="M415.37,113l24.71,24.72a6.6,6.6,0,0,1,0,9.35L439,148.09a6.61,6.61,0,0,1-9.35,0L405,123.38a6.63,6.63,0,0,1,0-9.36L406,113A6.63,6.63,0,0,1,415.37,113Z" transform="translate(-47.66 -14.1)"/><path class="cls-4" d="M235.25,22.26h35.22a4.08,4.08,0,0,0,0-8.16H235.25a4.08,4.08,0,0,0,0,8.16Z" transform="translate(-47.66 -14.1)"/><path class="cls-4" d="M254.15,121.81a171.71,171.71,0,1,0,171.71,171.7h0a171.89,171.89,0,0,0-171.71-171.7Zm0,335.25A163.55,163.55,0,1,1,417.7,293.51h0A163.74,163.74,0,0,1,254.15,457.05Z" transform="translate(-47.66 -14.1)"/><path class="cls-4" d="M254.15,163.83a10.75,10.75,0,1,0-10.75-10.75h0A10.75,10.75,0,0,0,254.15,163.83Z" transform="translate(-47.66 -14.1)"/><path class="cls-4" d="M154.87,183.47a10.75,10.75,0,1,1-10.75,10.75A10.75,10.75,0,0,1,154.87,183.47Z" transform="translate(-47.66 -14.1)"/><path class="cls-4" d="M113.75,282.75A10.75,10.75,0,1,1,103,293.5,10.74,10.74,0,0,1,113.75,282.75Z" transform="translate(-47.66 -14.1)"/><path class="cls-4" d="M154.87,382a10.75,10.75,0,1,1-10.75,10.75A10.75,10.75,0,0,1,154.87,382Z" transform="translate(-47.66 -14.1)"/><path class="cls-4" d="M254.15,423.16A10.75,10.75,0,1,0,264.9,433.9h0a10.76,10.76,0,0,0-10.75-10.74Z" transform="translate(-47.66 -14.1)"/><path class="cls-4" d="M353.43,382a10.75,10.75,0,1,1-10.75,10.75A10.75,10.75,0,0,1,353.43,382Z" transform="translate(-47.66 -14.1)"/><path class="cls-4" d="M394.55,282.76A10.75,10.75,0,1,0,405.3,293.5h0a10.74,10.74,0,0,0-10.74-10.74Z" transform="translate(-47.66 -14.1)"/><path class="cls-4" d="M353.43,183.47a10.75,10.75,0,1,1-10.75,10.75A10.75,10.75,0,0,1,353.43,183.47Z" transform="translate(-47.66 -14.1)"/><path class="cls-4" d="M333.58,208.3l-77.08,56c-.77-.06-1.55-.12-2.35-.12a29.42,29.42,0,1,0,29.34,29.49,29.94,29.94,0,0,0-1.16-8.25l56.84-71.26a4.08,4.08,0,0,0-5.59-5.85ZM254.15,314.68a21.18,21.18,0,1,1,21.18-21.19h0A21.22,21.22,0,0,1,254.15,314.68Zm24.34-37.53A29.48,29.48,0,0,0,266.65,267L314,232.61Z" transform="translate(-47.66 -14.1)"/><path class="cls-4" d="M405.3,153.6l12-12,9.47,9.47a10.68,10.68,0,0,0,15.11,0h0L443,150a10.7,10.7,0,0,0,0-15.12l-24.71-24.73a10.74,10.74,0,0,0-15.14,0l-1,1.06a10.69,10.69,0,0,0,0,15.12h0l9.47,9.47-11.91,11.91A205.65,205.65,0,0,0,281.14,89.23V59.88h23.19a12.24,12.24,0,0,0,12.24-12.24V26.34A12.24,12.24,0,0,0,304.33,14.1H287.09a4.08,4.08,0,1,0,0,8.16h17.24a4.08,4.08,0,0,1,4.08,4.08v21.3a4.08,4.08,0,0,1-4.08,4.08H204a4.08,4.08,0,0,1-4.08-4.08V26.34A4.08,4.08,0,0,1,204,22.26h15a4.08,4.08,0,1,0,0-8.16H204a12.24,12.24,0,0,0-12.24,12.24v21.3A12.24,12.24,0,0,0,204,59.88h23.17V89.25c-113,14.82-192.52,118.4-177.71,231.37S167.83,513.14,280.8,498.33,473.32,379.93,458.5,267A206.31,206.31,0,0,0,405.3,153.6Zm1.82-34.85a2.51,2.51,0,0,1,.75-1.79l1.06-1.06a2.55,2.55,0,0,1,3.58,0l24.72,24.72a2.56,2.56,0,0,1,0,3.59l-1.07,1.06a2.6,2.6,0,0,1-3.59,0l-24.71-24.72a2.52,2.52,0,0,1-.72-1.8ZM235.32,59.88H273V88.31c-6.2-.57-12.48-.9-18.83-.9s-12.63.33-18.83.9Zm18.83,431.55c-109.31,0-197.93-88.62-197.93-197.93S144.84,95.57,254.15,95.57,452.08,184.18,452.08,293.5,363.41,491.31,254.15,491.43Z" transform="translate(-47.66 -14.1)"/></svg>