<svg id="Layer_1" data-name="Layer 1" xmlns="http://www.w3.org/2000/svg" viewBox="0 0 494.66 478.3"><defs><style>.cls-1{fill:#fff;}.cls-2{fill:#ff5e5e;}.cls-3{fill:#e0dada;}.cls-4{fill:#02033b;}</style></defs><title>icon-7</title><circle class="cls-1" cx="247.33" cy="337.69" r="136.37"/><path class="cls-2" d="M293.94,381.81a58.07,58.07,0,0,1-73.87,0,46.46,46.46,0,0,0-44.79,46.41v36.84a136.4,136.4,0,0,0,163.45,0V428.22a46.47,46.47,0,0,0-44.79-46.41Z" transform="translate(-9.67 -18.2)"/><path class="cls-3" d="M257,278.93A58.07,58.07,0,1,1,198.93,337,58.07,58.07,0,0,1,257,278.93Z" transform="translate(-9.67 -18.2)"/><path class="cls-1" d="M46.17,22.37H467.84A32.34,32.34,0,0,1,500.17,54.7v117c0,17.85-14.48,36.5-32.33,36.5H290.31L257,254.72l-33.31-46.54H46.17c-17.86,0-32.34-18.66-32.34-36.51V54.7A32.33,32.33,0,0,1,46.16,22.37Z" transform="translate(-9.67 -18.2)"/><path class="cls-2" d="M91.12,67.14l12.67,25.67,28.32,4.11a3.09,3.09,0,0,1,2.6,3.49,3.05,3.05,0,0,1-.9,1.76l-20.49,20,4.83,28.21a3.06,3.06,0,0,1-2.51,3.55,3,3,0,0,1-2-.31l-25.32-13.3L63,153.63a3.08,3.08,0,0,1-4.16-1.29,3.14,3.14,0,0,1-.31-2l4.84-28.22-20.5-20a3.09,3.09,0,0,1,0-4.35,3.05,3.05,0,0,1,1.76-.9l28.32-4.12L85.6,67.15a3.06,3.06,0,0,1,5.52,0Z" transform="translate(-9.67 -18.2)"/><path class="cls-2" d="M203.55,67.14l12.67,25.67,28.31,4.11a3.08,3.08,0,0,1,2.6,3.49,3,3,0,0,1-.89,1.76l-20.5,20,4.84,28.21a3.07,3.07,0,0,1-2.52,3.55,3,3,0,0,1-1.94-.31l-25.33-13.3-25.34,13.32a3.08,3.08,0,0,1-4.15-1.29,3,3,0,0,1-.31-2l4.84-28.22-20.5-20A3.08,3.08,0,0,1,157,96.94l28.31-4.12L198,67.15a3.07,3.07,0,0,1,4.1-1.43,3.12,3.12,0,0,1,1.43,1.42Z" transform="translate(-9.67 -18.2)"/><path class="cls-2" d="M316,67.14l12.67,25.67L357,96.92a3.09,3.09,0,0,1,2.6,3.49,3.05,3.05,0,0,1-.9,1.76l-20.5,20L343,150.37a3.07,3.07,0,0,1-2.51,3.55,3,3,0,0,1-1.95-.31l-25.33-13.3-25.33,13.32a3.08,3.08,0,0,1-4.16-1.29,3.14,3.14,0,0,1-.31-2l4.84-28.22-20.5-20a3.08,3.08,0,0,1,1.71-5.25l28.32-4.12,12.67-25.67a3.06,3.06,0,0,1,5.52,0Z" transform="translate(-9.67 -18.2)"/><path class="cls-2" d="M428.4,67.14l12.67,25.67,28.31,4.11a3.08,3.08,0,0,1,2.6,3.49,3,3,0,0,1-.89,1.76l-20.5,20,4.84,28.21a3.07,3.07,0,0,1-2.52,3.55,3,3,0,0,1-2-.31l-25.32-13.3L400.3,153.63a3.08,3.08,0,0,1-4.15-1.29,3,3,0,0,1-.31-2l4.84-28.22-20.5-20a3.08,3.08,0,0,1,1.71-5.25l28.31-4.12,12.67-25.67a3.07,3.07,0,0,1,4.1-1.43,3.12,3.12,0,0,1,1.43,1.42Z" transform="translate(-9.67 -18.2)"/><path class="cls-4" d="M138.56,97.73a7.2,7.2,0,0,0-5.82-4.93L106.58,89,94.88,65.29a7.24,7.24,0,0,0-13,0L70.19,89,44,92.8a7.24,7.24,0,0,0-4,12.35L59,123.6l-4.47,26.06A7.23,7.23,0,0,0,65,157.29L88.37,145l23.39,12.3a7.24,7.24,0,0,0,10.51-7.63L117.8,123.6l18.92-18.45A7.16,7.16,0,0,0,138.56,97.73Zm-28.13,21.44a4.15,4.15,0,0,0-1.19,3.68l4.46,26L90.31,136.6a4.16,4.16,0,0,0-3.88,0L63,148.9l4.46-26.05a4.12,4.12,0,0,0-1.19-3.68L47.39,100.73l26.15-3.8a4.16,4.16,0,0,0,3.13-2.28L88.37,71l11.69,23.69a4.18,4.18,0,0,0,3.14,2.28l26.14,3.8Z" transform="translate(-9.67 -18.2)"/><path class="cls-4" d="M251,97.73a7.2,7.2,0,0,0-5.83-4.93L219,89,207.3,65.29a7.24,7.24,0,0,0-13,0L182.62,89l-26.16,3.8a7.24,7.24,0,0,0-4,12.35l18.94,18.45-4.47,26.06a7.22,7.22,0,0,0,10.5,7.63L200.79,145l23.4,12.3a7.24,7.24,0,0,0,10.5-7.63l-4.47-26.06,18.93-18.45A7.18,7.18,0,0,0,251,97.73Zm-28.13,21.44a4.16,4.16,0,0,0-1.2,3.68l4.47,26-23.4-12.29a4.16,4.16,0,0,0-3.88,0l-23.38,12.3,4.46-26.05a4.16,4.16,0,0,0-1.2-3.68l-18.92-18.44L186,96.93a4.18,4.18,0,0,0,3.14-2.28L200.79,71l11.7,23.69a4.16,4.16,0,0,0,3.13,2.28l26.14,3.8Z" transform="translate(-9.67 -18.2)"/><path class="cls-4" d="M363.41,97.73a7.19,7.19,0,0,0-5.85-4.93L331.41,89l-11.7-23.71a7.24,7.24,0,0,0-13,0L295,89l-26.16,3.8a7.23,7.23,0,0,0-4,12.35l18.93,18.45-4.47,26.06a7.23,7.23,0,0,0,10.51,7.63L313.21,145l23.4,12.3a7.24,7.24,0,0,0,10.51-7.63l-4.48-26.06,18.93-18.45a7.16,7.16,0,0,0,1.84-7.42Zm-28.13,21.44a4.15,4.15,0,0,0-1.19,3.68l4.46,26-23.4-12.29a4.16,4.16,0,0,0-3.88,0l-23.38,12.3,4.46-26.05a4.12,4.12,0,0,0-1.19-3.68l-18.92-18.44,26.15-3.8a4.16,4.16,0,0,0,3.13-2.28L313.21,71l11.7,23.69a4.18,4.18,0,0,0,3.14,2.28l26.14,3.8Z" transform="translate(-9.67 -18.2)"/><path class="cls-4" d="M475.84,97.73A7.22,7.22,0,0,0,470,92.8L443.83,89l-11.7-23.71a7.24,7.24,0,0,0-13,0L407.45,89l-26.16,3.8a7.24,7.24,0,0,0-4,12.35L396.2,123.6l-4.46,26.06a7.22,7.22,0,0,0,10.5,7.63l23.4-12.3,23.4,12.3a7.24,7.24,0,0,0,10.5-7.63l-4.47-26.06L474,105.15a7.18,7.18,0,0,0,1.84-7.42Zm-28.15,21.44a4.12,4.12,0,0,0-1.19,3.68l4.46,26L427.58,136.6a4.16,4.16,0,0,0-3.88,0l-23.39,12.3,4.47-26.05a4.16,4.16,0,0,0-1.2-3.68l-18.92-18.44,26.15-3.8A4.18,4.18,0,0,0,414,94.65L425.64,71l11.7,23.69a4.14,4.14,0,0,0,3.13,2.28l26.14,3.8Z" transform="translate(-9.67 -18.2)"/><path class="cls-4" d="M467.84,18.2H193.52a4.17,4.17,0,0,0,0,8.33H467.84A28.19,28.19,0,0,1,496,54.7v117c0,15-12.3,32.33-28.16,32.33H290.31a4.16,4.16,0,0,0-3.38,1.74L257,247.56l-29.92-41.82a4.17,4.17,0,0,0-3.39-1.73H46.17C30.3,204,18,186.64,18,171.69V54.7A28.21,28.21,0,0,1,46.17,26.53h72a4.17,4.17,0,0,0,0-8.33h-72A36.54,36.54,0,0,0,9.67,54.7v117c0,19.19,15.61,40.66,36.49,40.66H221.55l4.64,6.49a140.52,140.52,0,1,0,61.6,0l4.66-6.48H467.84c20.88,0,36.49-21.46,36.49-40.65V54.7A36.54,36.54,0,0,0,467.84,18.2ZM179.44,462.85V428.22A42.35,42.35,0,0,1,218.82,386a61.84,61.84,0,0,0,76.36,0,42.35,42.35,0,0,1,39.38,42.18v34.63a131.77,131.77,0,0,1-155.12,0ZM257,390.91A53.91,53.91,0,1,1,310.91,337h0A54,54,0,0,1,257,390.91Zm132.21-35a131.93,131.93,0,0,1-46.32,100.38v-28A50.71,50.71,0,0,0,303,378.76a62.23,62.23,0,1,0-92,0,50.69,50.69,0,0,0-39.88,49.46v28A132.09,132.09,0,0,1,231.48,226.2l22.14,30.95a4.16,4.16,0,0,0,6.77,0l22.13-30.95A132.43,132.43,0,0,1,389.21,355.89Z" transform="translate(-9.67 -18.2)"/><path class="cls-4" d="M135.45,26.53h40a4.17,4.17,0,0,0,0-8.33h-40a4.17,4.17,0,0,0,0,8.33Z" transform="translate(-9.67 -18.2)"/></svg>