<svg id="Layer_1" data-name="Layer 1" xmlns="http://www.w3.org/2000/svg" viewBox="0 0 499 431.62"><defs><style>.cls-1,.cls-5{fill:#fff;}.cls-2{fill:#e0dada;}.cls-3,.cls-4{fill:#ff5e5e;}.cls-4,.cls-5{stroke:#02033b;stroke-miterlimit:10;stroke-width:7px;}.cls-6{fill:#02033b;}</style></defs><title>icon-5</title><path class="cls-1" d="M474.52,466.18h-435A25.58,25.58,0,0,1,13.9,440.6V100.72A25.58,25.58,0,0,1,39.48,75.14h435a25.58,25.58,0,0,1,25.58,25.58V440.6A25.58,25.58,0,0,1,474.52,466.18Z" transform="translate(-7.5 -40.96)"/><path class="cls-2" d="M500.1,158.3V100.72a25.58,25.58,0,0,0-25.58-25.58h-435A25.58,25.58,0,0,0,13.9,100.72V158.3Z" transform="translate(-7.5 -40.96)"/><path class="cls-1" d="M86.73,85.93v30.76a12.79,12.79,0,0,0,12.79,12.79h15.14a12.79,12.79,0,0,0,12.79-12.79V85.93Z" transform="translate(-7.5 -40.96)"/><path class="cls-1" d="M186.67,85.93v30.76a12.79,12.79,0,0,0,12.79,12.79H214.6a12.79,12.79,0,0,0,12.79-12.79V85.93Z" transform="translate(-7.5 -40.96)"/><path class="cls-1" d="M286.61,85.93v30.76a12.79,12.79,0,0,0,12.79,12.79h15.14a12.79,12.79,0,0,0,12.79-12.79V85.93Z" transform="translate(-7.5 -40.96)"/><path class="cls-1" d="M386.55,85.93v30.76a12.79,12.79,0,0,0,12.79,12.79h15.14a12.79,12.79,0,0,0,12.79-12.79V85.93Z" transform="translate(-7.5 -40.96)"/><path class="cls-3" d="M114.66,112.79H99.52A12.79,12.79,0,0,1,86.73,100V60.14A12.79,12.79,0,0,1,99.52,47.35h15.14a12.79,12.79,0,0,1,12.79,12.79V100A12.79,12.79,0,0,1,114.66,112.79Z" transform="translate(-7.5 -40.96)"/><path class="cls-3" d="M214.6,112.79H199.46A12.79,12.79,0,0,1,186.67,100V60.14a12.79,12.79,0,0,1,12.79-12.79H214.6a12.79,12.79,0,0,1,12.79,12.79V100A12.79,12.79,0,0,1,214.6,112.79Z" transform="translate(-7.5 -40.96)"/><path class="cls-3" d="M314.54,112.79H299.4A12.79,12.79,0,0,1,286.61,100V60.14A12.79,12.79,0,0,1,299.4,47.35h15.14a12.79,12.79,0,0,1,12.79,12.79V100A12.79,12.79,0,0,1,314.54,112.79Z" transform="translate(-7.5 -40.96)"/><path class="cls-3" d="M414.48,112.79H399.34A12.79,12.79,0,0,1,386.55,100V60.14a12.79,12.79,0,0,1,12.79-12.79h15.14a12.79,12.79,0,0,1,12.79,12.79V100A12.79,12.79,0,0,1,414.48,112.79Z" transform="translate(-7.5 -40.96)"/><path class="cls-4" d="M107.48,257.06H71.87a12.79,12.79,0,0,1-12.79-12.79v-35.6a12.8,12.8,0,0,1,12.79-12.8h35.61a12.8,12.8,0,0,1,12.79,12.8v35.6A12.79,12.79,0,0,1,107.48,257.06Z" transform="translate(-7.5 -40.96)"/><path class="cls-4" d="M191.14,257.06h-35.6a12.79,12.79,0,0,1-12.79-12.79v-35.6a12.79,12.79,0,0,1,12.79-12.8h35.6a12.79,12.79,0,0,1,12.79,12.8v35.6A12.79,12.79,0,0,1,191.14,257.06Z" transform="translate(-7.5 -40.96)"/><path class="cls-4" d="M274.8,257.06H239.2a12.79,12.79,0,0,1-12.79-12.79v-35.6a12.79,12.79,0,0,1,12.79-12.8h35.6a12.79,12.79,0,0,1,12.79,12.8v35.6A12.79,12.79,0,0,1,274.8,257.06Z" transform="translate(-7.5 -40.96)"/><path class="cls-4" d="M358.46,257.06h-35.6a12.79,12.79,0,0,1-12.79-12.79v-35.6a12.8,12.8,0,0,1,12.79-12.8h35.6a12.8,12.8,0,0,1,12.8,12.8v35.6A12.8,12.8,0,0,1,358.46,257.06Z" transform="translate(-7.5 -40.96)"/><path class="cls-4" d="M442.13,257.06H406.52a12.79,12.79,0,0,1-12.79-12.79v-35.6a12.8,12.8,0,0,1,12.79-12.8h35.61a12.8,12.8,0,0,1,12.79,12.8v35.6a12.79,12.79,0,0,1-12.79,12.79Z" transform="translate(-7.5 -40.96)"/><path class="cls-5" d="M107.48,339.86H71.87a12.79,12.79,0,0,1-12.79-12.79v-35.6a12.79,12.79,0,0,1,12.79-12.79h35.61a12.79,12.79,0,0,1,12.79,12.79v35.6A12.79,12.79,0,0,1,107.48,339.86Z" transform="translate(-7.5 -40.96)"/><path class="cls-5" d="M191.14,339.86h-35.6a12.78,12.78,0,0,1-12.79-12.79v-35.6a12.78,12.78,0,0,1,12.79-12.79h35.6a12.78,12.78,0,0,1,12.79,12.79v35.6A12.78,12.78,0,0,1,191.14,339.86Z" transform="translate(-7.5 -40.96)"/><path class="cls-5" d="M274.8,339.86H239.2a12.78,12.78,0,0,1-12.79-12.79v-35.6a12.78,12.78,0,0,1,12.79-12.79h35.6a12.78,12.78,0,0,1,12.79,12.79v35.6A12.78,12.78,0,0,1,274.8,339.86Z" transform="translate(-7.5 -40.96)"/><path class="cls-5" d="M358.46,339.86h-35.6a12.79,12.79,0,0,1-12.79-12.79v-35.6a12.79,12.79,0,0,1,12.79-12.79h35.6a12.79,12.79,0,0,1,12.8,12.79v35.6A12.79,12.79,0,0,1,358.46,339.86Z" transform="translate(-7.5 -40.96)"/><path class="cls-5" d="M442.13,339.86H406.52a12.79,12.79,0,0,1-12.79-12.79v-35.6a12.79,12.79,0,0,1,12.79-12.79h35.61a12.79,12.79,0,0,1,12.79,12.79v35.6a12.79,12.79,0,0,1-12.79,12.79Z" transform="translate(-7.5 -40.96)"/><path class="cls-5" d="M107.48,422.67H71.87a12.79,12.79,0,0,1-12.79-12.79V374.27a12.79,12.79,0,0,1,12.79-12.79h35.61a12.79,12.79,0,0,1,12.79,12.79v35.61a12.79,12.79,0,0,1-12.79,12.79Z" transform="translate(-7.5 -40.96)"/><path class="cls-5" d="M191.14,422.67h-35.6a12.79,12.79,0,0,1-12.79-12.79V374.27a12.79,12.79,0,0,1,12.79-12.79h35.6a12.79,12.79,0,0,1,12.79,12.79v35.61a12.79,12.79,0,0,1-12.79,12.79Z" transform="translate(-7.5 -40.96)"/><path class="cls-5" d="M274.8,422.67H239.2a12.79,12.79,0,0,1-12.79-12.79V374.27a12.79,12.79,0,0,1,12.79-12.79h35.6a12.79,12.79,0,0,1,12.79,12.79v35.61a12.79,12.79,0,0,1-12.79,12.79Z" transform="translate(-7.5 -40.96)"/><path class="cls-5" d="M358.46,422.67h-35.6a12.79,12.79,0,0,1-12.79-12.79V374.27a12.79,12.79,0,0,1,12.79-12.79h35.6a12.8,12.8,0,0,1,12.8,12.79v35.61a12.8,12.8,0,0,1-12.8,12.79Z" transform="translate(-7.5 -40.96)"/><path class="cls-6" d="M474.52,68.74H433.67v-8.6A19.2,19.2,0,0,0,414.48,41H399.34a19.2,19.2,0,0,0-19.18,19.18v8.6H333.73v-8.6A19.2,19.2,0,0,0,314.54,41H299.4a19.2,19.2,0,0,0-19.18,19.18v8.6H233.78v-8.6A19.2,19.2,0,0,0,214.6,41H199.46a19.2,19.2,0,0,0-19.19,19.18v8.6H133.84v-8.6A19.2,19.2,0,0,0,114.66,41H99.52A19.2,19.2,0,0,0,80.33,60.14v8.6H39.48a32,32,0,0,0-32,32V440.6a32,32,0,0,0,32,32h87.41a6.4,6.4,0,1,0,0-12.79H39.48A19.21,19.21,0,0,1,20.29,440.6V164.7H493.71V337.29a6.4,6.4,0,0,0,12.79,0V100.72A32,32,0,0,0,474.52,68.74ZM393,60.14a6.4,6.4,0,0,1,6.39-6.39h15.14a6.4,6.4,0,0,1,6.39,6.39V100a6.4,6.4,0,0,1-6.39,6.39H399.34A6.4,6.4,0,0,1,393,100Zm-99.94,0a6.4,6.4,0,0,1,6.39-6.39h15.14a6.4,6.4,0,0,1,6.39,6.39V100a6.4,6.4,0,0,1-6.39,6.39H299.4A6.4,6.4,0,0,1,293,100Zm-99.94,0a6.4,6.4,0,0,1,6.39-6.39H214.6A6.4,6.4,0,0,1,221,60.14V100a6.4,6.4,0,0,1-6.39,6.39H199.46a6.4,6.4,0,0,1-6.39-6.39Zm-99.94,0a6.4,6.4,0,0,1,6.39-6.39h15.14a6.4,6.4,0,0,1,6.39,6.39V100a6.4,6.4,0,0,1-6.39,6.39H99.52A6.4,6.4,0,0,1,93.13,100ZM20.29,151.9V100.72A19.21,19.21,0,0,1,39.48,81.53H80.34V100a19.2,19.2,0,0,0,19.18,19.18h15.14A19.2,19.2,0,0,0,133.85,100V81.53h46.43V100a19.2,19.2,0,0,0,19.18,19.18H214.6A19.2,19.2,0,0,0,233.79,100V81.53h46.43V100a19.2,19.2,0,0,0,19.18,19.18h15.14A19.2,19.2,0,0,0,333.73,100V81.53h46.43V100a19.2,19.2,0,0,0,19.18,19.18h15.14A19.2,19.2,0,0,0,433.67,100V81.53h40.85a19.21,19.21,0,0,1,19.19,19.19V151.9Z" transform="translate(-7.5 -40.96)"/><path class="cls-6" d="M500.1,366.83a6.4,6.4,0,0,0-6.39,6.4V440.6a19.21,19.21,0,0,1-19.19,19.19H162.84a6.4,6.4,0,1,0,0,12.79H474.52a32,32,0,0,0,32-32V373.23A6.4,6.4,0,0,0,500.1,366.83Z" transform="translate(-7.5 -40.96)"/></svg>