<svg id="Layer_1" data-name="Layer 1" xmlns="http://www.w3.org/2000/svg" viewBox="0 0 494.15 499"><defs><style>.cls-1{fill:#e0dada;}.cls-2{fill:#fff;}.cls-3{fill:#ff5e5e;}.cls-4{fill:#02033b;}</style></defs><title>icon-1</title><rect class="cls-1" x="4.46" y="4.46" width="273" height="490.09" rx="31.34" ry="31.34"/><path class="cls-2" d="M288.29,59.42V436.6h-273V59.42Z" transform="translate(-10.83 -8.5)"/><rect class="cls-3" x="43.97" y="94.01" width="193.99" height="124.3" rx="8.91" ry="8.91"/><rect class="cls-3" x="104.13" y="352.65" width="73.67" height="33.47" rx="8.91" ry="8.91"/><rect class="cls-4" x="98.35" y="23.11" width="85.22" height="10.11" rx="4.57" ry="4.57"/><path class="cls-4" d="M214.62,31.11a5.55,5.55,0,1,0,5.55,5.56h0a5.55,5.55,0,0,0-5.54-5.55Z" transform="translate(-10.83 -8.5)"/><rect class="cls-3" x="104.13" y="446.22" width="73.67" height="24.55" rx="11.1" ry="11.1"/><path class="cls-2" d="M323.84,144.72v31.13l-49,25.86,49,25.86V371.28a8.91,8.91,0,0,0,8.91,8.91H491.61a8.91,8.91,0,0,0,8.91-8.91V144.72a8.91,8.91,0,0,0-8.91-8.91H332.75A8.91,8.91,0,0,0,323.84,144.72Z" transform="translate(-10.83 -8.5)"/><circle class="cls-3" cx="401.34" cy="317.77" r="35.09"/><path class="cls-4" d="M428.7,321.82H416.63V309.75a4.46,4.46,0,0,0-8.91,0v12.07H395.65a4.46,4.46,0,0,0,0,8.91h12.07v12.06a4.46,4.46,0,1,0,8.91,0V330.73H428.7a4.46,4.46,0,0,0,0-8.91Z" transform="translate(-10.83 -8.5)"/><path class="cls-4" d="M63.71,231.27H239.88a13.37,13.37,0,0,0,13.36-13.37V111.42a13.37,13.37,0,0,0-13.36-13.37H63.71a13.37,13.37,0,0,0-13.37,13.37h0V217.9A13.37,13.37,0,0,0,63.71,231.27Zm176.17-8.91H63.71a4.46,4.46,0,0,1-4.46-4.46V184.49l57.92-43.92,56.34,45.16a4.45,4.45,0,0,0,5.16.3l36.83-23.25,28.83,21.71V217.9A4.46,4.46,0,0,1,239.88,222.36ZM63.71,107H239.88a4.46,4.46,0,0,1,4.45,4.46v61.93L218.4,153.83a4.45,4.45,0,0,0-5.05-.23l-36.74,23.19-56.56-45.35a4.46,4.46,0,0,0-5.48-.08L59.25,173.29V111.42A4.46,4.46,0,0,1,63.71,107Z" transform="translate(-10.83 -8.5)"/><path class="cls-4" d="M178.56,150.59A14.52,14.52,0,1,0,164,136.07h0A14.54,14.54,0,0,0,178.56,150.59Zm0-20.13a5.61,5.61,0,1,1-5.61,5.61h0A5.61,5.61,0,0,1,178.56,130.46Z" transform="translate(-10.83 -8.5)"/><path class="cls-4" d="M123.87,356.69a13.38,13.38,0,0,0-13.37,13.37v15.65a13.37,13.37,0,0,0,13.37,13.36h55.84a13.37,13.37,0,0,0,13.37-13.36V370.06a13.38,13.38,0,0,0-13.37-13.37Zm60.3,13.37v15.65a4.46,4.46,0,0,1-4.46,4.45H123.87a4.46,4.46,0,0,1-4.46-4.45V370.06a4.46,4.46,0,0,1,4.46-4.45h55.84A4.46,4.46,0,0,1,184.17,370.06Z" transform="translate(-10.83 -8.5)"/><path class="cls-4" d="M54.8,271.58h194a4.46,4.46,0,0,0,0-8.91H54.8a4.46,4.46,0,1,0,0,8.91Z" transform="translate(-10.83 -8.5)"/><path class="cls-4" d="M54.8,302.77h194a4.46,4.46,0,0,0,0-8.91H54.8a4.46,4.46,0,1,0,0,8.91Z" transform="translate(-10.83 -8.5)"/><path class="cls-4" d="M54.8,334h194a4.46,4.46,0,0,0,0-8.91H54.8a4.46,4.46,0,1,0,0,8.91Z" transform="translate(-10.83 -8.5)"/><path class="cls-4" d="M15.29,161.82a4.45,4.45,0,0,0,4.45-4.45v-36a4.46,4.46,0,1,0-8.91,0v36A4.46,4.46,0,0,0,15.29,161.82Z" transform="translate(-10.83 -8.5)"/><path class="cls-4" d="M491.6,131.35H332.75a13.37,13.37,0,0,0-13.36,13.37v28.44l-26.65,14.05V44.3a35.83,35.83,0,0,0-35.8-35.8H46.65a35.84,35.84,0,0,0-35.8,35.8V99.83a4.46,4.46,0,1,0,8.91,0V63.88H283.83v128l-11.09,5.86a4.47,4.47,0,0,0-1.87,6,4.53,4.53,0,0,0,1.87,1.86l11.09,5.86V432.15H19.74V178.92a4.46,4.46,0,1,0-8.91,0V471.7a35.84,35.84,0,0,0,35.8,35.8h210.3a35.84,35.84,0,0,0,35.8-35.8V216.21l26.66,14v141a13.37,13.37,0,0,0,13.36,13.37H491.62A13.37,13.37,0,0,0,505,371.28V144.72a13.37,13.37,0,0,0-13.36-13.37ZM19.74,55V44.3A26.92,26.92,0,0,1,46.63,17.41h210.3A26.91,26.91,0,0,1,283.81,44.3V55Zm237.2,443.62H46.65A26.92,26.92,0,0,1,19.76,471.7V441.06H283.83V471.7A26.92,26.92,0,0,1,256.94,498.59ZM496.06,371.28a4.46,4.46,0,0,1-4.46,4.46H332.75a4.46,4.46,0,0,1-4.45-4.46V227.57a4.46,4.46,0,0,0-2.38-3.94l-41.54-21.92,41.54-21.92a4.47,4.47,0,0,0,2.38-3.94V144.72a4.46,4.46,0,0,1,4.45-4.46H491.62a4.46,4.46,0,0,1,4.45,4.46Z" transform="translate(-10.83 -8.5)"/><path class="cls-4" d="M412.17,286.73a39.55,39.55,0,1,0,39.54,39.54A39.55,39.55,0,0,0,412.17,286.73Zm0,70.17a30.63,30.63,0,1,1,30.63-30.63,30.63,30.63,0,0,1-30.63,30.63Z" transform="translate(-10.83 -8.5)"/><path class="cls-4" d="M466.75,161.83H357.6a4.46,4.46,0,1,0,0,8.91H466.75a4.46,4.46,0,1,0,0-8.91Z" transform="translate(-10.83 -8.5)"/><path class="cls-4" d="M466.75,193H357.6a4.46,4.46,0,1,0,0,8.91H466.75a4.46,4.46,0,1,0,0-8.91Z" transform="translate(-10.83 -8.5)"/><path class="cls-4" d="M466.75,224.21H357.6a4.46,4.46,0,1,0,0,8.91H466.75a4.46,4.46,0,1,0,0-8.91Z" transform="translate(-10.83 -8.5)"/><path class="cls-4" d="M466.75,255.4H357.6a4.46,4.46,0,1,0,0,8.91H466.75a4.46,4.46,0,1,0,0-8.91Z" transform="translate(-10.83 -8.5)"/></svg>