<svg id="Layer_1" data-name="Layer 1" xmlns="http://www.w3.org/2000/svg" xmlns:xlink="http://www.w3.org/1999/xlink" viewBox="0 0 480 480"><defs><style>.cls-1{fill:none;}.cls-2{clip-path:url(#clip-path);}.cls-3{fill:#e0dada;}.cls-4{fill:#fff;}.cls-5{fill:#ff5e5e;}.cls-6{fill:#02033b;}</style><clipPath id="clip-path"><rect class="cls-1" width="480" height="480"/></clipPath></defs><title>icon-4</title><g class="cls-2"><path class="cls-3" d="M352,88a16,16,0,0,0-16-16H24A16.24,16.24,0,0,0,7.81,87.74v32H352Z"/><path class="cls-4" d="M8,120V456a16,16,0,0,0,16,16H408a16,16,0,0,0,16-16V120Z"/><rect class="cls-5" x="168" y="160" width="96" height="40"/><rect class="cls-5" x="40" y="272" width="96" height="40"/><rect class="cls-5" x="56" y="392" width="80" height="40"/><rect class="cls-5" x="296" y="392" width="80" height="40"/><rect class="cls-5" x="168" y="352" width="96" height="40"/><rect class="cls-5" x="168" y="272" width="96" height="40"/><rect class="cls-5" x="296" y="272" width="96" height="40"/><path class="cls-5" d="M457.71,80a14.53,14.53,0,0,1-10.28-24.81l10.11-10.1L434.91,22.46l-10.1,10.11A14.54,14.54,0,0,1,400,22.29V8H368V22.29a14.54,14.54,0,0,1-24.81,10.28l-10.1-10.11L310.46,45.09l10.1,10.1A14.53,14.53,0,0,1,310.29,80H296v32h14.29a14.53,14.53,0,0,1,10.27,24.81l-10.1,10.1,22.63,22.63,10.1-10.1A14.53,14.53,0,0,1,368,169.71V184h32V169.71a14.53,14.53,0,0,1,24.81-10.27l10.1,10.1,22.63-22.63-10.11-10.1A14.53,14.53,0,0,1,457.71,112H472V80ZM384,120a24,24,0,1,1,24-24,24,24,0,0,1-24,24"/><path class="cls-6" d="M472,72H457.71a6.53,6.53,0,0,1-4.62-11.15l10.11-10.1a8,8,0,0,0,0-11.32L440.57,16.8a8,8,0,0,0-11.31,0L419.15,26.91A6.53,6.53,0,0,1,408,22.29V8a8,8,0,0,0-8-8H368a8,8,0,0,0-8,8V22.29a6.53,6.53,0,0,1-11.15,4.62L338.74,16.8a8,8,0,0,0-11.31,0h0L304.8,39.43a8,8,0,0,0,0,11.32l10.11,10.1A6.53,6.53,0,0,1,310.29,72H296a8,8,0,0,0-8,8v32a8,8,0,0,0,8,8h14.29a6.53,6.53,0,0,1,4.62,11.15L304.8,141.26a8,8,0,0,0,0,11.31l22.63,22.63a8,8,0,0,0,11.31,0h0l10.11-10.11A6.53,6.53,0,0,1,360,169.71V184a8,8,0,0,0,8,8h32a8,8,0,0,0,8-8V169.71a6.53,6.53,0,0,1,11.15-4.62l10.11,10.11a8,8,0,0,0,11.31,0h0l22.63-22.63a8,8,0,0,0,0-11.31l-10.11-10.11A6.53,6.53,0,0,1,457.71,120H472a8,8,0,0,0,8-8V80a8,8,0,0,0-8-8m-8,32h-6.29a22.53,22.53,0,0,0-15.93,38.46l4.45,4.45-11.32,11.32-4.45-4.45A22.53,22.53,0,0,0,392,169.71V176H376v-6.29a22.53,22.53,0,0,0-38.46-15.93l-4.45,4.45-11.32-11.32,4.45-4.45A22.53,22.53,0,0,0,310.29,104H304V88h6.29a22.53,22.53,0,0,0,15.93-38.46l-4.45-4.45,11.32-11.32,4.45,4.45A22.53,22.53,0,0,0,376,22.29V16h16v6.29a22.53,22.53,0,0,0,38.46,15.93l4.45-4.45,11.32,11.32-4.45,4.45A22.53,22.53,0,0,0,457.71,88H464Z"/><path class="cls-6" d="M384,64a32,32,0,1,0,32,32,32,32,0,0,0-32-32m0,48a16,16,0,1,1,16-16,16,16,0,0,1-16,16"/><path class="cls-6" d="M24,480H408a24,24,0,0,0,24-24V200H416V456a8,8,0,0,1-8,8H24a8,8,0,0,1-8-8V128H272V112H16V88a8,8,0,0,1,8-8H272V64H24A24,24,0,0,0,0,88V456a24,24,0,0,0,24,24"/><path class="cls-6" d="M32,88a8,8,0,1,1-8,8,8,8,0,0,1,8-8"/><path class="cls-6" d="M56,88a8,8,0,1,1-8,8,8,8,0,0,1,8-8"/><path class="cls-6" d="M80,88a8,8,0,1,1-8,8,8,8,0,0,1,8-8"/><path class="cls-6" d="M344,224H224V208h40a8,8,0,0,0,8-8V160a8,8,0,0,0-8-8H168a8,8,0,0,0-8,8v40a8,8,0,0,0,8,8h40v16H88a8,8,0,0,0-8,8v32H40a8,8,0,0,0-8,8v40a8,8,0,0,0,8,8H64v32a8,8,0,0,0,8,8H88v24H56a8,8,0,0,0-8,8v40a8,8,0,0,0,8,8h80a8,8,0,0,0,8-8V392a8,8,0,0,0-8-8H104V352a8,8,0,0,0-8-8H80V320h56a8,8,0,0,0,8-8V272a8,8,0,0,0-8-8H96V240H208v24H168a8,8,0,0,0-8,8v40a8,8,0,0,0,8,8h40v24H168a8,8,0,0,0-8,8v40a8,8,0,0,0,8,8h96a8,8,0,0,0,8-8V352a8,8,0,0,0-8-8H224V320h40a8,8,0,0,0,8-8V272a8,8,0,0,0-8-8H224V240H336v24H296a8,8,0,0,0-8,8v40a8,8,0,0,0,8,8h56v24H336a8,8,0,0,0-8,8v32H296a8,8,0,0,0-8,8v40a8,8,0,0,0,8,8h80a8,8,0,0,0,8-8V392a8,8,0,0,0-8-8H344V360h16a8,8,0,0,0,8-8V320h24a8,8,0,0,0,8-8V272a8,8,0,0,0-8-8H352V232a8,8,0,0,0-8-8M176,168h80v24H176ZM128,424H64V400h64Zm0-120H48V280h80Zm128,80H176V360h80Zm0-80H176V280h80ZM368,424H304V400h64Zm16-120H304V280h80Z"/></g></svg>