<svg id="Layer_1" data-name="Layer 1" xmlns="http://www.w3.org/2000/svg" viewBox="0 0 172.85 172.85"><defs><style>.cls-1{fill:#478aff;}</style></defs><title>ionic</title><path class="cls-1" d="M125,221.62A39.38,39.38,0,1,0,164.4,261h0A39.42,39.42,0,0,0,125,221.62Z" transform="translate(-38.6 -174.54)"/><circle class="cls-1" cx="181.57" cy="207.17" r="17.94" transform="translate(-108.27 -80.34) rotate(-24.56)"/><path class="cls-1" d="M203.66,225.2l-.75-1.64-1.18,1.36a26.93,26.93,0,0,1-10.83,7.45l-1.17.43.47,1.17a70.65,70.65,0,1,1-34.93-36.69l1.1.53.49-1.18a27,27,0,0,1,8-10.45l1.41-1.17-1.61-.84A85.51,85.51,0,0,0,125,174.54a86.42,86.42,0,1,0,78.64,50.56Z" transform="translate(-38.6 -174.54)"/></svg>