<svg id="Isolation_Mode" data-name="Isolation Mode" xmlns="http://www.w3.org/2000/svg" viewBox="0 0 471 471"><defs><style>.cls-1{fill:#fff;}.cls-2{fill:#ff5e5e;}.cls-3{fill:#e0dada;}.cls-4{fill:#02033b;}</style></defs><title>logistics</title><circle class="cls-1" cx="234.95" cy="236.05" r="181.9"/><path class="cls-1" d="M225.14,423.29h30.31v7.58a77.19,77.19,0,0,1-2.57,7.42h-.08c.08.08.08.16,0,.16a73,73,0,0,1-67.68,45.47h-83.9a73.13,73.13,0,0,1-73.14-73.14V393H88.71l15.16,30.32Z" transform="translate(-20.5 -20.5)"/><path class="cls-2" d="M194.82,332.34A15.2,15.2,0,0,1,210,347.5a15.26,15.26,0,0,1-15.16,15.15H73.55A15.2,15.2,0,0,1,58.4,347.5a15.26,15.26,0,0,1,15.15-15.16H194.82Z" transform="translate(-20.5 -20.5)"/><path class="cls-2" d="M194.82,362.65l30.32,60.64H103.87L88.71,393H73.55V362.65Z" transform="translate(-20.5 -20.5)"/><path class="cls-3" d="M467.67,347.5H346.4a15.2,15.2,0,0,0-15.15,15.15V468.76a15.2,15.2,0,0,0,15.15,15.16H467.67a15.2,15.2,0,0,0,15.16-15.16V362.65A15.2,15.2,0,0,0,467.67,347.5Z" transform="translate(-20.5 -20.5)"/><path class="cls-2" d="M437.35,347.5v30.31H376.72V347.5h60.63Z" transform="translate(-20.5 -20.5)"/><path class="cls-3" d="M164.5,99v.54a68.64,68.64,0,0,1-11.44,37.82L134.19,165.6,108,204.78a14.12,14.12,0,0,1-23.5,0l-2.42-3.56-42.6-63.89A68.72,68.72,0,0,1,28.08,99.51V97.38a68.21,68.21,0,0,1,136.42,0Z" transform="translate(-20.5 -20.5)"/><circle class="cls-2" cx="75.79" cy="76.88" r="37.9"/><path class="cls-2" d="M363.23,169c-2.27,1.13-4.55,2.19-6.9,3.18a13.49,13.49,0,0,1-4.92,1c-3.41,0-6.52-1.36-11.52-7.57a12.23,12.23,0,0,1-1.06-5,13.49,13.49,0,0,1,1-4.92c1-2.35,2.05-4.63,3.18-6.9a243.83,243.83,0,0,1,13.65-26.07c2.35-4.09,4.85-8,7.5-12a252.63,252.63,0,0,1,20.92-27.81c4.85-5.84,10-11.45,15.46-16.9l14.1-14.1,5.76-5.76a32.15,32.15,0,0,1,45.47,45.47l-5.76,5.76L446,111.48c-5.45,5.46-11.06,10.61-16.9,15.46a252.63,252.63,0,0,1-27.81,20.92c-3.94,2.65-7.88,5.15-12,7.5A243.83,243.83,0,0,1,363.23,169Z" transform="translate(-20.5 -20.5)"/><path class="cls-1" d="M460.09,97.38l22.74,68.22-7.58,7.57L429.09,127v-.08c5.84-4.85,11.45-10,16.9-15.46Z" transform="translate(-20.5 -20.5)"/><path class="cls-1" d="M414.62,51.91,400.52,66c-5.46,5.45-10.61,11.06-15.46,16.9H385L338.83,36.75l7.57-7.58Z" transform="translate(-20.5 -20.5)"/><path class="cls-1" d="M316.09,112.54l40.55,10.16A243.83,243.83,0,0,0,343,148.77l-38.8-19.4-3.26-1.67,2-2Z" transform="translate(-20.5 -20.5)"/><path class="cls-1" d="M389.3,155.36l10.16,40.55L384.3,211.07,363.23,169A243.83,243.83,0,0,0,389.3,155.36Z" transform="translate(-20.5 -20.5)"/><path class="cls-4" d="M141.77,97.38a45.48,45.48,0,1,0-45.48,45.48A45.52,45.52,0,0,0,141.77,97.38ZM66,97.38A30.32,30.32,0,1,1,96.29,127.7,30.34,30.34,0,0,1,66,97.38Z" transform="translate(-20.5 -20.5)"/><path class="cls-4" d="M407.37,93.9l10.71-10.72L428.8,93.9l-10.72,10.72Z" transform="translate(-20.5 -20.5)"/><path class="cls-4" d="M428.81,72.47l10.71-10.72,10.72,10.72L439.52,83.19Z" transform="translate(-20.5 -20.5)"/><path class="cls-4" d="M386.48,114.79l10.17-10.17,10.72,10.71-10.18,10.18Z" transform="translate(-20.5 -20.5)"/><path class="cls-4" d="M467.67,339.92h-42a189.68,189.68,0,0,0,19.3-83.37,187.71,187.71,0,0,0-33.05-106.69q8.58-6,16.74-12.59l46.63,46.62,16.25-16.25L468.76,99.42,471.19,97A39.74,39.74,0,0,0,415,40.8l-2.44,2.44L344.35,20.5,328.11,36.75l46.63,46.63c-4.42,5.42-8.6,11-12.59,16.73A189.18,189.18,0,0,0,171.26,86.78,75.75,75.75,0,0,0,20.5,97.38v2.09a75.58,75.58,0,0,0,12.73,42l40.68,61a189.1,189.1,0,0,0,4.74,122.24h-5.1A22.68,22.68,0,0,0,66,368.84v16.55H20.5v25.38a80.81,80.81,0,0,0,80.73,80.73h83.89A81.13,81.13,0,0,0,257.74,446a187.94,187.94,0,0,0,65.93-12.61v35.41a22.77,22.77,0,0,0,22.74,22.74H467.68a22.77,22.77,0,0,0,22.74-22.74V362.65A22.78,22.78,0,0,0,467.67,339.92ZM384.3,355.08h45.48v15.15H384.3Zm-37.9-15.16H323.77a441.29,441.29,0,0,0,7.4-75.79h98.36a174.28,174.28,0,0,1-21,75.79Zm-83.6,89.42.23-13.63H229.82l-24.17-48.35a22.65,22.65,0,0,0,10.51-12.28h88.76C294.68,395.9,278.72,422.88,262.8,429.34Zm-46.64-89.42a22.68,22.68,0,0,0-16.1-14.49,440.4,440.4,0,0,1-5.09-61.3H316a422.66,422.66,0,0,1-7.68,75.79ZM81.42,249a174.6,174.6,0,0,1,4.47-33,21.69,21.69,0,0,0,28.49-7l23.86-35.8h48.9a441.31,441.31,0,0,0-7.4,75.8Zm121.21-75.8H308.38A429.21,429.21,0,0,1,316,249H195a422.73,422.73,0,0,1,7.67-75.8Zm52.82-90.95c13.47,0,27.33,15.25,38.45,41.8l-5.76,5.76,9.88,4.94q3.87,11,7,23.3H206C217.88,110.94,237.31,82.22,255.45,82.22Zm84,56.26-25.71-12.86,4.69-4.68,26.64,6.65C343.09,131.17,341.24,134.81,339.43,138.48Zm-6.36,13.76c-.07.14-.13.27-.19.41A19.66,19.66,0,0,0,331.5,158h-11c-1.12-4.76-2.34-9.36-3.63-13.85ZM429.48,249H331.11a446.26,446.26,0,0,0-7.34-75.8h12a20,20,0,0,0,23.56,6l.42-.18,22.46,44.92,25.63-25.63L398,159c.41-.25.8-.52,1.21-.78A172.44,172.44,0,0,1,429.48,249Zm-45.07-82,6.65,26.64-4.69,4.68-12.86-25.71C377.19,170.76,380.83,168.91,384.41,167Zm88.66-6.68L440.19,127.4c3.81-3.44,7.56-7,11.19-10.6l5.39-5.39Zm-30-115.94a24.57,24.57,0,0,1,17.38,42l-19.8,19.8a277.69,277.69,0,0,1-87.29,59.11,5.12,5.12,0,0,1-7-4.59,5,5,0,0,1,.41-2,277.55,277.55,0,0,1,59.1-87.29L425.7,51.52h0A24.47,24.47,0,0,1,443.09,44.33Zm-91.36-5.4,48.86,16.29-5.39,5.4C391.55,64.26,388,68,384.6,71.81ZM353,114l-39.23-9.82-8.32,8.33c-5-10.82-10.49-19.85-16.43-26.91a172,172,0,0,1,64.77,27.18c-.27.42-.54.81-.79,1.22ZM171.77,103.68a173.65,173.65,0,0,1,50.6-18.26c-13.37,15.84-24.46,41.11-32,72.6h-42l11-16.51A75.44,75.44,0,0,0,171.77,103.68ZM35.66,99.47V97.38a60.64,60.64,0,0,1,121.27,0v2.09a60.45,60.45,0,0,1-10.19,33.63l-45,67.46a6.82,6.82,0,0,1-11,0l-45-67.46A60.44,60.44,0,0,1,35.66,99.47ZM81.33,264.13h98.48a459,459,0,0,0,4.83,60.63H95.05A172.52,172.52,0,0,1,81.33,264.13Zm-7.78,75.79H194.82a7.58,7.58,0,1,1,0,15.16H73.55a7.58,7.58,0,0,1,0-15.16Zm7.58,30.31h109l22.73,45.48H108.55L93.4,385.39H81.13Zm104,106.11H101.23a65.64,65.64,0,0,1-65.57-65.57V400.55H84l15.16,30.32H247.53A65.86,65.86,0,0,1,185.12,476.34Zm103.41-48.66c13.37-15.84,24.47-41.12,32-72.6h4.54a22.39,22.39,0,0,0-1.39,7.57v54.29A171.33,171.33,0,0,1,288.53,427.68Zm186.72,41.08a7.58,7.58,0,0,1-7.58,7.58H346.4a7.58,7.58,0,0,1-7.57-7.58V362.65a7.58,7.58,0,0,1,7.57-7.57h22.74v30.31h75.79V355.08h22.74a7.58,7.58,0,0,1,7.58,7.57Z" transform="translate(-20.5 -20.5)"/><path class="cls-4" d="M444.93,446h15.16v15.15H444.93Z" transform="translate(-20.5 -20.5)"/><path class="cls-4" d="M414.62,446h15.16v15.15H414.62Z" transform="translate(-20.5 -20.5)"/><path class="cls-4" d="M111.45,385.39h15.16v15.16H111.45Z" transform="translate(-20.5 -20.5)"/><path class="cls-4" d="M141.77,385.39h15.16v15.16H141.77Z" transform="translate(-20.5 -20.5)"/><path class="cls-4" d="M172.08,385.39h15.16v15.16H172.08Z" transform="translate(-20.5 -20.5)"/><path class="cls-4" d="M217.56,279.28h15.16v15.16H217.56Z" transform="translate(-20.5 -20.5)"/><path class="cls-4" d="M247.88,279.28H263v15.16H247.88Z" transform="translate(-20.5 -20.5)"/><path class="cls-4" d="M278.19,279.28h15.16v15.16H278.19Z" transform="translate(-20.5 -20.5)"/><path class="cls-4" d="M247.88,218.65H263v15.16H247.88Z" transform="translate(-20.5 -20.5)"/><path class="cls-4" d="M217.56,218.65h15.16v15.16H217.56Z" transform="translate(-20.5 -20.5)"/><path class="cls-4" d="M278.19,218.65h15.16v15.16H278.19Z" transform="translate(-20.5 -20.5)"/></svg>