<svg id="Layer_1" data-name="Layer 1" xmlns="http://www.w3.org/2000/svg" viewBox="0 0 497 497"><defs><style>.cls-1{fill:#fff;}.cls-2{fill:#e0dada;}.cls-3{fill:#ff5e5e;}.cls-4{fill:#02033b;}</style></defs><title>media</title><path class="cls-1" d="M393.87,434H113.1a25.91,25.91,0,0,1-25.9-25.9V239.38a30.94,30.94,0,0,1,30.94-30.94H393.86a30.94,30.94,0,0,1,30.94,30.94V403A30.93,30.93,0,0,1,393.87,434Z" transform="translate(-7.5 -7.5)"/><path class="cls-2" d="M300.51,497.22h-89L226.45,434h59.1Z" transform="translate(-7.5 -7.5)"/><path class="cls-3" d="M87.2,379.55v28.53A25.91,25.91,0,0,0,113.1,434H398.9a25.9,25.9,0,0,0,25.9-25.9V379.55Z" transform="translate(-7.5 -7.5)"/><path class="cls-1" d="M14.78,151.23v96a23.46,23.46,0,0,0,23.46,23.46h66.93l35.25,32.36V270.72h20.17a23.46,23.46,0,0,0,23.46-23.46v-96a23.46,23.46,0,0,0-23.46-23.45H38.24A23.45,23.45,0,0,0,14.78,151.23Z" transform="translate(-7.5 -7.5)"/><path class="cls-3" d="M99.41,157.73l13,26.43,29.19,4.23L120.53,209l5,29L99.41,224.29,73.31,238l5-29L57.18,188.39l29.18-4.23Z" transform="translate(-7.5 -7.5)"/><path class="cls-1" d="M210.66,282.56A14.69,14.69,0,1,1,196,297.25,14.69,14.69,0,0,1,210.66,282.56Z" transform="translate(-7.5 -7.5)"/><path class="cls-1" d="M277.44,245.81a14.7,14.7,0,1,1-14.7,14.7A14.7,14.7,0,0,1,277.44,245.81Z" transform="translate(-7.5 -7.5)"/><path class="cls-1" d="M277.44,319.3A14.7,14.7,0,1,1,262.74,334,14.69,14.69,0,0,1,277.44,319.3Z" transform="translate(-7.5 -7.5)"/><path class="cls-1" d="M497.22,196.31v94a23,23,0,0,1-23,23H408.75l-34.5,31.67V313.25H354.52a23,23,0,0,1-23-23v-94a23,23,0,0,1,23-23H474.26a23,23,0,0,1,23,23Z" transform="translate(-7.5 -7.5)"/><path class="cls-3" d="M414.39,220.37c5.8-10.51,20-14.64,30.27-8.13,9,5.74,11.7,17.9,9.32,27.8-4.78,19.89-21.9,33.67-39.59,41.75-17.7-8.08-34.82-21.86-39.59-41.75-2.39-9.93.28-22,9.32-27.8,10.26-6.55,24.48-2.35,30.27,8.13Z" transform="translate(-7.5 -7.5)"/><path class="cls-1" d="M126.53,37.89V132.5a23.1,23.1,0,0,0,23.11,23.11H215l34.72,31.88V155.61h20.43a23.11,23.11,0,0,0,23.11-23.11V37.89a23.11,23.11,0,0,0-23.11-23.11H149.64A23.11,23.11,0,0,0,126.53,37.89Z" transform="translate(-7.5 -7.5)"/><path class="cls-2" d="M177.32,127.37a14.12,14.12,0,0,1-14.12-14.12V80.69a14.12,14.12,0,0,1,28.24,0v32.56A14.12,14.12,0,0,1,177.32,127.37Z" transform="translate(-7.5 -7.5)"/><path class="cls-3" d="M255.85,79l0-.12a6.73,6.73,0,0,0-6.55-8.39h-5.11l-24.25,0V46.78c0-6-8.26-8.13-11.2-2.89L192.89,76.36a15,15,0,0,0-1.52,6.58v24.91a15,15,0,0,0,4.87,11.05,21.47,21.47,0,0,0,14.46,5.6c10.64,0,20.17,0,28.27,0a6.71,6.71,0,0,0,6.53-5.06l0-.08C246.61,115.1,255.09,82,255.85,79Z" transform="translate(-7.5 -7.5)"/><path class="cls-4" d="M148.57,186.15a7.28,7.28,0,0,0-5.88-5L117.3,177.5l-11.36-23a7.34,7.34,0,0,0-13.06,0l-11.35,23-25.4,3.69a7.34,7.34,0,0,0-4,12.42l18.37,17.9-4.33,25.27a7.34,7.34,0,0,0,10.56,7.67l22.71-11.93,22.72,11.93a7.34,7.34,0,0,0,10.56-7.67l-4.34-25.27,18.38-17.9a7.28,7.28,0,0,0,1.84-7.46Zm-33.12,17.6a7.28,7.28,0,0,0-2.1,6.44l2.49,14.51-13-6.85a7.24,7.24,0,0,0-6.77,0L83,224.7l2.49-14.51a7.27,7.27,0,0,0-2.09-6.44L72.83,193.48l14.58-2.12a7.26,7.26,0,0,0,5.48-4l6.52-13.21,6.53,13.21a7.26,7.26,0,0,0,5.48,4L126,193.48Z" transform="translate(-7.5 -7.5)"/><path class="cls-4" d="M277.44,282.48a22,22,0,1,0-22-22,21.66,21.66,0,0,0,.3,3.62l-30.45,16.75a22,22,0,1,0,0,32.74l30.45,16.75a21.66,21.66,0,0,0-.3,3.62,22,22,0,1,0,7.33-16.37l-30.45-16.75a22.55,22.55,0,0,0,0-7.24l30.45-16.75A21.9,21.9,0,0,0,277.44,282.48Zm0-29.39a7.42,7.42,0,1,1-7.42,7.42A7.43,7.43,0,0,1,277.44,253.09Zm-66.78,51.57a7.42,7.42,0,1,1,0-14.83,7.53,7.53,0,0,1,7.41,7.42A7.41,7.41,0,0,1,210.66,304.66Zm66.78,21.92A7.42,7.42,0,1,1,270,334,7.42,7.42,0,0,1,277.44,326.58Z" transform="translate(-7.5 -7.5)"/><path class="cls-4" d="M474.26,166.07H354.51a30.27,30.27,0,0,0-30.24,30.24v4.85H191.33V162.89h20.86l32.64,30a7.32,7.32,0,0,0,12.2-5.36v-24.6h13.15a30.42,30.42,0,0,0,30.39-30.39V37.89A30.42,30.42,0,0,0,270.18,7.5H149.64a30.42,30.42,0,0,0-30.39,30.39v82.6h-81A30.77,30.77,0,0,0,7.5,151.23v17.93c0,9.42,14.56,9.42,14.56,0V151.23a16.2,16.2,0,0,1,16.18-16.18h81.11a30.44,30.44,0,0,0,30.29,27.84h27.12v84.37a16.19,16.19,0,0,1-16.17,16.18H140.42a7.28,7.28,0,0,0-7.28,7.28v15.79l-23-21.15a7.27,7.27,0,0,0-4.92-1.92H38.24a16.2,16.2,0,0,1-16.18-16.18V209.11c0-9.41-14.56-9.41-14.56,0v38.15A30.77,30.77,0,0,0,38.24,278H79.92V408.08a33.22,33.22,0,0,0,33.18,33.18H217.25l-11.51,48.68H183.47a7.28,7.28,0,1,0,0,14.56H328.53a7.28,7.28,0,1,0,0-14.56H306.26l-11.51-48.68h48c9.41,0,9.41-14.56,0-14.56H113.1a18.64,18.64,0,0,1-18.62-18.62V386.83h323v21.25A18.64,18.64,0,0,1,398.9,426.7H381.56c-9.42,0-9.42,14.56,0,14.56H398.9a33.22,33.22,0,0,0,33.18-33.18V320.54h42.18a30.28,30.28,0,0,0,30.24-30.25v-94a30.27,30.27,0,0,0-30.24-30.24ZM133.81,132.5V37.89a15.85,15.85,0,0,1,15.83-15.83H270.18A15.85,15.85,0,0,1,286,37.89V132.5a15.85,15.85,0,0,1-15.83,15.83H249.75a7.28,7.28,0,0,0-7.28,7.28v15.32L220,150.25a7.31,7.31,0,0,0-4.92-1.92H149.64a15.85,15.85,0,0,1-15.83-15.83Zm146,308.76,11.51,48.68H220.7l11.51-48.68Zm137.73-69h-323V278h7.86l33.16,30.44a7.32,7.32,0,0,0,12.2-5.36V278h12.89a30.77,30.77,0,0,0,30.74-30.74V215.72H324.27v74.57a30.28,30.28,0,0,0,30.24,30.25H367v24.38a7.32,7.32,0,0,0,12.2,5.37l32.41-29.75h5.94v51.73Zm72.42-82A15.69,15.69,0,0,1,474.26,306H408.75a7.29,7.29,0,0,0-4.92,1.92l-22.3,20.47V313.25a7.28,7.28,0,0,0-7.28-7.28H354.52a15.7,15.7,0,0,1-15.69-15.68v-94a15.7,15.7,0,0,1,15.69-15.68H474.26a15.69,15.69,0,0,1,15.68,15.68Z" transform="translate(-7.5 -7.5)"/><path class="cls-4" d="M448.55,206.09c-10.46-6.62-24.88-5-34.16,2.94-9.28-8-23.74-9.59-34.19-2.92-12.53,8-15.26,24.08-12.48,35.63,6.28,26.15,30,40.46,43.65,46.67a7.24,7.24,0,0,0,6,0c13.61-6.21,37.37-20.52,43.65-46.67,2.78-11.59.06-27.69-12.51-35.65Zm-1.65,32.25c-4.43,18.43-21.13,29.69-32.51,35.38-11.39-5.69-28.09-17-32.51-35.37-1.66-6.91-.08-16,6.16-20,6.75-4.31,16.24-1.26,20,5.51a7.34,7.34,0,0,0,12.74,0c3.77-6.82,13.29-9.75,20-5.5C447,222.34,448.57,231.42,446.9,238.34Z" transform="translate(-7.5 -7.5)"/><path class="cls-4" d="M222.72,131.77q8.15,0,16.28,0a14,14,0,0,0,13.54-10.47.74.74,0,0,1,0-.14l10.33-40.35c1.72-8.64-4.08-17.6-13.54-17.6l-22.11,0V46.78c0-13.18-19.09-18.23-25-6.09L190.8,64.08a21.39,21.39,0,0,0-34.88,16.61v32.56a21.39,21.39,0,0,0,38.18,13.26,28.68,28.68,0,0,0,16.6,5.27Zm-45.4-11.68a6.85,6.85,0,0,1-6.84-6.84V80.69a6.84,6.84,0,0,1,13.68,0c-.22,10.84-.14,21.71,0,32.56A6.85,6.85,0,0,1,177.32,120.09Zm21.4-11.23V81.94a7.61,7.61,0,0,1,.71-2.38L212.7,52.43V70.52A7.28,7.28,0,0,0,220,77.8q14.34,0,28.67,0l-10.09,39.44c-9.29,0-18.57,0-27.86,0C206,117.22,199.43,114.18,198.72,108.86Z" transform="translate(-7.5 -7.5)"/></svg>