<svg id="svg26" xmlns="http://www.w3.org/2000/svg" viewBox="0 0 50.25 50.25"><defs><style>.cls-1{fill:#f1592a;}</style></defs><title>objective_c</title><g id="Layer_2" data-name="Layer 2"><g id="Layer_1-2" data-name="Layer 1-2"><path id="path8" class="cls-1" d="M59.93,55.13a25.45,25.45,0,0,1-25-25,24.74,24.74,0,0,1,7.23-17.67A25.16,25.16,0,0,1,60,4.88h0a24.79,24.79,0,0,1,17.62,7.31,24.89,24.89,0,0,1,7.51,17.58,25.27,25.27,0,0,1-25,25.36ZM60,6.19a23.9,23.9,0,0,0-16.95,7.2,23.48,23.48,0,0,0-6.87,16.73A24.12,24.12,0,0,0,59.92,53.8h.18a23.94,23.94,0,0,0,23.71-24,23.53,23.53,0,0,0-7.12-16.64A23.42,23.42,0,0,0,60,6.19Z" transform="translate(-34.87 -4.88)"/><path id="path10" class="cls-1" d="M40.51,37.35V22.67h3.57V24H42.19V36.06h1.89v1.32Z" transform="translate(-34.87 -4.88)"/><path id="path12" class="cls-1" d="M52.63,29.87c0,2.67-1.62,4.2-3.83,4.2S45.13,32.35,45.13,30s1.54-4.18,3.79-4.18A3.76,3.76,0,0,1,52.63,29.87Zm-6,.11c0,1.63.82,2.92,2.22,2.92s2.2-1.32,2.2-3c0-1.5-.74-2.92-2.2-2.92s-2.23,1.37-2.23,3Z" transform="translate(-34.87 -4.88)"/><path id="path14" class="cls-1" d="M53.87,26.1A12.55,12.55,0,0,1,56,25.92a3.73,3.73,0,0,1,2.28.51,1.67,1.67,0,0,1,.83,1.49,1.86,1.86,0,0,1-1.31,1.73h0a2,2,0,0,1,1.61,2,2.1,2.1,0,0,1-.77,1.65,4.44,4.44,0,0,1-3,.74,13.34,13.34,0,0,1-1.79-.11Zm1.44,3.15h.75c1,0,1.57-.48,1.57-1.15S57.06,27,56.14,27a4.57,4.57,0,0,0-.83.06Zm0,3.67.77,0c.94,0,1.77-.36,1.77-1.32S57,30.32,56,30.32h-.73Z" transform="translate(-34.87 -4.88)"/><path id="path16" class="cls-1" d="M62.27,26h1.46v5.19c0,2.2-1.07,2.94-2.63,2.94a3.92,3.92,0,0,1-1.23-.21L60,32.74a3.13,3.13,0,0,0,.9.14c.83,0,1.32-.38,1.32-1.76Z" transform="translate(-34.87 -4.88)"/><path id="path18" class="cls-1" d="M67.86,30.31v1h-3v-1Z" transform="translate(-34.87 -4.88)"/><path id="path20" class="cls-1" d="M74.93,33.73a5.21,5.21,0,0,1-2.06.36,3.76,3.76,0,0,1-4.07-4,4,4,0,0,1,3.79-4.22h.47a4.45,4.45,0,0,1,2,.36l-.32,1.15a4,4,0,0,0-1.57-.31A2.66,2.66,0,0,0,70.35,30a2.62,2.62,0,0,0,2.78,2.88,4.06,4.06,0,0,0,1.58-.29Z" transform="translate(-34.87 -4.88)"/><path id="path22" class="cls-1" d="M79.49,22.63V37.35H75.92V36h1.89V24H75.92V22.63Z" transform="translate(-34.87 -4.88)"/></g></g></svg>