<svg id="Layer_1" data-name="Layer 1" xmlns="http://www.w3.org/2000/svg" viewBox="0 0 482 482"><defs><style>.cls-1{fill:#ff5e5e;}.cls-2{fill:#e0dada;}.cls-3{fill:#fff;}.cls-4{fill:#02033b;}</style></defs><title>oil&amp;amp;gas</title><path class="cls-1" d="M146.76,34l11.1,93.7H102.32L113.91,33.6l16.18-11.54Z" transform="translate(-15 -15)"/><path class="cls-2" d="M166.33,155.89H93.84a5.65,5.65,0,0,1-5.65-5.65V133.3a5.65,5.65,0,0,1,5.65-5.65h72.49A5.65,5.65,0,0,1,172,133.3v16.94A5.65,5.65,0,0,1,166.33,155.89Z" transform="translate(-15 -15)"/><path class="cls-1" d="M484.29,373.2H441a5.64,5.64,0,0,1-5.65-5.64V324.25A5.65,5.65,0,0,1,441,318.6h43.3a5.65,5.65,0,0,1,5.65,5.65v43.31A5.64,5.64,0,0,1,484.29,373.2Z" transform="translate(-15 -15)"/><path class="cls-2" d="M60,412.21V349.67H120.2V420Z" transform="translate(-15 -15)"/><path class="cls-2" d="M201.16,406.27v-56.6h60.25V422Z" transform="translate(-15 -15)"/><path class="cls-1" d="M271.06,299.67H50.3V235.55a14.12,14.12,0,0,1,14.12-14.12H256.94a14.12,14.12,0,0,1,14.12,14.12Z" transform="translate(-15 -15)"/><path class="cls-3" d="M15,410.39a7.06,7.06,0,0,1,7.06-7.06c39,0,39,18.83,78,18.83s39-18.83,78-18.83,39,18.83,78,18.83,39-18.83,78-18.83,39,18.83,78,18.83,39-18.83,78-18.83a7.06,7.06,0,0,1,7.06,7.06v79.55a7.06,7.06,0,0,1-7.06,7.06H22.06A7.06,7.06,0,0,1,15,489.94Z" transform="translate(-15 -15)"/><path class="cls-3" d="M271.06,349.67H50.3a14.12,14.12,0,0,1-14.12-14.12V313.79A14.12,14.12,0,0,1,50.3,299.67H271.06a14.12,14.12,0,0,1,14.12,14.12v21.76A14.12,14.12,0,0,1,271.06,349.67Z" transform="translate(-15 -15)"/><path class="cls-4" d="M489.94,464.05c-21.11,0-32.24,5.37-42.06,10.12-9.28,4.48-18,8.71-35.92,8.71s-26.65-4.23-35.93-8.71c-9.82-4.75-20.95-10.12-42.06-10.12s-32.24,5.37-42.06,10.12c-9.27,4.48-18,8.71-35.92,8.71s-26.64-4.23-35.92-8.71c-9.81-4.75-20.94-10.12-42-10.12s-32.24,5.37-42.06,10.12c-9.28,4.48-18,8.71-35.92,8.71s-26.64-4.23-35.92-8.71c-9.82-4.75-21-10.12-42.06-10.12a7.06,7.06,0,1,0,0,14.12c17.88,0,26.64,4.23,35.92,8.71C67.8,491.63,78.93,497,100,497s32.24-5.37,42.06-10.12c9.27-4.48,18-8.71,35.92-8.71s26.64,4.23,35.91,8.71C223.75,491.63,234.88,497,256,497s32.24-5.37,42.06-10.12c9.28-4.48,18-8.71,35.92-8.71s26.65,4.23,35.92,8.71C379.71,491.63,390.84,497,412,497s32.24-5.37,42.06-10.12c9.28-4.48,18-8.71,35.92-8.71a7.06,7.06,0,1,0,0-14.12ZM441,311.54a12.72,12.72,0,0,0-12.71,12.71v43.31A12.73,12.73,0,0,0,441,380.27h43.3A12.73,12.73,0,0,0,497,367.56V324.25a12.72,12.72,0,0,0-12.71-12.71H469.7V69.19a7.17,7.17,0,0,0-4-6.35L424.94,43a25.91,25.91,0,0,0-29.63,5L361.29,82a7.06,7.06,0,1,0,10,10L376,87.28l9.74,39.52-39.51-9.74,5.4-5.39a7.06,7.06,0,0,0-10-10C304.58,138.8,265.31,179.37,229,214.37H164.92V163c7.4.36,14.16-4.91,14.12-12.71V133.3c0-7.93-7.14-13.65-14.91-12.71L155.65,49l19.6,14a7.06,7.06,0,0,0,8.2-11.5L134.19,16.31a7.06,7.06,0,0,0-8.2,0L76.73,51.45A7.06,7.06,0,1,0,84.93,63l20-14.28-8.87,71.92c-7.78-1-14.94,4.8-14.94,12.71v16.94A12.91,12.91,0,0,0,95.25,163v51.42H64.42a21.2,21.2,0,0,0-21.18,21.18v58.27a21.22,21.22,0,0,0-14.12,20v21.76a21.56,21.56,0,0,0,23.77,21.18v44.68c-7.66-2.88-17.15-5.14-30.83-5.14a7.06,7.06,0,0,0,0,14.12c17.88,0,26.64,4.23,35.92,8.71,9.82,4.74,21,10.12,42.06,10.12,18,0,28.19-3.42,42.06-10.12,9.27-4.48,18-8.71,35.92-8.71s26.64,4.23,35.91,8.71c9.82,4.74,20.95,10.12,42.06,10.12s32.24-5.38,42.06-10.12c9.28-4.48,18-8.71,35.92-8.71s26.65,4.23,35.92,8.71c9.82,4.74,20.95,10.12,42.07,10.12S444.2,423.84,454,419.1c9.28-4.48,18-8.71,35.92-8.71a7.06,7.06,0,0,0,0-14.12c-21.11,0-32.24,5.37-42.06,10.12-9.28,4.48-18,8.71-35.92,8.71s-26.65-4.23-35.93-8.71c-9.82-4.75-20.95-10.12-42.06-10.12s-32.24,5.37-42.06,10.12c-6.81,3.29-13.36,6.44-23.44,7.88V356.73c12.41.61,23.84-8,23.77-21.18V313.79a21.2,21.2,0,0,0-14.12-20V263.69L455.58,86.23V311.54Zm-320.45-274,9.55-6.81,10,7.16,9.79,82.7H110.3ZM95.25,134.71h69.67v14.12H95.25Zm21,53.95,34.59-20.41v40.82ZM132,214.37H109.38V201ZM109.38,176.3V163H132Zm3.76,237.87a86.2,86.2,0,0,1-13.1.93c-16,0-24.72-3.4-33-7.33v-51h46.13Zm81-16.68A99.49,99.49,0,0,0,178,396.27c-21.11,0-32.24,5.37-42.06,10.12-2.86,1.37-5.66,2.73-8.7,3.94v-53.6H194.1Zm60.25,17.58c-16.76-.25-25.29-4.35-34.28-8.68a126.55,126.55,0,0,0-11.85-5.21V356.73h46.13Zm23.77-79.52a7.07,7.07,0,0,1-7.06,7.06H50.3a7.07,7.07,0,0,1-7.06-7.06V313.79a7.07,7.07,0,0,1,7.06-7.06h70.37a7.06,7.06,0,0,0,0-14.12H57.36V235.55a7.07,7.07,0,0,1,7.06-7.06H256.94a7.07,7.07,0,0,1,7.06,7.06v57.06H148.92a7.06,7.06,0,1,0,0,14.12H271.06a7.07,7.07,0,0,1,7.06,7.06Zm0-91.83v-8.17a21.2,21.2,0,0,0-21.18-21.18h-8L281,182.3l11.57,46.94Zm26.14-26.15-9.74-39.51L334,187.8Zm-5.5-53,29.75-29.77,9.73,39.5Zm53,5.53L342,130.57l39.52,9.74Zm47.49-47.49L389.5,83.08,429,92.82Zm41.44-41.44-47-11.59L405.3,58a11.79,11.79,0,0,1,13.47-2.26l31.87,15.5Zm42.2,244.5v40.48H442.4V325.66Z" transform="translate(-15 -15)"/></svg>