<svg id="Layer_1" data-name="Layer 1" xmlns="http://www.w3.org/2000/svg" viewBox="0 0 270.61 309.27"><defs><style>.cls-1{fill:#e2574c;}.cls-2{fill:#b53629;}.cls-3{fill:#fff;}</style></defs><title>pdf</title><path class="cls-1" d="M38.66,0H202.89l87.05,86.71V289.94a19.33,19.33,0,0,1-19.33,19.33H38.66a19.33,19.33,0,0,1-19.33-19.33V19.33A19.33,19.33,0,0,1,38.66,0Z" transform="translate(-19.33)"/><path class="cls-2" d="M289.66,87H222.29A19.34,19.34,0,0,1,203,67.65V.19Z" transform="translate(-19.33)"/><path class="cls-3" d="M217.43,146.54c3.24,0,4.83-2.82,4.83-5.55s-1.66-5.57-4.83-5.57H199c-3.6,0-5.61,3-5.61,6.28V187c0,4,2.3,6.28,5.41,6.28s5.4-2.24,5.4-6.28V174.58h11.16c3.46,0,5.19-2.83,5.19-5.64s-1.73-5.49-5.19-5.49H204.19V146.54Zm-62.32-11.12h-13.5a6,6,0,0,0-6.26,6.24v45.4c0,4.63,3.74,6.08,6.42,6.08h14.16c16.76,0,27.82-11,27.82-28C183.74,147.1,173.32,135.42,155.11,135.42Zm.65,46.53h-8.23V146.61h7.41c11.22,0,16.1,7.53,16.1,17.92C171,174.25,166.25,182,155.76,182Zm-49.43-46.53H93c-3.78,0-5.88,2.49-5.88,6.28V187c0,4,2.41,6.28,5.66,6.28s5.66-2.24,5.66-6.28V173.79h8.38c10.34,0,18.88-7.33,18.88-19.11C125.66,143.15,117.43,135.42,106.33,135.42Zm-.22,27.74H98.4v-17.1h7.71c4.75,0,7.78,3.71,7.78,8.55S110.86,163.16,106.11,163.16Z" transform="translate(-19.33)"/></svg>