<svg id="Capa_1" data-name="Capa 1" xmlns="http://www.w3.org/2000/svg" viewBox="0 0 481.99 462.87"><defs><style>.cls-1{fill:#fff;}.cls-2{fill:#e0dada;}.cls-3{fill:#ff5e5e;}.cls-4{fill:#02033b;}</style></defs><title>image-2</title><path class="cls-1" d="M229.14,450.58H32.91a11.1,11.1,0,0,1-10.84-11.34V80.89H240V439.24a11.1,11.1,0,0,1-10.84,11.34Z" transform="translate(-15.01 -33.63)"/><path class="cls-2" d="M240,80.9H22.07V49.16A8,8,0,0,1,29.85,41H232.2A8,8,0,0,1,240,49.16Z" transform="translate(-15.01 -33.63)"/><path class="cls-3" d="M65.22,80.9H22.07V49.16A8,8,0,0,1,29.85,41H65.22Z" transform="translate(-15.01 -33.63)"/><path class="cls-1" d="M479.09,450.58H282.86A11.1,11.1,0,0,1,272,439.24V80.89H489.93V439.24a11.1,11.1,0,0,1-10.84,11.34Z" transform="translate(-15.01 -33.63)"/><path class="cls-2" d="M489.93,80.9H272V49.16A8,8,0,0,1,279.8,41H482.15a8,8,0,0,1,7.78,8.14Z" transform="translate(-15.01 -33.63)"/><path class="cls-3" d="M315.18,80.9H272V49.16A8,8,0,0,1,279.8,41h35.38Z" transform="translate(-15.01 -33.63)"/><path class="cls-3" d="M201.28,242.92H61.81a4.64,4.64,0,0,1-4.53-4.73V129.12a4.64,4.64,0,0,1,4.53-4.73H201.28a4.64,4.64,0,0,1,4.53,4.73V238.19A4.64,4.64,0,0,1,201.28,242.92Z" transform="translate(-15.01 -33.63)"/><path class="cls-3" d="M169.86,407.83H60.76a4.63,4.63,0,0,1-4.52-4.73V375.86a4.63,4.63,0,0,1,4.52-4.73h109.1a4.63,4.63,0,0,1,4.52,4.73V403.1a4.63,4.63,0,0,1-4.52,4.73Z" transform="translate(-15.01 -33.63)"/><path class="cls-3" d="M450.72,242.92H311.24a4.64,4.64,0,0,1-4.53-4.73V129.12a4.64,4.64,0,0,1,4.53-4.73H450.72a4.63,4.63,0,0,1,4.52,4.73V238.19A4.63,4.63,0,0,1,450.72,242.92Z" transform="translate(-15.01 -33.63)"/><path class="cls-4" d="M306.71,284.06H453.39a7.4,7.4,0,0,0,0-14.78H306.71a7.4,7.4,0,0,0,0,14.78Z" transform="translate(-15.01 -33.63)"/><path class="cls-4" d="M306.71,316.86H453.39a7.39,7.39,0,0,0,0-14.77H306.71a7.39,7.39,0,0,0,0,14.77Z" transform="translate(-15.01 -33.63)"/><path class="cls-4" d="M482.15,33.63H279.8c-8.18,0-14.84,7-14.84,15.53V439.24c0,10.32,8,18.72,17.9,18.72h16.79v23.76h-88V458h17.53c9.87,0,17.9-8.4,17.9-18.72V344.53a7.07,7.07,0,1,0-14.13,0v94.71a3.87,3.87,0,0,1-3.77,3.95H211.61V396.1c0-7.72-6-14-13.39-14H181.45v-6.23a11.88,11.88,0,0,0-11.59-12.12H60.76a11.88,11.88,0,0,0-11.59,12.12V403.1a11.88,11.88,0,0,0,11.59,12.12h109.1a11.88,11.88,0,0,0,11.59-12.12v-6.23h16v46.32H32.91a3.88,3.88,0,0,1-3.78-3.95V88.29H232.91V309.48a7.07,7.07,0,1,0,14.13,0V49.16c0-8.56-6.66-15.53-14.84-15.53H29.85c-8.19,0-14.84,7-14.84,15.53V439.24C15,449.56,23,458,32.91,458H197.49v24.53c0,7.72,6,14,13.39,14h89.5c7.39,0,13.39-6.29,13.39-14V458H479.09c9.87,0,17.9-8.4,17.9-18.72V49.16c0-8.56-6.66-15.53-14.84-15.53ZM167.32,400.44H63.3V378.52h104Zm-95-352H232.2a.73.73,0,0,1,.71.75V73.5H72.28Zm-43.15.75a.74.74,0,0,1,.72-.75H58.16V73.5h-29Zm453.74,0V73.5H322.24V48.41H482.15a.74.74,0,0,1,.72.75ZM279.8,48.41h28.31V73.5h-29V49.16A.73.73,0,0,1,279.8,48.41ZM479.09,443.19H282.86a3.87,3.87,0,0,1-3.77-3.95V88.29H482.87v351A3.87,3.87,0,0,1,479.09,443.19Z" transform="translate(-15.01 -33.63)"/><path class="cls-4" d="M450.72,117h-71a7.39,7.39,0,0,0,0,14.77h54L381.27,174.3l-52.4-42.53h17.85a7.39,7.39,0,0,0,0-14.77H311.24a11.88,11.88,0,0,0-11.59,12.12V238.19a11.87,11.87,0,0,0,11.59,12.12H450.71c6.29,0,11.6-5.48,11.6-12.12V129.12A11.89,11.89,0,0,0,450.72,117Zm-137,21.22,56,45.44-56,45.43Zm15.11,97.32L381.27,193l52.39,42.53Zm119.3-6.92-55.39-45,55.39-45Z" transform="translate(-15.01 -33.63)"/><path class="cls-4" d="M306.71,349.67H453.39a7.39,7.39,0,0,0,0-14.77H306.71a7.39,7.39,0,0,0,0,14.77Z" transform="translate(-15.01 -33.63)"/><path class="cls-4" d="M306.71,382H453.39a7.4,7.4,0,0,0,0-14.78H306.71a7.4,7.4,0,0,0,0,14.78Z" transform="translate(-15.01 -33.63)"/><path class="cls-4" d="M306.71,414.47H453.39a7.4,7.4,0,0,0,0-14.78H306.71a7.4,7.4,0,0,0,0,14.78Z" transform="translate(-15.01 -33.63)"/><path class="cls-4" d="M212.87,129.12A12.6,12.6,0,0,0,206,118a11,11,0,0,0-4.68-1H61.81a11.88,11.88,0,0,0-11.6,12.12V238.19a11.88,11.88,0,0,0,11.6,12.12H201.28a11,11,0,0,0,4.69-1,12.18,12.18,0,0,0,6.9-11.08V129.12Zm-28.64,2.65L131.84,174.3l-52.4-42.53ZM64.34,138.22l56,45.44-56,45.43Zm15.1,97.32L131.84,193l52.39,42.53Zm119.31-6.92-55.39-45,55.39-45Z" transform="translate(-15.01 -33.63)"/><path class="cls-4" d="M204,269.28H57.28a7.4,7.4,0,0,0,0,14.78H204a7.4,7.4,0,0,0,0-14.78Z" transform="translate(-15.01 -33.63)"/><path class="cls-4" d="M204,302.09H57.28a7.39,7.39,0,0,0,0,14.77H204a7.39,7.39,0,0,0,0-14.77Z" transform="translate(-15.01 -33.63)"/><path class="cls-4" d="M204,334.9H57.28a7.39,7.39,0,0,0,0,14.77H204a7.39,7.39,0,0,0,0-14.77Z" transform="translate(-15.01 -33.63)"/></svg>