<svg id="Capa_1" data-name="Capa 1" xmlns="http://www.w3.org/2000/svg" viewBox="0 0 512 498.89"><defs><style>.cls-1{fill:#fff;}.cls-2{fill:#e0dada;}.cls-3{fill:#ff5e5e;}.cls-4{fill:#02033b;}</style></defs><title>image-1</title><path class="cls-1" d="M7.5,61.33V370.75a13.71,13.71,0,0,0,13.72,13.71h404.3a13.71,13.71,0,0,0,13.72-13.71V61.33a13.71,13.71,0,0,0-13.72-13.71H21.22A13.71,13.71,0,0,0,7.5,61.33Z" transform="translate(0 -6.56)"/><path class="cls-1" d="M120.12,186.73a17.5,17.5,0,1,1-17.51,17.5A17.5,17.5,0,0,1,120.12,186.73Z" transform="translate(0 -6.56)"/><circle class="cls-2" cx="188.95" cy="165.15" r="17.5" transform="matrix(0.16, -0.99, 0.99, 0.16, -4.19, 318.82)"/><circle class="cls-1" cx="257.79" cy="197.67" r="17.5"/><circle class="cls-1" cx="326.62" cy="108.06" r="17.5" transform="translate(140.34 390.74) rotate(-75.52)"/><path class="cls-2" d="M80.43,408.47v-24H366.31v24a9.55,9.55,0,0,1-9.55,9.55H90A9.55,9.55,0,0,1,80.43,408.47Z" transform="translate(0 -6.56)"/><path class="cls-3" d="M189.24,47.62V25.37a11.31,11.31,0,0,1,11.32-11.31h45.62A11.31,11.31,0,0,1,257.5,25.37V47.62Z" transform="translate(0 -6.56)"/><rect class="cls-1" x="104.9" y="268.52" width="30.43" height="66.27"/><rect class="cls-2" x="173.74" y="230.19" width="30.43" height="104.6"/><rect class="cls-1" x="242.57" y="268.52" width="30.43" height="66.27"/><rect class="cls-1" x="311.41" y="200.3" width="30.43" height="134.49"/><path class="cls-3" d="M409.46,312.07l55.83,96.71a21,21,0,0,0,28.7,7.69h0a21,21,0,0,0,7.69-28.7l-55.83-96.71Z" transform="translate(0 -6.56)"/><circle class="cls-1" cx="393.54" cy="242.48" r="90.53" transform="translate(11.12 495.59) rotate(-65.82)"/><circle class="cls-3" cx="393.54" cy="242.48" r="63.71" transform="translate(141.28 623.27) rotate(-88.57)"/><path class="cls-4" d="M326.62,133.06a25,25,0,1,0-20-10l-41.08,57.4a24.91,24.91,0,0,0-24.8,5.46L213.39,170.4a24.55,24.55,0,0,0,.56-5.25,25,25,0,1,0-49.44,5.25l-27.38,15.54a25,25,0,1,0,8,18.29,25.21,25.21,0,0,0-.56-5.25l27.38-15.54a24.93,24.93,0,0,0,34,0L233.35,199a24.55,24.55,0,0,0-.56,5.25,25,25,0,1,0,45-15l41.08-57.4A25,25,0,0,0,326.62,133.06Zm0-35a10,10,0,1,1-10,10A10,10,0,0,1,326.62,98.06ZM120.12,214.23a10,10,0,1,1,10-10A10,10,0,0,1,120.12,214.23ZM189,175.15a10,10,0,1,1,10-10A10,10,0,0,1,189,175.15Zm68.84,39.08a10,10,0,1,1,10-10A10,10,0,0,1,257.79,214.23Z" transform="translate(0 -6.56)"/><path class="cls-4" d="M418.8,377H21.21A6.22,6.22,0,0,1,15,370.75V61.33a6.22,6.22,0,0,1,6.21-6.21H56.57a7.5,7.5,0,0,0,0-15H21.21A21.23,21.23,0,0,0,0,61.33V370.75A21.23,21.23,0,0,0,21.21,392H72.93v16.51a17.07,17.07,0,0,0,17,17h75.07l-35.34,69a7.5,7.5,0,0,0,13.35,6.84l38.85-75.84h82.92l38.84,75.84A7.5,7.5,0,1,0,317,494.52l-35.34-69h75.08a17.06,17.06,0,0,0,17.05-17V392h45a7.5,7.5,0,0,0,0-15Zm-60,31.51a2.05,2.05,0,0,1-2.05,2H90a2.05,2.05,0,0,1-2-2V392H358.81Z" transform="translate(0 -6.56)"/><path class="cls-4" d="M86.57,55.12h339a6.22,6.22,0,0,1,6.22,6.21v71.31a7.5,7.5,0,0,0,15,0V61.33a21.24,21.24,0,0,0-21.22-21.21H265V25.37A18.84,18.84,0,0,0,246.18,6.56H200.56a18.84,18.84,0,0,0-18.82,18.81V40.12H86.57a7.5,7.5,0,0,0,0,15ZM196.74,25.37a3.82,3.82,0,0,1,3.82-3.81h45.62A3.82,3.82,0,0,1,250,25.37V40.12H196.74V25.37Z" transform="translate(0 -6.56)"/><path class="cls-4" d="M104.9,267.58a7.5,7.5,0,0,0-7.5,7.5v66.27a7.5,7.5,0,0,0,7.5,7.5h30.43a7.5,7.5,0,0,0,7.5-7.5V275.08a7.5,7.5,0,0,0-7.5-7.5Zm22.93,66.27H112.4V282.58h15.43Z" transform="translate(0 -6.56)"/><path class="cls-4" d="M173.74,229.25a7.49,7.49,0,0,0-7.5,7.5v104.6a7.5,7.5,0,0,0,7.5,7.5h30.42a7.5,7.5,0,0,0,7.5-7.5V236.75a7.49,7.49,0,0,0-7.5-7.5Zm22.92,104.6H181.24v-89.6h15.42Z" transform="translate(0 -6.56)"/><path class="cls-4" d="M242.57,267.58a7.5,7.5,0,0,0-7.5,7.5v66.27a7.5,7.5,0,0,0,7.5,7.5H273a7.5,7.5,0,0,0,7.5-7.5V275.08a7.5,7.5,0,0,0-7.5-7.5Zm22.93,66.27H250.07V282.58H265.5Z" transform="translate(0 -6.56)"/><path class="cls-4" d="M311.41,311.83a7.5,7.5,0,0,0-7.5,7.5v22a7.5,7.5,0,0,0,7.5,7.5h30.43a7.5,7.5,0,1,0,0-15H318.91V319.33A7.5,7.5,0,0,0,311.41,311.83Z" transform="translate(0 -6.56)"/><path class="cls-4" d="M508.17,384l-43-74.53a98.07,98.07,0,1,0-97,27.68,98.63,98.63,0,0,0,25.53,3.38A96.53,96.53,0,0,0,415.78,338l43,74.53A28.51,28.51,0,1,0,508.17,384ZM372.05,322.68a83,83,0,1,1,63-8.3A82.47,82.47,0,0,1,372.05,322.68ZM490.24,410A13.51,13.51,0,0,1,471.79,405l-41.39-71.7a101.07,101.07,0,0,0,12.15-5.95,98.9,98.9,0,0,0,11.23-7.57l41.4,71.71A13.48,13.48,0,0,1,490.24,410Z" transform="translate(0 -6.56)"/><path class="cls-4" d="M461.54,263.61A70.94,70.94,0,0,0,458,212.19a7.5,7.5,0,0,0-13.57,6.4,56.16,56.16,0,1,1-16.93-20.93,7.5,7.5,0,0,0,9.05-12,71.22,71.22,0,1,0,25,77.91Z" transform="translate(0 -6.56)"/></svg>