<svg id="Capa_1" data-name="Capa 1" xmlns="http://www.w3.org/2000/svg" viewBox="0 0 492.01 491.99"><defs><style>.cls-1{fill:#fff;}.cls-2{fill:#e0dada;}.cls-3{fill:#231f20;}.cls-4{fill:#ff5e5e;}.cls-5{fill:#02033b;}</style></defs><title>image-6</title><path class="cls-1" d="M88.8,456.67H58a38.44,38.44,0,0,1-38.43-38.43V60.76A38.44,38.44,0,0,1,58,22.33H454a38.44,38.44,0,0,1,38.43,38.43V418.24A38.44,38.44,0,0,1,454,456.67H88.8Z" transform="translate(-10 -12.72)"/><path class="cls-2" d="M454,22.33H58A38.44,38.44,0,0,0,19.61,60.76V91.51H492.39V60.76A38.43,38.43,0,0,0,454,22.33Z" transform="translate(-10 -12.72)"/><path class="cls-3" d="M30.18,91.51H486.63" transform="translate(-10 -12.72)"/><circle class="cls-2" cx="253.52" cy="256.23" r="125.48" transform="translate(-14.68 495.03) rotate(-89.55)"/><path class="cls-4" d="M483,485.69h0a32.2,32.2,0,0,1-45.53,0l-94.78-94.78,45.53-45.53L483,440.16A32.2,32.2,0,0,1,483,485.69Z" transform="translate(-10 -12.72)"/><path class="cls-4" d="M254.85,324.34h-2.34a47.58,47.58,0,0,1-47.58-47.58v-13a47.58,47.58,0,0,1,47.58-47.58h2.34a47.58,47.58,0,0,1,47.58,47.58v13A47.58,47.58,0,0,1,254.85,324.34Z" transform="translate(-10 -12.72)"/><path class="cls-1" d="M271.83,216.14h-36.3v-9.76a16.76,16.76,0,0,1,16.76-16.76h2.78a16.76,16.76,0,0,1,16.76,16.76Z" transform="translate(-10 -12.72)"/><path class="cls-5" d="M492.39,406.69a9.61,9.61,0,0,0,9.61-9.61V60.76a48.09,48.09,0,0,0-48-48H58a48.09,48.09,0,0,0-48,48V418.24a48.09,48.09,0,0,0,48,48H404.45l26.2,26.2a41.8,41.8,0,0,0,59.11-59.12L395,338.59a9.6,9.6,0,0,0-13.59,0l-16,16-9.88-9.87a135,135,0,0,0,6.25-169.23,136.23,136.23,0,0,0-68-48.2,9.61,9.61,0,0,0-5.73,18.35,115.88,115.88,0,1,1-70,.29,9.61,9.61,0,0,0-5.88-18.3,135.19,135.19,0,0,0-93.74,128.64c0,74.49,60.61,135.09,135.1,135.09A134.52,134.52,0,0,0,342,358.27l9.88,9.87-16,16a9.6,9.6,0,0,0,0,13.59l49.36,49.36H58a28.85,28.85,0,0,1-28.82-28.82V101.07a7.62,7.62,0,0,0,1,.05h452.6v296A9.61,9.61,0,0,0,492.39,406.69ZM372.22,374.94h0l16-16,88,88a22.58,22.58,0,0,1-31.93,31.94L383,417.69l16-16a9.61,9.61,0,1,0-13.59-13.59l-16,16-13.2-13.2Zm-342-293c-.32,0-.65,0-1,0V60.76A28.85,28.85,0,0,1,58,31.94H454a28.85,28.85,0,0,1,28.82,28.82V81.9Z" transform="translate(-10 -12.72)"/><path class="cls-5" d="M440.5,47.31H223.39a9.61,9.61,0,1,0,0,19.22H440.5a9.61,9.61,0,1,0,0-19.22Z" transform="translate(-10 -12.72)"/><path class="cls-5" d="M109.94,47.31a9.63,9.63,0,1,0,6.79,2.82A9.69,9.69,0,0,0,109.94,47.31Z" transform="translate(-10 -12.72)"/><path class="cls-5" d="M71.5,47.31a9.63,9.63,0,1,0,6.79,2.82A9.69,9.69,0,0,0,71.5,47.31Z" transform="translate(-10 -12.72)"/><path class="cls-5" d="M148.37,47.31a9.61,9.61,0,1,0,6.8,2.82A9.68,9.68,0,0,0,148.37,47.31Z" transform="translate(-10 -12.72)"/><path class="cls-5" d="M253.8,140.36h0a9.61,9.61,0,0,0,0-19.22h-.36a9.61,9.61,0,0,0,0,19.22Z" transform="translate(-10 -12.72)"/><path class="cls-5" d="M61.89,400.94a9.6,9.6,0,0,0,9.61,9.6h65.66a9.61,9.61,0,1,0,0-19.21H71.5A9.61,9.61,0,0,0,61.89,400.94Z" transform="translate(-10 -12.72)"/><path class="cls-5" d="M113.85,352.89H71.5a9.61,9.61,0,1,0,0,19.22h42.35a9.61,9.61,0,0,0,0-19.22Z" transform="translate(-10 -12.72)"/><path class="cls-5" d="M180.48,407.73a9.63,9.63,0,1,0-6.8,2.81A9.67,9.67,0,0,0,180.48,407.73Z" transform="translate(-10 -12.72)"/><path class="cls-5" d="M440.5,126.11H365.43a9.61,9.61,0,0,0,0,19.22H440.5a9.61,9.61,0,1,0,0-19.22Z" transform="translate(-10 -12.72)"/><path class="cls-5" d="M440.5,164.54H403.27a9.61,9.61,0,1,0,0,19.22H440.5a9.61,9.61,0,1,0,0-19.22Z" transform="translate(-10 -12.72)"/><path class="cls-5" d="M255.07,180h-2.78a26.4,26.4,0,0,0-26.37,26.37v6.73A57.61,57.61,0,0,0,204,233.43l-9-9.1a9.61,9.61,0,1,0-13.63,13.54l15,15.09a59.26,59.26,0,0,0-.94,7.61H180.52a9.61,9.61,0,0,0,0,19.22H195.4a57.14,57.14,0,0,0,.94,7.68l-15,15.08A9.61,9.61,0,1,0,195,316.09l9-9.07A57.16,57.16,0,0,0,252.51,334h2.34a57.18,57.18,0,0,0,48.37-26.73l8.82,8.87a9.61,9.61,0,1,0,13.63-13.54L311,287.75a57,57,0,0,0,1-7.9h14.57a9.61,9.61,0,0,0,0-19.22H312a56.26,56.26,0,0,0-1-7.95l14.71-14.81A9.61,9.61,0,1,0,312,224.33l-8.84,8.9a57.58,57.58,0,0,0-21.76-20.12v-6.74A26.4,26.4,0,0,0,255.07,180Zm-9.93,26.52v-.15a7.15,7.15,0,0,1,7.15-7.15h2.78a7.15,7.15,0,0,1,7.15,7.15v.15H245.14Zm47.68,57.19v13a38,38,0,0,1-38,38h-2.34a38,38,0,0,1-38-38v-13a38,38,0,0,1,38-38h2.34A38,38,0,0,1,292.82,263.72Z" transform="translate(-10 -12.72)"/></svg>