<svg id="Capa_1" data-name="Capa 1" xmlns="http://www.w3.org/2000/svg" viewBox="0 0 482 451.81"><defs><style>.cls-1{fill:#fff;}.cls-2{fill:#ff5e5e;}.cls-3{fill:#c8c5c9;}.cls-4{fill:#e0dada;}.cls-5{fill:#02033b;}</style></defs><title>image-5</title><path class="cls-1" d="M429.57,152.88H82.43a22.64,22.64,0,0,0-22.64,22.64V454.74H452.21V175.52a22.64,22.64,0,0,0-22.64-22.64Z" transform="translate(-15 -25.08)"/><path class="cls-2" d="M210.72,190.62l-39.83,46.46a22.69,22.69,0,0,0-5.45,14.73v21.82l67.92-37.74Z" transform="translate(-15 -25.08)"/><path class="cls-2" d="M301.28,190.62l39.83,46.46a22.69,22.69,0,0,1,5.45,14.73v21.82l-67.92-37.74Z" transform="translate(-15 -25.08)"/><path class="cls-2" d="M22.06,439.65v15.09a15.09,15.09,0,0,0,15.09,15.09h437.7a15.09,15.09,0,0,0,15.09-15.09V439.65Z" transform="translate(-15 -25.08)"/><path class="cls-1" d="M261.44,37.74a7.48,7.48,0,0,0-10.88,0c-29.23,31.53-47.39,74.79-47.39,122.69a181.44,181.44,0,0,0,28.45,98.11h48.76a181.43,181.43,0,0,0,28.44-98.11C308.82,112.53,290.67,69.27,261.44,37.74Z" transform="translate(-15 -25.08)"/><path class="cls-3" d="M286.19,288.72H225.81l5.81-30.19h48.76Z" transform="translate(-15 -25.08)"/><circle class="cls-2" cx="256" cy="152.88" r="22.64" transform="translate(33.39 341.83) rotate(-76.72)"/><path class="cls-2" d="M216.1,92.51h79.8a176.73,176.73,0,0,0-34.46-54.77,7.48,7.48,0,0,0-10.88,0A176.73,176.73,0,0,0,216.1,92.51Z" transform="translate(-15 -25.08)"/><path class="cls-4" d="M361.65,371.73a52.54,52.54,0,0,0-17.27,2.95,37.33,37.33,0,0,0-59.7-16.63,30.19,30.19,0,1,0-57.36,0,37.33,37.33,0,0,0-59.7,16.63,52.76,52.76,0,0,0-67.88,65H412.26a52.8,52.8,0,0,0-50.61-67.92Z" transform="translate(-15 -25.08)"/><path class="cls-5" d="M489.94,432.59H459.27V175.52a29.74,29.74,0,0,0-29.7-29.7H339a7.06,7.06,0,0,0,0,14.12h90.56a15.6,15.6,0,0,1,15.58,15.58V432.59H421a59.83,59.83,0,0,0-59.33-67.92,59.29,59.29,0,0,0-13.24,1.51A44.66,44.66,0,0,0,308.82,342,43.61,43.61,0,0,0,293,345a37.25,37.25,0,0,0-74,0A43.62,43.62,0,0,0,203.17,342a44.66,44.66,0,0,0-39.58,24.15,59.29,59.29,0,0,0-13.24-1.51A59.83,59.83,0,0,0,91,432.59H66.85V175.52a15.6,15.6,0,0,1,15.58-15.58H173a7.06,7.06,0,0,0,0-14.12H82.43a29.74,29.74,0,0,0-29.7,29.7V432.59H22.06A7.06,7.06,0,0,0,15,439.65v15.09a22.17,22.17,0,0,0,22.15,22.15h437.7A22.17,22.17,0,0,0,497,454.74V439.65A7.06,7.06,0,0,0,489.94,432.59Zm-7.06,22.15a8,8,0,0,1-8,8H37.15a8,8,0,0,1-8-8v-8h91a7.06,7.06,0,0,0,0-14.12H105.31a45.24,45.24,0,0,1-.72-8,45.65,45.65,0,0,1,60.72-43.21,7.06,7.06,0,0,0,9-4.39,30.61,30.61,0,0,1,28.88-20.81,30.21,30.21,0,0,1,19.6,7.31A7.06,7.06,0,0,0,234.06,356a22.7,22.7,0,0,1-1.19-6.86,23.13,23.13,0,0,1,46.25,0,22.67,22.67,0,0,1-1.18,6.86,7.06,7.06,0,0,0,11.28,7.51,30.21,30.21,0,0,1,19.6-7.31A30.61,30.61,0,0,1,337.7,377a7.06,7.06,0,0,0,9,4.39,45.7,45.7,0,0,1,60,51.24H150.35a7.06,7.06,0,0,0,0,14.12H482.88Z" transform="translate(-15 -25.08)"/><path class="cls-5" d="M165.27,232.62a29.77,29.77,0,0,0-6.89,19v22a7.06,7.06,0,0,0,3.5,6.09,7,7,0,0,0,3.56,1,7.11,7.11,0,0,0,3.47-.91l50.28-28.38c1.92,3.5,3.95,7,6.1,10.32L219,287a7,7,0,0,0,6.85,8.77h60.37A7.06,7.06,0,0,0,293,287l-6.32-25.29c2.14-3.37,4.17-6.82,6.09-10.32l50.28,28.38a7.14,7.14,0,0,0,3.47.91,7.08,7.08,0,0,0,7.06-7.06v-22a29.81,29.81,0,0,0-6.88-19l-33.52-40.2a193.34,193.34,0,0,0,2.67-32,189.46,189.46,0,0,0-14.82-74A181.89,181.89,0,0,0,261,27.11a7.06,7.06,0,0,0-9.91,0,181.76,181.76,0,0,0-40.12,59.35,189.45,189.45,0,0,0-14.81,74,192.65,192.65,0,0,0,2.66,31.94Zm7.23,28.92v-9.9a15.63,15.63,0,0,1,3.61-10l26.47-31.76a187.18,187.18,0,0,0,10.29,28.85Zm62.36,20.12,4-16.06h34.26l4,16.06Zm101-40a15.63,15.63,0,0,1,3.61,10v9.9l-40.37-22.78a187.18,187.18,0,0,0,10.29-28.85ZM256,42.27a168.43,168.43,0,0,1,29.07,43.18H226.93A168.43,168.43,0,0,1,256,42.27Zm-34.95,57.3H291a176.93,176.93,0,0,1,10.81,60.86,174.56,174.56,0,0,1-25.29,91H235.53a174.56,174.56,0,0,1-25.29-91,176.93,176.93,0,0,1,10.81-60.86Z" transform="translate(-15 -25.08)"/><path class="cls-5" d="M285.7,152.88a29.7,29.7,0,1,0-29.7,29.7A29.74,29.74,0,0,0,285.7,152.88Zm-45.28,0A15.58,15.58,0,1,1,256,168.46,15.59,15.59,0,0,1,240.42,152.88Z" transform="translate(-15 -25.08)"/></svg>