<svg id="Isolation_Mode" data-name="Isolation Mode" xmlns="http://www.w3.org/2000/svg" viewBox="0 0 496 496"><defs><style>.cls-1{fill:#fff;}.cls-2{fill:#e0dada;}.cls-3{fill:#e6e9ed;}.cls-4{fill:#ff5e5e;}.cls-5{fill:#02033b;}</style></defs><title>image-3</title><path class="cls-1" d="M16,451.41v-256H266.88c1,2.24,2.16,4.48,3.36,6.64l-9.76,18.88,34,33.92,18.88-9.68a116.23,116.23,0,0,0,24.16,9.92L344,275.41h24v128a48.06,48.06,0,0,0-45.28,64H32A16,16,0,0,1,16,451.41Z" transform="translate(-8 -11.41)"/><path class="cls-2" d="M266.88,195.41H16v-80a16,16,0,0,1,16-16H266.88a109.5,109.5,0,0,0-6.56,17.52L240,123.41v48l20.32,6.48A109.5,109.5,0,0,0,266.88,195.41Z" transform="translate(-8 -11.41)"/><path class="cls-3" d="M136,163.41H56a8,8,0,0,1-8-8v-16a8,8,0,0,1,8-8h80a8,8,0,0,1,8,8v16A8,8,0,0,1,136,163.41Z" transform="translate(-8 -11.41)"/><path class="cls-1" d="M368,403.41a48.06,48.06,0,1,1-48,48A48,48,0,0,1,368,403.41Z" transform="translate(-8 -11.41)"/><circle class="cls-4" cx="360" cy="440" r="16"/><circle class="cls-4" cx="456" cy="408" r="16"/><circle class="cls-4" cx="264" cy="408" r="16"/><path class="cls-1" d="M496,123.41v48l-20.32,6.48a116.23,116.23,0,0,1-9.92,24.16l9.76,18.88-34,33.92-18.88-9.68a116.23,116.23,0,0,1-24.16,9.92L392,275.41H344l-6.48-20.32a116.23,116.23,0,0,1-24.16-9.92l-18.88,9.68-34-33.92,9.76-18.88c-1.2-2.16-2.32-4.4-3.36-6.64a109.5,109.5,0,0,1-6.56-17.52L240,171.41v-48l20.32-6.48a109.5,109.5,0,0,1,6.56-17.52c1-2.24,2.16-4.48,3.36-6.64l-9.76-18.88,34-34,18.88,9.76a116.23,116.23,0,0,1,24.16-9.92L344,19.41h48l6.48,20.32a116.23,116.23,0,0,1,24.16,9.92l18.88-9.76,34,34-9.76,18.88a116.23,116.23,0,0,1,9.92,24.16Z" transform="translate(-8 -11.41)"/><circle class="cls-4" cx="360" cy="136" r="80"/><path class="cls-5" d="M368,59.41a88,88,0,1,0,88,88A88.1,88.1,0,0,0,368,59.41Zm0,160a72,72,0,1,1,72-72A72.08,72.08,0,0,1,368,219.41Z" transform="translate(-8 -11.41)"/><path class="cls-5" d="M482.13,110.56a120.78,120.78,0,0,0-7.35-17.83l10.49-20.39L443.08,30.15,422.69,40.64a120.78,120.78,0,0,0-17.83-7.35l-7-21.88H338.16l-7,21.87a119.75,119.75,0,0,0-17.83,7.36l-20.39-10.5L250.74,72.33l9.8,19.08H32a24,24,0,0,0-24,24v336a24,24,0,0,0,24,24H317.48A56,56,0,1,0,376,396.05V283.41h21.83l7-21.87a119.27,119.27,0,0,0,17.83-7.35l20.39,10.49,42.2-42.19-10.5-20.38a119.9,119.9,0,0,0,7.35-17.83l21.89-7V117.57ZM32,107.41H255c-.37,1.06-.81,2.08-1.15,3.15l-21.88,7v59.67l21.87,7c.35,1.07.79,2.1,1.15,3.15H24v-72a8,8,0,0,1,8-8Zm376,344a40,40,0,1,1-40-40A40,40,0,0,1,408,451.41Zm-48-55.36a55.45,55.45,0,0,0-47.36,63.36H32a8,8,0,0,1-8-8v-248H260.55l-9.81,19.07,42.19,42.2,20.39-10.5a119.71,119.71,0,0,0,17.83,7.35l7,21.88H360ZM488,165.58l-18.85,6L468,175.76a102.94,102.94,0,0,1-9.22,22.36l-2.1,3.75,9,17.56L440,245.12l-17.56-9-3.75,2.1a103.06,103.06,0,0,1-22.36,9.22l-4.14,1.17-6,18.84H349.84l-6-18.85-4.14-1.16a104.1,104.1,0,0,1-22.36-9.23l-3.75-2.09-17.56,9L270.3,219.42l9-17.56-2.1-3.75A103.15,103.15,0,0,1,268,175.75l-1.17-4.14-18.85-6V129.25l18.85-6,1.17-4.13a103.44,103.44,0,0,1,9.22-22.37l2.1-3.75-9-17.56L296,49.72l17.56,9,3.75-2.1a103.06,103.06,0,0,1,22.36-9.22l4.14-1.17,6-18.85h36.33l6,18.85,4.14,1.17a103.56,103.56,0,0,1,22.36,9.22l3.75,2.1,17.56-9L465.7,75.4l-9,17.56,2.1,3.75A102.94,102.94,0,0,1,468,119.08l1.17,4.13,18.85,6Z" transform="translate(-8 -11.41)"/><path class="cls-5" d="M385.6,120.21l20.4,27.2-20.4,27.2,12.8,9.6,27.6-36.8-27.6-36.8Z" transform="translate(-8 -11.41)"/><path class="cls-5" d="M337.6,110.61,310,147.41l27.6,36.8,12.8-9.6L330,147.41l20.4-27.2Z" transform="translate(-8 -11.41)"/><path class="cls-5" d="M352.2,202.3l16.06-112,15.84,2.27L368,204.57Z" transform="translate(-8 -11.41)"/><path class="cls-5" d="M56,171.41h80a16,16,0,0,0,16-16v-16a16,16,0,0,0-16-16H56a16,16,0,0,0-16,16v16A16,16,0,0,0,56,171.41Zm32-16v-16h16v16Zm48,0H120v-16h16Zm-80-16H72v16H56Z" transform="translate(-8 -11.41)"/><path class="cls-5" d="M344,451.41a24,24,0,1,0,24-24A24,24,0,0,0,344,451.41Zm32,0a8,8,0,1,1-8-8A8,8,0,0,1,376,451.41Z" transform="translate(-8 -11.41)"/><path class="cls-5" d="M472,396.88V368.1l-32-32V275.41H424v67.31l32,32v22.16a24,24,0,1,0,16,0Zm-8,30.53a8,8,0,1,1,8-8A8,8,0,0,1,464,427.41Z" transform="translate(-8 -11.41)"/><path class="cls-5" d="M296,336.1l-32,32v28.78a24,24,0,1,0,16,0V374.72l32-32V275.41H296Zm-24,91.31a8,8,0,1,1,8-8A8,8,0,0,1,272,427.41Z" transform="translate(-8 -11.41)"/><path class="cls-5" d="M56,275.41a24,24,0,0,0,24,24h8v-16H80a8,8,0,0,1-8-8,23.86,23.86,0,0,0-6.24-16,23.84,23.84,0,0,0,6.24-16,8,8,0,0,1,8-8h8v-16H80a24,24,0,0,0-24,24,8,8,0,0,1-8,8H40v16h8A8,8,0,0,1,56,275.41Z" transform="translate(-8 -11.41)"/><path class="cls-5" d="M104,219.41h96v16H104Z" transform="translate(-8 -11.41)"/><path class="cls-5" d="M104,251.41h96v16H104Z" transform="translate(-8 -11.41)"/><path class="cls-5" d="M184,283.41h16v16H184Z" transform="translate(-8 -11.41)"/><path class="cls-5" d="M104,283.41h64v16H104Z" transform="translate(-8 -11.41)"/><path class="cls-5" d="M216,371.41a24,24,0,0,0-24-24h-8v16h8a8,8,0,0,1,8,8,23.84,23.84,0,0,0,6.24,16,23.81,23.81,0,0,0-6.24,16,8,8,0,0,1-8,8h-8v16h8a24,24,0,0,0,24-24,8,8,0,0,1,8-8h8v-16h-8A8,8,0,0,1,216,371.41Z" transform="translate(-8 -11.41)"/><path class="cls-5" d="M72,411.41h96v16H72Z" transform="translate(-8 -11.41)"/><path class="cls-5" d="M104,379.41h64v16H104Z" transform="translate(-8 -11.41)"/><path class="cls-5" d="M72,379.41H88v16H72Z" transform="translate(-8 -11.41)"/><path class="cls-5" d="M72,347.41h96v16H72Z" transform="translate(-8 -11.41)"/><path class="cls-5" d="M40,315.41H200v16H40Z" transform="translate(-8 -11.41)"/></svg>