<svg id="Capa_1" data-name="Capa 1" xmlns="http://www.w3.org/2000/svg" viewBox="0 0 480 480"><defs><style>.cls-1{fill:#fff;}.cls-2{fill:#e0dada;}.cls-3{fill:#57a4ff;}.cls-4{fill:#ff5e5e;}.cls-5{fill:#f1f2f2;}.cls-6{fill:#02033b;}</style></defs><title>image-4</title><g id="Website_optimize" data-name="Website optimize"><path class="cls-1" d="M24,120H488V440a16,16,0,0,1-16,16H40a16,16,0,0,1-16-16V120Z" transform="translate(-16 -32)"/><path class="cls-2" d="M488,56v64H24V56A16,16,0,0,1,40,40H472A16,16,0,0,1,488,56Z" transform="translate(-16 -32)"/><path class="cls-1" d="M440,64H216a16,16,0,0,0,0,32H440a16,16,0,0,0,0-32Z" transform="translate(-16 -32)"/><circle class="cls-3" cx="48" cy="48" r="8"/><circle class="cls-3" cx="96" cy="48" r="8"/><circle class="cls-3" cx="144" cy="48" r="8"/><path class="cls-4" d="M193.76,488.16,219,462.88a74.35,74.35,0,0,0,13,5.44V504h48V468.32a74.35,74.35,0,0,0,13-5.44l25.28,25.28,33.92-33.92L326.88,429a74.35,74.35,0,0,0,5.44-13H368V368H332.32a74.35,74.35,0,0,0-5.44-13l25.28-25.28-33.92-33.92L293,321.12a74.35,74.35,0,0,0-13-5.44V280H232v35.68a74.35,74.35,0,0,0-13,5.44l-25.28-25.28-33.92,33.92L185.12,355a74.35,74.35,0,0,0-5.44,13H144v48h35.68a74.35,74.35,0,0,0,5.44,13l-25.28,25.28ZM256,352a40,40,0,1,1-40,40A40,40,0,0,1,256,352Z" transform="translate(-16 -32)"/><circle class="cls-5" cx="240" cy="360" r="40"/><path class="cls-4" d="M360,216.3,376,192h50.56a56,56,0,0,0-91-14.77A47.74,47.74,0,0,1,301,192H112a24,24,0,0,0,0,48H301a47.74,47.74,0,0,1,34.54,14.77,56,56,0,0,0,91-14.77H376Z" transform="translate(-16 -32)"/><path class="cls-6" d="M472,32H40A24,24,0,0,0,16,56V440a24,24,0,0,0,24,24H158.29l29.81,29.82a8,8,0,0,0,11.32,0l21.23-21.24c1.09.48,2.2.94,3.35,1.4v30a8,8,0,0,0,8,8h48a8,8,0,0,0,8-8V474c1.15-.46,2.26-.92,3.35-1.4l21.23,21.24a8.24,8.24,0,0,0,11.32,0L353.71,464H472a24,24,0,0,0,24-24V56A24,24,0,0,0,472,32ZM318.24,476.85l-19.62-19.63a8,8,0,0,0-9.51-1.36,63.74,63.74,0,0,1-11.57,4.84,8,8,0,0,0-5.54,7.62V496H240V468.32a8,8,0,0,0-5.54-7.62,63.74,63.74,0,0,1-11.57-4.84,8,8,0,0,0-9.51,1.36l-19.62,19.63L171.2,454.24l19.62-19.62a8,8,0,0,0,1.36-9.5,65.5,65.5,0,0,1-4.84-11.57,8,8,0,0,0-7.66-5.55H152V376h27.68a8,8,0,0,0,7.62-5.55,65.5,65.5,0,0,1,4.84-11.57,8,8,0,0,0-1.36-9.5L171.2,329.76l22.6-22.61,19.62,19.63a8,8,0,0,0,9.51,1.36,63.74,63.74,0,0,1,11.57-4.84,8,8,0,0,0,5.5-7.62V288h32v27.68a8,8,0,0,0,5.54,7.62,63.74,63.74,0,0,1,11.57,4.84,8,8,0,0,0,9.51-1.36l19.62-19.63,22.6,22.61-19.62,19.62a8,8,0,0,0-1.36,9.5,65.5,65.5,0,0,1,4.84,11.57,8,8,0,0,0,7.62,5.55H360v32H332.32a8,8,0,0,0-7.62,5.55,65.5,65.5,0,0,1-4.84,11.57,8,8,0,0,0,1.36,9.5l19.62,19.62ZM480,440a8,8,0,0,1-8,8H357.23l-20.65-20.66c.48-1.08.94-2.19,1.4-3.34h30a8,8,0,0,0,8-8V368a8,8,0,0,0-8-8H338c-.46-1.15-.92-2.26-1.4-3.35l21.24-21.23a8,8,0,0,0,0-11.32L323.9,290.18a8,8,0,0,0-11.32,0l-21.23,21.24c-1.09-.48-2.2-.94-3.35-1.4V280a8,8,0,0,0-8-8H232a8,8,0,0,0-8,8v30c-1.15.46-2.26.92-3.35,1.4l-21.23-21.24a8.24,8.24,0,0,0-11.32,0L154.18,324.1a8,8,0,0,0,0,11.32l21.24,21.23c-.48,1.09-.94,2.2-1.4,3.35H144a8,8,0,0,0-8,8v48a8,8,0,0,0,8,8h30c.46,1.15.92,2.26,1.4,3.34L154.77,448H40a8,8,0,0,1-8-8V128H480ZM32,112V56a8,8,0,0,1,8-8H472a8,8,0,0,1,8,8v56Z" transform="translate(-16 -32)"/><path class="cls-6" d="M440,56H216a24,24,0,0,0,0,48H440a24,24,0,0,0,0-48Zm0,32H216a8,8,0,0,1,0-16H440a8,8,0,0,1,0,16Z" transform="translate(-16 -32)"/><circle class="cls-6" cx="48" cy="48" r="16"/><circle class="cls-6" cx="96" cy="48" r="16"/><circle class="cls-6" cx="160" cy="80" r="16" transform="translate(8.86 165.21) rotate(-67.5)"/><path class="cls-6" d="M256,344a48,48,0,1,0,48,48A48,48,0,0,0,256,344Zm0,80a32,32,0,1,1,32-32A32,32,0,0,1,256,424Z" transform="translate(-16 -32)"/><path class="cls-6" d="M112,248H301a40,40,0,0,1,28.8,12.3,64,64,0,0,0,104-16.88A8,8,0,0,0,430,232.77a7.81,7.81,0,0,0-3.46-.77H380.25L369.6,216.24,380.31,200h46.25a8,8,0,0,0,8-8,8.11,8.11,0,0,0-.77-3.43,64,64,0,0,0-104-16.88A40,40,0,0,1,301,184H112a32,32,0,0,0,0,64Zm0-48H301a56,56,0,0,0,40.33-17.24,48.06,48.06,0,0,1,67.95-1.36c.86.84,1.7,1.7,2.5,2.6H376a8,8,0,0,0-6.68,3.6l-16,24.3a8,8,0,0,0,.05,8.87l16,23.71A8,8,0,0,0,376,248h35.82A48.05,48.05,0,0,1,344,251.75c-.9-.8-1.77-1.64-2.6-2.51A56,56,0,0,0,301,232H112a16,16,0,0,1,0-32Z" transform="translate(-16 -32)"/><path class="cls-6" d="M120,224h8a8,8,0,0,0,0-16h-8a8,8,0,0,0,0,16Z" transform="translate(-16 -32)"/><path class="cls-6" d="M152,224H264a8,8,0,0,0,0-16H152a8,8,0,0,0,0,16Z" transform="translate(-16 -32)"/><path class="cls-6" d="M288,224h8a8,8,0,0,0,0-16h-8a8,8,0,0,0,0,16Z" transform="translate(-16 -32)"/></g></svg>