<svg id="Layer_2" data-name="Layer 2" xmlns="http://www.w3.org/2000/svg" viewBox="0 0 298.36 265.7"><defs><style>.cls-1{fill:#61dafb;}</style></defs><title>reactnative</title><path class="cls-1" d="M405.21,255.3c0-19.76-24.75-38.5-62.7-50.11,8.76-38.68,4.86-69.45-12.29-79.3a26.65,26.65,0,0,0-13.62-3.41V136a14.09,14.09,0,0,1,6.93,1.58c8.27,4.75,11.86,22.81,9.07,46-.67,5.72-1.77,11.74-3.11,17.88a294.63,294.63,0,0,0-38.61-6.63,297.44,297.44,0,0,0-25.3-30.41C285.4,146.08,304,136,316.66,136V122.42h0c-16.72,0-38.62,11.92-60.75,32.6-22.14-20.56-44-32.36-60.76-32.36v13.57c12.59,0,31.26,10,51.09,28.33a286.88,286.88,0,0,0-25.12,30.35,284.19,284.19,0,0,0-38.68,6.69c-1.39-6.08-2.43-12-3.16-17.64-2.86-23.23.67-41.29,8.88-46.09a13.5,13.5,0,0,1,7-1.58V122.72h0a27.13,27.13,0,0,0-13.74,3.41c-17.09,9.85-20.92,40.56-12.1,79.12-37.83,11.68-62.46,30.35-62.46,50.05s24.75,38.5,62.7,50.11c-8.76,38.68-4.86,69.45,12.29,79.3a26.62,26.62,0,0,0,13.68,3.41c16.72,0,38.62-11.92,60.75-32.6,22.14,20.56,44,32.36,60.76,32.36a27.1,27.1,0,0,0,13.74-3.41c17.09-9.85,20.92-40.56,12.1-79.12C380.58,293.74,405.21,275,405.21,255.3ZM326,214.74c-2.25,7.84-5,15.93-8.21,24-2.5-4.87-5.11-9.73-8-14.6s-5.78-9.61-8.76-14.23C309.73,211.21,318.06,212.79,326,214.74ZM298.17,279.5c-4.74,8.21-9.6,16-14.65,23.24-9.06.79-18.25,1.21-27.49,1.21s-18.37-.42-27.37-1.15c-5-7.24-10-15-14.71-23.11-4.63-8-8.82-16.06-12.65-24.21,3.77-8.15,8-16.3,12.59-24.26,4.74-8.21,9.6-16,14.65-23.23,9.06-.79,18.25-1.22,27.49-1.22s18.37.43,27.37,1.16c5,7.23,10,15,14.71,23.11,4.63,8,8.82,16.05,12.65,24.2C306.93,263.39,302.74,271.54,298.17,279.5Zm19.65-7.9c3.28,8.15,6.08,16.3,8.39,24.2-8,1.95-16.36,3.59-25.06,4.87,3-4.68,6-9.49,8.76-14.41S315.32,276.46,317.82,271.6Zm-61.67,64.89A252.18,252.18,0,0,1,239.25,317c5.47.24,11.06.42,16.72.42s11.37-.12,16.91-.42A238.91,238.91,0,0,1,256.15,336.49Zm-45.24-35.82c-8.64-1.28-17-2.86-24.94-4.81,2.25-7.84,5.05-15.93,8.21-24,2.49,4.87,5.11,9.73,8,14.6S207.93,296.05,210.91,300.67Zm44.94-126.56a252.18,252.18,0,0,1,16.9,19.46c-5.47-.24-11.06-.42-16.72-.42s-11.37.12-16.91.42A238.91,238.91,0,0,1,255.85,174.11Zm-45,35.82c-3,4.69-6,9.49-8.75,14.42s-5.42,9.73-7.91,14.59c-3.28-8.15-6.08-16.3-8.39-24.2C193.76,212.85,202.15,211.21,210.84,209.93Zm-55,76.14c-21.53-9.18-35.46-21.22-35.46-30.77s13.93-21.65,35.46-30.77c5.23-2.25,10.94-4.26,16.84-6.14a292,292,0,0,0,13.69,37,286.39,286.39,0,0,0-13.5,36.86C166.81,290.39,161.1,288.32,155.81,286.07ZM188.53,373c-8.28-4.75-11.86-22.81-9.07-46,.67-5.72,1.77-11.74,3.11-17.88a294.63,294.63,0,0,0,38.61,6.63,297.44,297.44,0,0,0,25.3,30.41c-19.82,18.42-38.43,28.52-51.08,28.52A14.52,14.52,0,0,1,188.53,373Zm144.25-46.34c2.86,23.23-.67,41.29-8.88,46.09a13.47,13.47,0,0,1-7,1.59c-12.59,0-31.26-10-51.09-28.34a288.1,288.1,0,0,0,25.12-30.35,284.19,284.19,0,0,0,38.68-6.69A172.58,172.58,0,0,1,332.78,326.64Zm23.41-40.57c-5.23,2.25-10.94,4.26-16.84,6.14a292,292,0,0,0-13.69-37,286.82,286.82,0,0,0,13.5-36.85c6,1.88,11.74,3.95,17.09,6.2,21.53,9.18,35.46,21.22,35.46,30.77S377.72,277,356.19,286.07Z" transform="translate(-106.85 -122.42)"/><path class="cls-1" d="M195.09,122.66Z" transform="translate(-106.85 -122.42)"/><path class="cls-1" d="M256,227.51a27.79,27.79,0,1,1-27.79,27.79A27.79,27.79,0,0,1,256,227.51Z" transform="translate(-106.85 -122.42)"/><path class="cls-1" d="M316.54,122.48Z" transform="translate(-106.85 -122.42)"/></svg>