<svg id="Layer_1" data-name="Layer 1" xmlns="http://www.w3.org/2000/svg" viewBox="0 0 494.91 494.9"><defs><style>.cls-1{fill:#fff;}.cls-2{fill:#e8594a;}.cls-3{fill:#e0dada;}.cls-4{fill:#61acc9;}.cls-5{fill:#02033b;}.cls-6{fill:#ff5e5e;}.cls-7{fill:#f77219;}</style></defs><title>realestate</title><polygon class="cls-1" points="445.41 115.48 445.41 329.93 181.46 329.93 181.46 115.48 313.43 32.99 445.41 115.48"/><polygon class="cls-2" points="486.65 115.48 313.43 8.25 140.22 115.48 156.72 148.47 313.43 49.49 470.15 148.47 486.65 115.48"/><polygon class="cls-3" points="445.41 8.25 412.41 8.25 412.41 69.53 445.41 89.95 445.41 8.25"/><rect class="cls-3" x="247.45" y="123.72" width="32.99" height="65.99"/><rect class="cls-3" x="346.43" y="123.72" width="32.99" height="65.99"/><rect class="cls-3" x="346.43" y="230.94" width="32.99" height="65.99"/><rect class="cls-3" x="247.45" y="230.94" width="32.99" height="65.99"/><rect class="cls-4" x="247.45" y="156.71" width="32.99" height="16.5"/><rect class="cls-4" x="346.43" y="156.71" width="32.99" height="16.5"/><rect class="cls-4" x="346.43" y="255.69" width="32.99" height="16.5"/><rect class="cls-4" x="247.45" y="255.69" width="32.99" height="16.5"/><rect class="cls-5" x="131.97" y="41.23" width="16.5" height="16.5"/><rect class="cls-5" x="164.97" y="41.23" width="16.5" height="16.5"/><rect class="cls-5" x="98.98" y="41.23" width="16.5" height="16.5"/><rect class="cls-5" x="65.99" y="41.23" width="16.5" height="16.5"/><rect class="cls-5" x="32.99" y="41.23" width="16.5" height="16.5"/><rect class="cls-5" x="32.99" y="74.23" width="16.5" height="16.5"/><rect class="cls-5" x="32.99" y="107.22" width="16.5" height="16.5"/><rect class="cls-5" x="32.99" y="140.21" width="16.5" height="16.5"/><rect class="cls-5" x="32.99" y="173.21" width="16.5" height="16.5"/><rect class="cls-5" x="32.99" y="206.2" width="16.5" height="16.5"/><rect class="cls-5" x="338.18" y="453.65" width="16.5" height="16.5"/><rect class="cls-5" x="371.17" y="453.65" width="16.5" height="16.5"/><rect class="cls-5" x="404.16" y="453.65" width="16.5" height="16.5"/><rect class="cls-5" x="404.16" y="420.65" width="16.5" height="16.5"/><rect class="cls-5" x="404.16" y="387.66" width="16.5" height="16.5"/><rect class="cls-5" x="404.16" y="354.67" width="16.5" height="16.5"/><rect class="cls-5" x="305.19" y="453.65" width="16.5" height="16.5"/><rect id="SVGCleanerId_0" data-name="SVGCleanerId 0" class="cls-5" x="272.19" y="453.65" width="16.5" height="16.5"/><rect id="SVGCleanerId_0-2" data-name="SVGCleanerId 0" class="cls-5" x="272.19" y="453.65" width="16.5" height="16.5"/><circle class="cls-6" cx="131.97" cy="362.92" r="123.72"/><path class="cls-7" d="M155,421H126.05a26.8,26.8,0,0,1-26.77-26.78V388h16.49v6.22a10.3,10.3,0,0,0,10.28,10.28H155a10.28,10.28,0,0,0,2.48-20.25l-37.94-9.48A26.77,26.77,0,0,1,126,322h28.93a26.81,26.81,0,0,1,26.82,26.78V355h-16.5v-6.22A10.29,10.29,0,0,0,155,338.48H126.05a10.28,10.28,0,0,0-2.48,20.25l38,9.48A26.77,26.77,0,0,1,155,421Z" transform="translate(-8.55 -8.55)"/><rect class="cls-7" x="123.72" y="296.93" width="16.5" height="16.5"/><rect class="cls-7" x="123.72" y="404.16" width="16.5" height="24.75"/><path class="cls-7" d="M58,371.48H41.54a99.08,99.08,0,0,1,99-99V289A82.57,82.57,0,0,0,58,371.48Z" transform="translate(-8.55 -8.55)"/><path class="cls-7" d="M140.52,470.45V454A82.57,82.57,0,0,0,223,371.48h16.5A99.09,99.09,0,0,1,140.52,470.45Z" transform="translate(-8.55 -8.55)"/><path class="cls-5" d="M140.52,503.45a132,132,0,1,0-132-132A132,132,0,0,0,140.52,503.45Zm0-247.45A115.48,115.48,0,1,1,25,371.48,115.48,115.48,0,0,1,140.52,256Z" transform="translate(-8.55 -8.55)"/><path class="cls-5" d="M132.27,322h-6.22a26.77,26.77,0,0,0-6.49,52.78l37.94,9.48A10.28,10.28,0,0,1,155,404.5h-29a10.29,10.29,0,0,1-10.28-10.29V388H99.28v6.22A26.8,26.8,0,0,0,126.05,421h6.22v16.49h16.5V421H155a26.78,26.78,0,0,0,6.49-52.79l-37.95-9.48A10.28,10.28,0,0,1,126,338.45h28.93a10.27,10.27,0,0,1,10.32,10.25V355h16.5v-6.22A26.8,26.8,0,0,0,155,322h-6.22v-16.5H132.27V322Z" transform="translate(-8.55 -8.55)"/><path class="cls-5" d="M140.52,289V272.5a99.08,99.08,0,0,0-99,99H58A82.57,82.57,0,0,1,140.52,289Z" transform="translate(-8.55 -8.55)"/><path class="cls-5" d="M140.52,470.45a99.08,99.08,0,0,0,99-99H223A82.57,82.57,0,0,1,140.52,454v16.49Z" transform="translate(-8.55 -8.55)"/><path class="cls-5" d="M317.64,9.79,144.43,117a8.25,8.25,0,0,0-3.05,10.72l16.5,33a8.25,8.25,0,0,0,11.06,3.71,6.51,6.51,0,0,0,.73-.41l12.09-7.67v74.89h16.5V145.94L322,67.8,445.7,145.94V330.23H289v16.5H454a8.25,8.25,0,0,0,8.25-8.25V156.36L474.29,164a8.29,8.29,0,0,0,4.41,1.27,8,8,0,0,0,2.22-.31,8.24,8.24,0,0,0,5.16-4.25l16.5-33A8.25,8.25,0,0,0,499.53,117L462.2,93.9V16.8A8.25,8.25,0,0,0,454,8.55H421a8.26,8.26,0,0,0-8.25,8.25V63.27L326.32,9.79A8.23,8.23,0,0,0,317.64,9.79ZM429.21,25.05H445.7V83.69l-8.24-5.1-8.25-5.11V25.05Zm55.26,102-9.07,18.1-149-94.12a8.23,8.23,0,0,0-8.8,0l-149,94.12-9.07-18.1L322,26.5Z" transform="translate(-8.55 -8.55)"/><path class="cls-5" d="M256,214.76h33a8.26,8.26,0,0,0,8.25-8.25v-66a8.25,8.25,0,0,0-8.25-8.24H256a8.24,8.24,0,0,0-8.24,8.24v66A8.25,8.25,0,0,0,256,214.76Zm8.25-66h16.5v16.5h-16.5Zm0,33h16.5v16.5h-16.5Z" transform="translate(-8.55 -8.55)"/><path class="cls-5" d="M355,214.76h33a8.25,8.25,0,0,0,8.24-8.25v-66a8.24,8.24,0,0,0-8.24-8.24H355a8.25,8.25,0,0,0-8.25,8.24v66A8.26,8.26,0,0,0,355,214.76Zm8.25-66h16.5v16.5h-16.5Zm0,33h16.5v16.5h-16.5Z" transform="translate(-8.55 -8.55)"/><path class="cls-5" d="M346.72,305.49a8.26,8.26,0,0,0,8.25,8.25h33a8.25,8.25,0,0,0,8.24-8.25v-66a8.25,8.25,0,0,0-8.24-8.25H355a8.26,8.26,0,0,0-8.25,8.25Zm16.5-57.74h16.5v16.5h-16.5Zm0,33h16.5v16.5h-16.5Z" transform="translate(-8.55 -8.55)"/><path class="cls-5" d="M247.75,280.74h33v33H289a8.26,8.26,0,0,0,8.25-8.25v-66a8.25,8.25,0,0,0-8.25-8.24H256a8.24,8.24,0,0,0-8.24,8.24Zm16.49-33h16.5v16.5h-16.5Z" transform="translate(-8.55 -8.55)"/><rect class="cls-5" x="131.97" y="41.23" width="16.5" height="16.5"/><rect class="cls-5" x="164.97" y="41.23" width="16.5" height="16.5"/><rect class="cls-5" x="98.98" y="41.23" width="16.5" height="16.5"/><rect class="cls-5" x="65.99" y="41.23" width="16.5" height="16.5"/><rect class="cls-5" x="32.99" y="41.23" width="16.5" height="16.5"/><rect class="cls-5" x="32.99" y="74.23" width="16.5" height="16.5"/><rect class="cls-5" x="32.99" y="107.22" width="16.5" height="16.5"/><rect class="cls-5" x="32.99" y="140.21" width="16.5" height="16.5"/><rect class="cls-5" x="32.99" y="173.21" width="16.5" height="16.5"/><rect class="cls-5" x="32.99" y="206.2" width="16.5" height="16.5"/><rect class="cls-5" x="338.18" y="453.65" width="16.5" height="16.5"/><rect class="cls-5" x="371.17" y="453.65" width="16.5" height="16.5"/><rect class="cls-5" x="404.16" y="453.65" width="16.5" height="16.5"/><rect class="cls-5" x="404.16" y="420.65" width="16.5" height="16.5"/><rect class="cls-5" x="404.16" y="387.66" width="16.5" height="16.5"/><rect class="cls-5" x="404.16" y="354.67" width="16.5" height="16.5"/><rect class="cls-5" x="305.19" y="453.65" width="16.5" height="16.5"/><rect id="SVGCleanerId_0-3" data-name="SVGCleanerId 0" x="272.19" y="453.65" width="16.5" height="16.5"/></svg>