<svg id="Layer_1" data-name="Layer 1" xmlns="http://www.w3.org/2000/svg" viewBox="0 0 496 496"><defs><style>.cls-1{fill:#e6e9ed;}.cls-2{fill:#fff;}.cls-3{fill:#ff5e5e;}.cls-4{fill:#e8594a;}.cls-5{fill:#e0dada;}.cls-6{fill:#02033b;}</style></defs><title>retail</title><path class="cls-1" d="M248,120H456V224H248Z" transform="translate(-8 -8)"/><path class="cls-2" d="M384,16l8,80H312l8-80Z" transform="translate(-8 -8)"/><circle class="cls-3" cx="112" cy="136" r="80"/><path class="cls-4" d="M320,16l-8,80H232l24-80Z" transform="translate(-8 -8)"/><path class="cls-4" d="M448,16l24,80H392l-8-80Z" transform="translate(-8 -8)"/><path class="cls-4" d="M472,96v16a16,16,0,0,1-16,16H408a16,16,0,0,1-16-16V96Z" transform="translate(-8 -8)"/><path class="cls-4" d="M312,96v16a16,16,0,0,1-16,16H248a16,16,0,0,1-16-16V96Z" transform="translate(-8 -8)"/><path class="cls-2" d="M392,96v16a16,16,0,0,1-16,16H328a16,16,0,0,1-16-16V96Z" transform="translate(-8 -8)"/><path class="cls-5" d="M376,160h48v32H376Z" transform="translate(-8 -8)"/><path class="cls-5" d="M280,160h64v64H280Z" transform="translate(-8 -8)"/><path class="cls-5" d="M496,256V464a32,32,0,0,1-32,32H48a32,32,0,0,1-32-32V256a32,32,0,0,1,32-32H464A32,32,0,0,1,496,256ZM432,456V264a8,8,0,0,0-8-8H88a8,8,0,0,0-8,8V456a8,8,0,0,0,8,8H424A8,8,0,0,0,432,456Z" transform="translate(-8 -8)"/><path class="cls-2" d="M424,464H88a8,8,0,0,1-8-8V264a8,8,0,0,1,8-8H424a8,8,0,0,1,8,8V456A8,8,0,0,1,424,464Z" transform="translate(-8 -8)"/><path class="cls-5" d="M320,288h80v80H320Z" transform="translate(-8 -8)"/><path class="cls-3" d="M288,336v8l-16,56H176l-9.12-64Z" transform="translate(-8 -8)"/><path class="cls-5" d="M162,301.76,164.56,320H128a16.12,16.12,0,0,1-16-16,16,16,0,0,1,16-16h18.16A16.08,16.08,0,0,1,162,301.76Z" transform="translate(-8 -8)"/><circle class="cls-5" cx="264" cy="408" r="16"/><circle class="cls-5" cx="168" cy="408" r="16"/><path class="cls-6" d="M432,152H368v48h64Zm-16,32H384V168h32Z" transform="translate(-8 -8)"/><path class="cls-6" d="M464,216V134.53A24,24,0,0,0,480,112V96L454,8H250.05L224.34,93.7,224,112a24,24,0,0,0,16,22.53V216H170.44a88,88,0,1,0-100.88,0H48A40,40,0,0,0,8,256V464a40,40,0,0,0,40,40H464a40,40,0,0,0,40-40V256A40,40,0,0,0,464,216Zm-8-96H408a8,8,0,0,1-8-8v-8h64v8A8,8,0,0,1,456,120Zm-72-8a8,8,0,0,1-8,8H328a8,8,0,0,1-8-8v-8h64Zm-80,0a8,8,0,0,1-8,8H248a8,8,0,0,1-8-8v-8h64Zm16.84-24,6.4-64h49.52l6.43,64Zm140.41,0h-62l-6.4-64h49.21ZM262,24h49.21l-6.37,64h-62ZM256,136h40a23.86,23.86,0,0,0,16-6.24A23.81,23.81,0,0,0,328,136h48a23.86,23.86,0,0,0,16-6.24A23.81,23.81,0,0,0,408,136h40v80H352V152H272v64H256Zm80,80H288V168h48ZM48,144a72,72,0,1,1,72,72A72.08,72.08,0,0,1,48,144ZM488,464a24,24,0,0,1-24,24H48a24,24,0,0,1-24-24V256a24,24,0,0,1,24-24H464a24,24,0,0,1,24,24Z" transform="translate(-8 -8)"/><path class="cls-6" d="M424,248H88a16,16,0,0,0-16,16V456a16,16,0,0,0,16,16H424a16,16,0,0,0,16-16V264A16,16,0,0,0,424,248Zm0,208H88V264H424Z" transform="translate(-8 -8)"/><path class="cls-6" d="M456,320h16v80H456Z" transform="translate(-8 -8)"/><path class="cls-6" d="M40,384H56v16H40Z" transform="translate(-8 -8)"/><path class="cls-6" d="M40,320H56v48H40Z" transform="translate(-8 -8)"/><path class="cls-6" d="M128,328h29.63l9.4,65.78A24.18,24.18,0,1,0,198.53,408h50.95a23.61,23.61,0,0,0-1.48,8,24,24,0,1,0,34-21.77l13.73-48L296,328H173.8l-3.91-27.4A24.13,24.13,0,0,0,146.13,280H128a24,24,0,0,0,0,48Zm56,88a8,8,0,1,1-8-8A8,8,0,0,1,184,416Zm88,8a8,8,0,1,1,8-8A8,8,0,0,1,272,424Zm7.68-80L266,392h-83l-6.86-48ZM128,296h18.13a8,8,0,0,1,7.91,6.86l1.3,9.14H128a8,8,0,0,1,0-16Z" transform="translate(-8 -8)"/><path class="cls-6" d="M128,120a8,8,0,0,1,8,8h16a24,24,0,0,0-24-24V88H112v16H88v24a24,24,0,0,0,24,24h16a8,8,0,0,1,8,8v8H112a8,8,0,0,1-8-8H88a24,24,0,0,0,24,24v16h16V184h24V160a24,24,0,0,0-24-24H112a8,8,0,0,1-8-8v-8Z" transform="translate(-8 -8)"/><path class="cls-6" d="M408,280H312v96h96Zm-16,80H328V296h64Z" transform="translate(-8 -8)"/><path class="cls-6" d="M392,392h16v48H392Z" transform="translate(-8 -8)"/><path class="cls-6" d="M360,392h16v48H360Z" transform="translate(-8 -8)"/><path class="cls-6" d="M328,392h16v48H328Z" transform="translate(-8 -8)"/></svg>