<svg id="Layer_1" data-name="Layer 1" xmlns="http://www.w3.org/2000/svg" viewBox="0 0 697.89 697.92"><defs><style>.cls-1{fill:#f05138;}.cls-2{fill:#fff;}</style></defs><title>swift</title><path class="cls-1" d="M1023.94,234.84q0-10.53-.31-21.05c-.42-15.29-1.31-30.71-4-45.83a154.74,154.74,0,0,0-14.37-43.59,146.54,146.54,0,0,0-64.05-64.08,154.78,154.78,0,0,0-43.57-14.35c-15.15-2.72-30.58-3.63-45.86-4-7-.2-14-.29-21.07-.33q-12.49-.06-25,0H544.39q-12.51,0-25,0c-7,.06-14,.14-21.06.33-3.83.09-7.66.24-11.5.42a264.41,264.41,0,0,0-34.36,3.61,159.54,159.54,0,0,0-33,9.5,146.66,146.66,0,0,0-74.61,68.92,154.2,154.2,0,0,0-14.35,43.58c-2.73,15.14-3.63,30.56-4,45.83-.19,7-.28,14.06-.32,21.07q-.06,12.53,0,25V521.13q0,12.52,0,25c.06,7,.14,14.05.32,21.06.43,15.3,1.31,30.72,4,45.83a154.29,154.29,0,0,0,14.35,43.61,146.45,146.45,0,0,0,64.08,64.08,154.89,154.89,0,0,0,43.57,14.35c15.12,2.73,30.56,3.63,45.85,4,7,.18,14,.26,21.06.31,8.32.05,16.66,0,25,0H805.67c8.31,0,16.66,0,25,0,7,0,14-.13,21.05-.31,15.3-.43,30.74-1.31,45.86-4a154.78,154.78,0,0,0,43.57-14.35,146.4,146.4,0,0,0,64.06-64.08,154.63,154.63,0,0,0,14.37-43.59c2.72-15.11,3.63-30.54,4-45.84.18-7,.26-14,.31-21.05.05-8.34,0-16.67,0-25V259.86q0-12.51,0-25Z" transform="translate(-326.08 -41.54)"/><path class="cls-2" d="M879.09,472.34l0,0c.76-2.63,1.55-5.24,2.24-7.93,29-115.41-41.74-251.86-161.36-323.69,52.43,71.07,75.6,157.15,55,232.42a192.35,192.35,0,0,1-6.47,19.43q-5.12-3.28-10.46-6.19S639,312.86,510,182.89c-3.38-3.41,68.77,103.14,150.67,189.66-38.58-21.64-146.11-99.89-214.18-162.19a308.5,308.5,0,0,0,29.25,40.32c56.84,72.08,131,161,219.79,229.34-62.4,38.19-150.57,41.15-238.37,0a360.18,360.18,0,0,1-61-36.41A365.51,365.51,0,0,0,560.19,584.32c83.08,35.7,165.69,33.27,227.21.59l0,.07c.28-.19.64-.37.93-.57,2.53-1.33,5-2.73,7.48-4.18,29.57-15.35,88-30.91,119.29,30.06,7.69,14.93,24-64.16-35.95-137.94Z" transform="translate(-326.08 -41.54)"/></svg>