<svg id="Layer_1" data-name="Layer 1" xmlns="http://www.w3.org/2000/svg" viewBox="0 0 480 480.01"><defs><style>.cls-1{fill:#3e3d42;}.cls-2{fill:#3d9ae2;}.cls-3{fill:#e0dada;}.cls-4{fill:#fff;}.cls-5{fill:#ff5e5e;}.cls-6{fill:#02033b;}</style></defs><title>travel</title><circle class="cls-1" cx="288" cy="448" r="24"/><circle class="cls-1" cx="424" cy="448" r="24"/><circle class="cls-2" cx="208" cy="216" r="184"/><circle class="cls-3" cx="208" cy="216" r="184"/><path class="cls-4" d="M373.6,125c59.14,82.54,40.17,197.4-42.38,256.54a183.89,183.89,0,0,1-64.42,29.38L256,384l-24-48-16-24-24-32,8-40,16-40,64-16,56-16Z" transform="translate(-16 -15.99)"/><path class="cls-4" d="M331.52,82.71C327.36,90.07,323.12,96,320,96c-8,0-32,24-40,24s-48,16-48,16l-64-24L121.84,79A183.77,183.77,0,0,1,331.52,82.71Z" transform="translate(-16 -15.99)"/><path class="cls-4" d="M176,328l-8,40-20.8,31.2c-92.35-42.41-132.82-151.66-90.41-244a183.85,183.85,0,0,1,14.49-25.84L120,144l16,40,40,32s-16,16-16,24-8,32,0,40S176,328,176,328Z" transform="translate(-16 -15.99)"/><path class="cls-5" d="M232,104H180.92L144,24H112v80H66.29L56,72H24V184H56l10.29-32H112v80h32l36.92-80H232a24,24,0,0,0,24-24h0A24,24,0,0,0,232,104Z" transform="translate(-16 -15.99)"/><rect class="cls-4" x="240" y="184" width="232" height="264" rx="16" ry="16"/><path class="cls-3" d="M451.92,362.59l-38.26,38.27a8,8,0,0,1-13.25-3.13l-19.13-57.39a8,8,0,0,1,10.12-10.12l57.4,19.12a8,8,0,0,1,5.05,10.13A7.85,7.85,0,0,1,451.92,362.59Z" transform="translate(-16 -15.99)"/><rect class="cls-5" x="296" y="255.99" width="80" height="56" transform="translate(-118.4 304.78) rotate(-45)"/><path class="cls-6" d="M472,192H432V56a40,40,0,0,0-40-40H360a40,40,0,0,0-40,40v9.76A190.48,190.48,0,0,0,164.64,49.59l-13.36-29A8.14,8.14,0,0,0,144,16H112a8,8,0,0,0-8,8V82.31A165.19,165.19,0,0,0,88.72,96H72.08L63.6,69.51A8,8,0,0,0,56,64H24a8,8,0,0,0-8,8V184a8,8,0,0,0,8,8H36.32A186.18,186.18,0,0,0,32,232c.14,106,86,191.86,192,192a185.3,185.3,0,0,0,24-1.68V448a24.07,24.07,0,0,0,24,24h1.12a31.86,31.86,0,0,0,61.76,0h74.24a31.86,31.86,0,0,0,61.76,0H472a24.07,24.07,0,0,0,24-24V216A24.07,24.07,0,0,0,472,192ZM336,56a24.07,24.07,0,0,1,24-24h32a24.07,24.07,0,0,1,24,24V192h-4.16A193.55,193.55,0,0,0,336,76.15Zm0,40.4a178.65,178.65,0,0,1,27.28,28.24L336,155.83Zm0,79.92,2.16-.64a7.64,7.64,0,0,0,3.84-2.4l30.72-35.2A175.82,175.82,0,0,1,395.28,192H336ZM224,56a174.38,174.38,0,0,1,96,28.64V86c-.8,1-1.44,1.76-1.76,2.16a59.62,59.62,0,0,0-23,13.44A110.07,110.07,0,0,1,280,112a66.39,66.39,0,0,0-18.24,4.48A32,32,0,0,0,232,96H186L171.36,64.23A174.13,174.13,0,0,1,224,56ZM32,176V80H50.16l8.48,26.48A8.1,8.1,0,0,0,66.32,112H112a8,8,0,0,0,8-8V32h18.88l34.8,75.36A8,8,0,0,0,181,112h51a16,16,0,0,1,0,32H181a8,8,0,0,0-7.28,4.64L138.88,224H120V152a8,8,0,0,0-8-8H66.32a8.1,8.1,0,0,0-7.68,5.52L50.16,176Zm16,56a176.65,176.65,0,0,1,4.72-40H56a8,8,0,0,0,7.6-5.52L72.08,160H104v72a8,8,0,0,0,8,8h32a8.11,8.11,0,0,0,7.28-4.64L161,214.23l3.2,2.64A43.82,43.82,0,0,0,152,240a79,79,0,0,1-1.2,8.4c-2.32,12.72-5.2,28.56,3.52,37.28,3.68,3.6,9.84,24.48,13.52,42.32l-7.36,36.88-16,24A176,176,0,0,1,48,232ZM248,406.23A183.51,183.51,0,0,1,224,408a174.55,174.55,0,0,1-64.8-12.4l15.44-23.2a7.28,7.28,0,0,0,1.2-2.8l8-40a7.2,7.2,0,0,0,0-3.2c-2-9.92-9.2-43-18.16-52.08-2.8-2.8-.16-17.52.8-23.12a65.17,65.17,0,0,0,1.52-11,58.84,58.84,0,0,1,13.68-18.48,8.24,8.24,0,0,0,2.32-6.16,8,8,0,0,0-3-5.76l-13-10.48L186,160h46a32,32,0,0,0,31.52-27.2A91.75,91.75,0,0,1,280,128c6.32,0,13.2-4.88,24.8-13.6A111,111,0,0,1,320,104v60.24l-41.92,12-64,16a8.11,8.11,0,0,0-5.52,4.8l-16,40a9.59,9.59,0,0,0-.4,1.36l-8,40a8,8,0,0,0,1.44,6.4l23.76,31.6L225,340l23,45.92Zm72-225.36V192H281l1.2-.32ZM248,216V350.07l-8.88-17.68a4.35,4.35,0,0,0-.48-.8l-16.24-24.4-21.84-29.12,7.12-35.76,14.24-35.52L256,198.23A23.9,23.9,0,0,0,248,216Zm56,264a16,16,0,0,1-13.76-8h27.52A16,16,0,0,1,304,480Zm136,0a15.87,15.87,0,0,1-13.84-8h27.68A15.87,15.87,0,0,1,440,480Zm40-32a8,8,0,0,1-8,8H272a8,8,0,0,1-8-8V216a8,8,0,0,1,8-8H472a8,8,0,0,1,8,8Z" transform="translate(-16 -15.99)"/><path class="cls-6" d="M456,344.37V240H440v98l-32-10.67V240H392v35.1a7.91,7.91,0,0,0-2.26-5.24L360,240.11V240h-.12l-9.74-9.74a8.23,8.23,0,0,0-11.31,0L312,257.08V240H296v33.09l-13.74,13.74a8,8,0,0,0,0,11.32L296,311.87V424h16V327.87l9.86,9.87a8,8,0,0,0,11.31,0L344,326.9V424h16V310.9l29.74-29.74a7.91,7.91,0,0,0,2.26-5.23v46.34a15.83,15.83,0,0,0-18.31,20.59L392,397.8V424h16v-12.8h.05a15.83,15.83,0,0,0,11.26-4.69L440,385.82V424h16V369.82l1.6-1.59a15.84,15.84,0,0,0,.1-22.4,17.26,17.26,0,0,0-1.7-1.49ZM327.51,320.79,299.2,292.48l45.29-45.29L372.8,275.5ZM408,395.19l-19.13-57.38,57.42,19.09h0Z" transform="translate(-16 -15.99)"/></svg>