<svg xmlns="http://www.w3.org/2000/svg" xmlns:xlink="http://www.w3.org/1999/xlink" viewBox="0 0 500 445.82"><defs><style>.cls-1,.cls-11,.cls-13,.cls-15,.cls-17{fill:#fff;}.cls-1,.cls-12,.cls-15,.cls-17,.cls-18,.cls-5,.cls-7,.cls-8,.cls-9{stroke:#0b0c3d;}.cls-1,.cls-12,.cls-17,.cls-5,.cls-7,.cls-8,.cls-9{stroke-miterlimit:10;}.cls-2{fill:#f9e8e8;}.cls-3{opacity:0.7;}.cls-18,.cls-4,.cls-9{fill:#0b0c3d;}.cls-5{fill:#eebebe;}.cls-12,.cls-6{fill:#de5e5e;}.cls-10,.cls-7{fill:none;}.cls-8{fill:#fffdfd;}.cls-10{stroke:#fff;stroke-width:0.5px;}.cls-10,.cls-11,.cls-15,.cls-18{stroke-linecap:round;stroke-linejoin:round;}.cls-11{stroke:#263238;}.cls-14{clip-path:url(#clip-path);}.cls-16{clip-path:url(#clip-path-2);}.cls-17{opacity:0.25;}</style><clipPath id="clip-path" transform="translate(0 0.65)"><path id="_Clipping_Path_" data-name="&lt;Clipping Path&gt;" class="cls-1" d="M115.83,236.56s-4,6.43-2.92,11.72,11,28.37,18.28,49.55S137,342.08,137,348.89s-.37,11.73,4.75,14.37,13.16,1.14,15.36-3.78,3.65-36.31-.37-55.22-18.28-52.2-21.94-59.76S129.36,226.34,115.83,236.56Z"/></clipPath><clipPath id="clip-path-2" transform="translate(0 0.65)"><path id="_Clipping_Path_2" data-name="&lt;Clipping Path&gt;" class="cls-1" d="M226.64,363.64l-67.83,2.14a5.7,5.7,0,0,1-5.88-5.52l-.31-9.73a5.7,5.7,0,0,1,5.52-5.88L226,342.51a5.7,5.7,0,0,1,5.88,5.52l.31,9.73A5.7,5.7,0,0,1,226.64,363.64Z"/></clipPath></defs><title>Vector Smart Object2</title><g id="Clouds"><path class="cls-2" d="M243.25,152.08c-8.57-4.68-12.47-.78-15.58-4.68s8.57-14-14.8-24.14c0,0-1.56-21.81-33.49-22.59S156,122.48,147.44,127.93s-10.9-3.12-19.47,2.34-4.68,16.35-11.69,17.91-16.35-7-24.92-1.56-8.57,10.13-12.46,10.13-11.69-3.12-16.36,0-10.13,7-10.13,7H249.48S251.82,156.75,243.25,152.08Z" transform="translate(0 0.65)"/><g class="cls-3"><path class="cls-2" d="M370.21,89.89c-3.48-1.89-5.06-.31-6.32-1.89s3.48-5.69-6-9.8c0,0-.63-8.85-13.59-9.17s-9.48,8.85-13,11.06-4.42-1.26-7.9,1-1.9,6.64-4.74,7.27-6.64-2.84-10.12-.63-3.48,4.11-5.06,4.11-4.74-1.27-6.63,0-4.11,2.84-4.11,2.84h80S373.69,91.79,370.21,89.89Z" transform="translate(0 0.65)"/></g><g class="cls-3"><path class="cls-2" d="M257.77,254c-3.47-1.9-5-.32-6.32-1.9s3.48-5.69-6-9.8c0,0-.64-8.85-13.6-9.17s-9.48,8.86-13,11.07-4.42-1.27-7.9.95-1.89,6.63-4.74,7.27-6.64-2.85-10.12-.64-3.47,4.11-5,4.11-4.74-1.26-6.64,0-4.11,2.85-4.11,2.85h80S261.25,255.88,257.77,254Z" transform="translate(0 0.65)"/></g></g><g id="Background"><rect class="cls-4" y="274.53" width="500" height="4.55"/><line class="cls-1" x1="383.51" y1="277.22" x2="383.51" y2="59.48"/><line class="cls-1" x1="157.71" y1="277.22" x2="157.71" y2="26.32"/><line class="cls-1" x1="13.55" y1="153.28" x2="481.95" y2="153.28"/><path class="cls-1" d="M243.88,34.23H259.6a3.32,3.32,0,0,1,3.32,3.32V52.32a0,0,0,0,1,0,0H240.57a0,0,0,0,1,0,0V37.54A3.32,3.32,0,0,1,243.88,34.23Z"/><circle class="cls-5" cx="251.46" cy="69" r="10.42"/><polygon class="cls-1" points="296.04 69.49 207.45 69.49 240.68 51.39 262.74 51.39 296.04 69.49"/><rect class="cls-1" x="249.87" y="0.5" width="3.75" height="36.21"/></g><g id="Plants"><path class="cls-6" d="M400.2,186.55c1.4.62,4.83.54,4.83.54s-.74-2.25-.8-2.38c-.75-1.58-3.13-4.18-5.07-3.92a2.32,2.32,0,0,0-1.86,2.9A4.83,4.83,0,0,0,400.2,186.55Z" transform="translate(0 0.65)"/><path class="cls-6" d="M445.14,174.87c-1.94-.21-4.25,2.46-5,4-.06.14-.77,2.41-.74,2.41h0c-.36.42-.75.87-1.17,1.38-.76.93-1.61,2-2.46,3.21A41.9,41.9,0,0,0,433.3,190a30.38,30.38,0,0,0-2.17,4.9.19.19,0,0,0,0,.07c0-.58,0-2.18,0-2.3-.23-1.73-1.68-4.95-3.6-5.3a2.31,2.31,0,0,0-2.67,2.18,4.87,4.87,0,0,0,1.86,3.62c1.09,1,4.14,1.92,4.38,2a40.36,40.36,0,0,0-1.28,5.31c-.19,1.05-.35,2.1-.49,3.17,0-.5,0-.94,0-1-.23-1.73-1.68-5-3.6-5.3a2.31,2.31,0,0,0-2.67,2.17,4.8,4.8,0,0,0,1.86,3.62,15,15,0,0,0,4.25,2c-.05.4-.11.81-.16,1.22-.23,2-.46,3.92-.74,5.84-.09.67-.22,1.33-.34,2,0-.44,0-.81,0-.86-.22-1.73-1.67-5-3.6-5.3a2.31,2.31,0,0,0-2.67,2.17,4.83,4.83,0,0,0,1.86,3.62,14.71,14.71,0,0,0,4.13,1.92c-.14.68-.28,1.35-.45,2-.13.44-.22.87-.37,1.3s-.28.86-.41,1.29c-.3.81-.59,1.64-.9,2.42-.21.55-.42,1.06-.63,1.58.11-.67.29-2,.29-2.1a8.86,8.86,0,0,0-1.21-4.37,2.19,2.19,0,0,0,0-.51,2.3,2.3,0,0,0-2.83-2c-1.89.5-3.08,3.82-3.17,5.56,0,.1.06,1.22.11,1.93-.09-.41-.18-.81-.28-1.23-.2-.84-.42-1.66-.66-2.56q-.19-.63-.39-1.29c-.12-.43-.3-.88-.46-1.32-.37-1-.8-2-1.25-3a15.34,15.34,0,0,0,4.36-1.64,4.84,4.84,0,0,0,2.12-3.47,2.32,2.32,0,0,0-2.5-2.37c-1.94.21-3.63,3.31-4,5,0,.11-.14,1.36-.19,2.05-.28-.61-.55-1.21-.85-1.82-.87-1.75-1.81-3.49-2.73-5.24l-.84-1.6a16.16,16.16,0,0,0,4.52-1.67,4.86,4.86,0,0,0,2.12-3.47,2.31,2.31,0,0,0-2.5-2.37c-1.94.21-3.63,3.3-4,5,0,.13-.19,1.94-.21,2.4-.61-1.18-1.21-2.36-1.75-3.54a41.67,41.67,0,0,1-1.91-4.93c.12,0,3.35-.76,4.54-1.68a4.82,4.82,0,0,0,2.13-3.47,2.32,2.32,0,0,0-2.5-2.37c-1.95.21-3.63,3.31-4,5,0,.13-.2,2.07-.2,2.43,0-.1-.08-.2-.11-.29a29.55,29.55,0,0,1-1-5.21c-.11-1-.16-1.9-.19-2.81a15.53,15.53,0,0,0,4.59-1.16,4.83,4.83,0,0,0,2.49-3.21,2.31,2.31,0,0,0-2.22-2.63c-2,0-4,2.89-4.51,4.55,0,.09-.23,1-.36,1.73,0-.41,0-.83,0-1.23,0-1.47.1-2.83.19-4,.06-.68.12-1.29.19-1.87a15,15,0,0,0,3.52-3.12,4.81,4.81,0,0,0,.73-4,2.31,2.31,0,0,0-3.19-1.31c-1.73.89-2.19,4.39-1.9,6.11,0,.15.68,2.43.71,2.41l0,0c-.07.55-.15,1.14-.22,1.79-.12,1.2-.24,2.56-.28,4a43.85,43.85,0,0,0,.12,4.79,30,30,0,0,0,.89,5.29.14.14,0,0,0,0,.06c-.31-.48-1.22-1.8-1.3-1.89-1.14-1.33-4.12-3.2-5.92-2.44a2.32,2.32,0,0,0-1,3.29,4.85,4.85,0,0,0,3.55,2,15.87,15.87,0,0,0,4.76-.75,39.68,39.68,0,0,0,1.86,5.14c.42,1,.87,2,1.34,2.91l-.57-.82c-1.14-1.32-4.13-3.2-5.93-2.43a2.31,2.31,0,0,0-1,3.28,4.84,4.84,0,0,0,3.55,2,15.21,15.21,0,0,0,4.62-.71c.19.37.37.74.55,1.11.89,1.76,1.78,3.52,2.6,5.27.29.62.56,1.24.82,1.86-.25-.37-.46-.67-.5-.71-1.14-1.32-4.12-3.2-5.92-2.44a2.32,2.32,0,0,0-1,3.29,4.85,4.85,0,0,0,3.55,2,14.75,14.75,0,0,0,4.5-.67c.25.64.51,1.28.73,1.91.13.44.3.85.41,1.29l.36,1.3c.2.84.42,1.7.59,2.52.13.57.24,1.11.35,1.66-.28-.62-.86-1.82-.92-1.91-.93-1.48-3.59-3.79-5.49-3.31a2.33,2.33,0,0,0-1.51,3.1,4.87,4.87,0,0,0,3.21,2.51,15.84,15.84,0,0,0,4.79,0c.18.91.35,1.8.49,2.63.51,2.91.83,5.34,1,7,0,.3.06.57.09.83h-5.88L415,276.29h10l2.15-41.92h-5.48l.12-.25c.75-1.57,1.79-3.82,2.92-6.58.36-.87.72-1.8,1.09-2.77a15.72,15.72,0,0,0,4.78.37,4.8,4.8,0,0,0,3.38-2.26,2.31,2.31,0,0,0-1.28-3.2c-1.85-.62-4.68,1.48-5.72,2.89-.06.08-.62,1.06-1,1.67.14-.39.29-.77.44-1.18.29-.81.57-1.62.86-2.49l.39-1.3c.14-.43.23-.9.35-1.35.25-1.06.45-2.14.63-3.24a15.21,15.21,0,0,0,4.54,1,4.83,4.83,0,0,0,3.68-1.72,2.31,2.31,0,0,0-.78-3.36c-1.73-.89-4.85.76-6.08,2-.08.08-.87,1.06-1.29,1.61.1-.66.21-1.32.29-2,.24-1.94.42-3.91.62-5.87.05-.61.12-1.21.18-1.8.25.09,3.23,1.2,4.69,1.09a4.84,4.84,0,0,0,3.69-1.72,2.33,2.33,0,0,0-.78-3.36c-1.74-.89-4.85.76-6.09,2-.09.1-1.23,1.51-1.5,1.89.14-1.33.29-2.64.5-3.93a40,40,0,0,1,1.12-5.16c.12,0,3.22,1.21,4.72,1.11a4.81,4.81,0,0,0,3.68-1.73,2.31,2.31,0,0,0-.77-3.35c-1.74-.9-4.86.75-6.09,2-.1.1-1.32,1.63-1.52,1.92,0-.1.05-.2.08-.3a30.91,30.91,0,0,1,2-4.89c.45-.87.92-1.67,1.4-2.45a15.43,15.43,0,0,0,4.47,1.57,4.83,4.83,0,0,0,3.85-1.31,2.31,2.31,0,0,0-.41-3.42c-1.62-1.08-4.9.22-6.27,1.31-.07.06-.76.74-1.25,1.25.22-.35.44-.71.66-1,.82-1.23,1.64-2.31,2.38-3.25.42-.54.82-1,1.19-1.46a15.29,15.29,0,0,0,4.66-.66,4.85,4.85,0,0,0,2.82-2.94A2.32,2.32,0,0,0,445.14,174.87Zm-21.52,52.22c-1.17,2.71-2.25,4.91-3,6.45l-.43.83H420c0-.3-.08-.63-.13-1-.24-1.73-.61-4.18-1.19-7.1-.18-.92-.39-1.9-.62-2.91a24.75,24.75,0,0,0,2.67-1.26,16.67,16.67,0,0,0,3.9,2.51C424.31,225.48,424,226.31,423.62,227.09Z" transform="translate(0 0.65)"/><path class="cls-6" d="M434.9,187.31s.63-2.28.65-2.43c.24-1.73-.31-5.21-2.07-6.06a2.31,2.31,0,0,0-3.15,1.39,4.86,4.86,0,0,0,.83,4C432,185.48,434.9,187.31,434.9,187.31Z" transform="translate(0 0.65)"/></g><g id="Characters"><polygon class="cls-4" points="148.25 224.87 137.41 256.84 126.85 329.07 87.68 426.52 99.98 426.52 156.96 333.48 174.51 276.02 199.11 336.08 203.45 427.24 216.44 427.24 224.43 330.29 208.51 255.28 205.11 239.35 148.25 224.87"/><path class="cls-1" d="M219.31,139.2s-19.82-3.31-37.83.6-42,11.55-59.54,24a78.44,78.44,0,0,0-9.89,8.78l13.13,9.86s21.25-5.78,28.24-5.83a103.69,103.69,0,0,0,12.15-1.09l-17.32,48.7S147.35,235.93,160,241s36.06,7.92,45.46.69c5-3.81,28.6-65,28.6-65s6.93,36,9,41.38a35.62,35.62,0,0,0,6.3,9.9l13.21-9.9s-7.23-35.37-9.93-47.08S239.72,141,219.31,139.2Z" transform="translate(0 0.65)"/><polyline class="cls-7" points="186.28 173.47 165.57 176.18 181.78 180.38"/><path class="cls-7" d="M185.68,143.1s7.21,12,.6,24.32" transform="translate(0 0.65)"/><line class="cls-7" x1="234.02" y1="177.38" x2="247.83" y2="175.27"/><line class="cls-7" x1="234.62" y1="178.58" x2="252.93" y2="181.28"/><path class="cls-5" d="M217.81,135.59s-9.61,3-12,6-2.4,31.52-2.4,31.52l12.3-2.7,10.51,8.1s-.6-17.11-2.4-28.82S217.81,135.59,217.81,135.59Z" transform="translate(0 0.65)"/><path class="cls-8" d="M222.31,128.09s-7.81,11.11-9.61,13.51-.6,15.31.3,19.81a59.2,59.2,0,0,0,2.7,9L228,157.51s-4.8-5.7-3.9-12.91,4.8-15,4.5-17.11S222.31,128.09,222.31,128.09Z" transform="translate(0 0.65)"/><path class="cls-1" d="M222,133.19s-5.41,13.21-4.2,18,13.81,15.92,19.81,14.12,6.91-12.91,6.91-12.91,2.7,1.2,3.6.6,1.2-8.11,1.2-8.11a58.36,58.36,0,0,0,3.9-4.8,27.77,27.77,0,0,0,2.1-3.91s9.91-.3,9-9.3S246.63,105,234.62,105s-16.51,13.81-16.51,18S222,133.19,222,133.19Z" transform="translate(0 0.65)"/><path class="cls-1" d="M244.35,142.78s-2.95-3.37-7.16-3.37" transform="translate(0 0.65)"/><path class="cls-1" d="M241.75,144.34l-1.07,1.82s-2.53.66-3.49-.88" transform="translate(0 0.65)"/><path class="cls-9" d="M264.34,126.89c-.9-9-17.71-21.92-29.72-21.92s-16.51,13.81-16.51,18,3.9,10.21,3.9,10.21-5.41,13.21-4.2,18,13.81,15.92,19.81,14.12c4.74-1.43,6.29-8.63,6.74-11.61-4.27-4.6-10.65.29-14.25,1.4-3.9,1.2-7.8-4.21-7.8-7.21s3.9-11.11,4.8-12.61,5.71-.3,8.41-.6-1.2-4.8-.6-7.5,9.61,6.6,13.21,8.7a8.06,8.06,0,0,0,7.2.3S265.24,135.89,264.34,126.89Zm-26.12,29.42c4.5-.6,4.5,1.2,4.5,1.2-1.63,3.79-2.4,3-3.9,2.4S233.72,156.91,238.22,156.31Z" transform="translate(0 0.65)"/><path class="cls-1" d="M223.21,135.89s.9-6-2.7-6.6-3.91,4.5-3.91,7.8,3.91,3.31,5.71,2.71" transform="translate(0 0.65)"/><path class="cls-10" d="M221,119.09a6.34,6.34,0,0,0-1.84,1.76" transform="translate(0 0.65)"/><path class="cls-10" d="M245.11,130.43a31.21,31.21,0,0,1-11.5-8.48c-3.21-3.69-6.89-4.56-9.83-4" transform="translate(0 0.65)"/><path class="cls-10" d="M232.79,132.08s-2.74-9.31-14-6.3" transform="translate(0 0.65)"/><path class="cls-5" d="M109.49,187.59s4-6.36,9.09-4.55,9.91,6.3,9.91,6.3l4.5-7.2s.9-7.51-7.2-11.41-12.61-.6-12.61-.6C110.09,170.7,106.2,185.86,109.49,187.59Z" transform="translate(0 0.65)"/><path class="cls-5" d="M263.76,212.09s-7.8,2.1-13.21,6a15.59,15.59,0,0,0-6.3,9s6.9,7.51,8.41,7.51,12.9-12.61,14.11-13.81S263.76,212.09,263.76,212.09Z" transform="translate(0 0.65)"/><path class="cls-11" d="M316.6,246s-.3,4.2-1.5,5.1-6.6,0-6.6,0-3.61-5.1-2.11-7.2,4.21-1.51,6-.91S316.6,246,316.6,246Z" transform="translate(0 0.65)"/><path class="cls-1" d="M266.77,220.8l32.12,16.51,11.71,1.5S325,246,325,247.22s-1.5,1.8-2.7,1.5-9.91-3.9-11.71-3.9-3.31.6-3,2.1,4.5,7.8,2.1,7.8-4.81-6-6-6.6-5.4-5.11-5.4-5.11-27.62-5.7-33.93-6.6a23.1,23.1,0,0,1-9.9-3.6Z" transform="translate(0 0.65)"/><path class="cls-12" d="M100,425.87l3.85,5.51a17.36,17.36,0,0,0,6.27,5.49l7.47,3.84a1.56,1.56,0,0,1,.83,1.38h0a1.54,1.54,0,0,1-1.62,1.54c-7-.35-34.5-1.75-35.46-1.75s-1.47-1.47-1.1-5.88,7.46-10.13,7.46-10.13Z" transform="translate(0 0.65)"/><path class="cls-12" d="M216.38,425.87l3.85,5.51a17.27,17.27,0,0,0,6.27,5.49l7.46,3.84a1.55,1.55,0,0,1,.84,1.38h0a1.54,1.54,0,0,1-1.62,1.54c-7-.35-34.51-1.75-35.47-1.75s-1.46-1.47-1.1-5.88,7.47-10.13,7.47-10.13Z" transform="translate(0 0.65)"/><path id="_Clipping_Path_3" data-name="&lt;Clipping Path&gt;" class="cls-13" d="M115.83,236.56s-4,6.43-2.92,11.72,11,28.37,18.28,49.55S137,342.08,137,348.89s-.37,11.73,4.75,14.37,13.16,1.14,15.36-3.78,3.65-36.31-.37-55.22-18.28-52.2-21.94-59.76S129.36,226.34,115.83,236.56Z" transform="translate(0 0.65)"/><g class="cls-14"><path class="cls-1" d="M115.83,236.56s-4,6.43-2.92,11.72,11,28.37,18.28,49.55S137,342.08,137,348.89s-.37,11.73,4.75,14.37,13.16,1.14,15.36-3.78,3.65-36.31-.37-55.22-18.28-52.2-21.94-59.76S129.36,226.34,115.83,236.56Z" transform="translate(0 0.65)"/><path class="cls-1" d="M110.45,240.59s-4,6.43-2.92,11.72,11,28.37,18.28,49.55,5.85,44.25,5.85,51.06-.36,11.73,4.75,14.38,13.17,1.13,15.36-3.79,3.66-36.31-.36-55.22-18.29-52.2-21.94-59.76S124,230.38,110.45,240.59Z" transform="translate(0 0.65)"/></g><path id="_Clipping_Path_4" data-name="&lt;Clipping Path&gt;" class="cls-7" d="M115.83,236.56s-4,6.43-2.92,11.72,11,28.37,18.28,49.55S137,342.08,137,348.89s-.37,11.73,4.75,14.37,13.16,1.14,15.36-3.78,3.65-36.31-.37-55.22-18.28-52.2-21.94-59.76S129.36,226.34,115.83,236.56Z" transform="translate(0 0.65)"/><path class="cls-1" d="M110.17,183.34a50.77,50.77,0,0,0,3,20.73c2.36,6.43,14.89,26.69,14.89,26.69s-10.51,3.91-13.51,6.61-6.6,11.41-4.8,11.71,8.4-7.21,9.91-7.81,10.2-1.2,10.2-1.2-1.79,2.47-3.19,4.73a10.26,10.26,0,0,0-1.61,3.37c0,1.51,2.1,1.21,3.3-1.2s4.81-2.1,6-7.5-.61-11.41-.61-11.41l-5.25-38.72S123,178.44,110.17,183.34Z" transform="translate(0 0.65)"/><path class="cls-1" d="M109.73,249.08s4.16-9,8.74-10.49" transform="translate(0 0.65)"/><path class="cls-1" d="M110.84,243.93s3.43-5,6.87-7.25" transform="translate(0 0.65)"/><rect class="cls-1" x="188.41" y="359.5" width="4.91" height="47.28"/><polygon class="cls-1" points="197.09 408.7 197.09 400.74 184.63 400.74 184.63 408.78 134.81 427.92 134.81 437.35 138.2 437.35 138.2 430.18 191.04 419.02 242.47 430.18 242.47 437.35 245.78 437.35 245.78 427.92 197.09 408.7"/><rect class="cls-1" x="178.59" y="359.5" width="24.54" height="15.1"/><path class="cls-9" d="M134.81,437.08a5.29,5.29,0,1,0-5.29,5.28A5.29,5.29,0,0,0,134.81,437.08Z" transform="translate(0 0.65)"/><path class="cls-1" d="M131.79,437.08a2.27,2.27,0,1,0-2.27,2.26A2.27,2.27,0,0,0,131.79,437.08Z" transform="translate(0 0.65)"/><path class="cls-9" d="M256.73,437.08a5.29,5.29,0,1,0-5.29,5.28A5.29,5.29,0,0,0,256.73,437.08Z" transform="translate(0 0.65)"/><path class="cls-1" d="M253.71,437.08a2.27,2.27,0,1,0-2.27,2.26A2.27,2.27,0,0,0,253.71,437.08Z" transform="translate(0 0.65)"/><polygon class="cls-1" points="193.13 438.48 188.97 438.48 186.9 410.17 195.2 410.17 193.13 438.48"/><rect class="cls-1" x="188.78" y="432.44" width="4.15" height="11.7"/><path class="cls-15" d="M206.49,278.08s33.16-5.23,36.3-5.75,9.13,3.66,12,5.75,15.92,9.92,14.35,10.44S262.37,287,259,285.65s-6-2.35-6-2.35a42.31,42.31,0,0,0,4.17,5c1.31,1,.79,1.83-2.87.26a18.08,18.08,0,0,1-7.83-6.27c-1.31-2.09-3.39-5.74-3.39-5.74s-28.72,10.7-33.42,12.27-12,1.57-11.75-3.4S206.49,278.08,206.49,278.08Z" transform="translate(0 0.65)"/><path class="cls-15" d="M254.8,278.08c-2.88-2.09-8.88-6.27-12-5.75-1.67.28-11.75,1.87-20.87,3.31l1.16,8.27c9.37-3.45,20-7.4,20-7.4s2.08,3.65,3.39,5.74a18.08,18.08,0,0,0,7.83,6.27c3.66,1.57,4.18.78,2.87-.26a42.31,42.31,0,0,1-4.17-5s2.61,1,6,2.35,8.62,3.39,10.18,2.87S257.67,280.16,254.8,278.08Z" transform="translate(0 0.65)"/><line class="cls-15" x1="256.62" y1="281.6" x2="269.15" y2="289.17"/><path class="cls-9" d="M232.4,195.81s7.31-4.7,6-9.92-23-13.06-33.42-10.71-13.84,13.06-16.71,20.89-14.62,41.51-14.62,41.51,8.61,9.66,19.58,4.7,20.88-31.85,25.85-37.33S232.4,195.81,232.4,195.81Z" transform="translate(0 0.65)"/><path class="cls-10" d="M224.85,178.87s4.66,3.29,6,6.3-.28,4.65-.28,4.65" transform="translate(0 0.65)"/><path class="cls-10" d="M228.41,181.88s-8.21,9-19.43,14-18.88,9-22.44,13.14" transform="translate(0 0.65)"/><path class="cls-10" d="M182.86,215.89a38.2,38.2,0,0,0-1.52,4" transform="translate(0 0.65)"/><path class="cls-10" d="M214.81,183.06a73.18,73.18,0,0,1-7.74,6.49c-7.61,5.59-17,13-22.63,23.16" transform="translate(0 0.65)"/><path class="cls-10" d="M219.11,178.05a16.33,16.33,0,0,1-1.54,2" transform="translate(0 0.65)"/><path class="cls-15" d="M192.19,223.22s-18.8,8.1-24.28,11-6.53,8.62-6.53,13.58,7.05,42.29,7.05,42.29h30.81s5.49-11,9.4-14.62,7.05-11,5.48-15.92S211,251.94,211,247s-1-11.22-5-15.14S200,221.66,192.19,223.22Z" transform="translate(0 0.65)"/><path class="cls-1" d="M257.06,365.31c.67,3.41,3.4,7.64,4.75,10.88,2.74,6.57,7.63,17,10.61,23.45,4.23,9.22,7.4,21.16,6.84,22a19.74,19.74,0,0,0-2,6.51c0,1.63,1.13,15.46,1.13,15.46h2l1.41-8.14s4.52.27,5.93,1.63,3.1,4.34,5.65,5.69,14.11,1.9,14.11,1.9,2-1.08-.56-3.25-6.5-5.15-8.75-8.41-8.76-11.12-8.76-11.12-14.68-80.52-15.81-84.05-4.8-11.11-8.19-11.93-15-1.9-15-1.9l-.57,13.83s2.67-.53,5.78,5.7C257.57,347.35,255.11,355.26,257.06,365.31Z" transform="translate(0 0.65)"/><path class="cls-12" d="M301.92,437.13c-6.71,2.23-13.66-4.44-16.73-7.93a18.39,18.39,0,0,0-7.08-4.78,14.59,14.59,0,0,0-.83,3.7c0,1.63,1.13,15.46,1.13,15.46h2l1.41-8.14s4.52.27,5.93,1.63,3.1,4.34,5.65,5.69,14.11,1.9,14.11,1.9,2-1.08-.56-3.25C305.52,440.2,303.67,438.74,301.92,437.13Z" transform="translate(0 0.65)"/><path class="cls-1" d="M265.51,320.61s12.31,3.44,11.54,6.09-19.23,57.93-26.16,70.9-9.49,23.29-8.72,26.47,7.18,13.5,9.23,15.09,7.18,4.23,6.42,4.5a110.4,110.4,0,0,1-16.42,0c-1.26-.15-8.46-8.74-9.74-9.27l-1.28-.53v9.53h-2.82l-1-14.55a22.15,22.15,0,0,1,3.85-7.42c2.56-2.91,5.13-6.08,7.43-14s10.77-48.66,12.06-56.87a64.69,64.69,0,0,1,4.61-15.35Z" transform="translate(0 0.65)"/><path class="cls-12" d="M251.4,439.16a12.83,12.83,0,0,1-1.82-2.09,12.52,12.52,0,0,1-5.87-1.09c-3.33-1.85-6.41-6.09-9.23-9.26a17.57,17.57,0,0,0-5.29-3.71,24.55,24.55,0,0,0-2.66,5.83l1,14.55h2.82v-9.53l1.28.53c1.28.53,8.48,9.12,9.74,9.27a110.4,110.4,0,0,0,16.42,0C258.58,443.39,253.46,440.75,251.4,439.16Z" transform="translate(0 0.65)"/><path class="cls-9" d="M168.43,290.06s-2.35,29-2.61,38.38S173.39,347,184.1,348s74.41-7.58,74.41-7.58L269,321.39s-30.8-7.83-41.25-10.7-20.36-4.7-20.36-4.7l-8.1-15.93Z" transform="translate(0 0.65)"/><path class="cls-5" d="M204.2,238.63l5.23,9.14s-1.83-9.66-2.88-13.06-3.91-2.35-3.91-.52a25.61,25.61,0,0,0,1.07,5.32" transform="translate(0 0.65)"/><path class="cls-15" d="M204.92,206.79l-9,14.41,7.8,18.31s4.81-11.11,7.21-13.81,6.6-6.6,6.6-6.6-7.5-9-8.1-11.41S205.52,204.39,204.92,206.79Z" transform="translate(0 0.65)"/><polygon class="cls-5" points="194.28 219.18 189.58 223.88 197.94 247.9 204.2 239.28 194.28 219.18"/><path class="cls-15" d="M165.3,256.9s13.58,30.55,16.45,36.82,9.14,7.57,14.88,7.57,41.78-1,41.78-1,19.84.78,23.23,0,8.88-5.49,9.92-5.49,6.79,5.22,8.1,5.22,2.09-.78,1-2.61-5.22-9.92-8.09-10.18S257.47,295,257.47,295s-20.37-2.87-31.07-5.74-27.42-9.4-27.42-9.4-6.79-12.53-9.66-20.1-3.39-17.76-8.61-21.94-11.75.53-11.75.53" transform="translate(0 0.65)"/><path class="cls-15" d="M272.61,287.19c-2.87-.26-15.14,7.83-15.14,7.83s-10.21-1.44-20-3.3l.26,8.54h.65s19.84.78,23.23,0,8.88-5.49,9.92-5.49,6.79,5.22,8.1,5.22,2.09-.78,1-2.61S275.48,287.45,272.61,287.19Z" transform="translate(0 0.65)"/><path class="cls-15" d="M272.09,291.89s7.05,5,8.61,7.31" transform="translate(0 0.65)"/><line class="cls-15" x1="272.87" y1="290.19" x2="279.14" y2="295.41"/><path class="cls-15" d="M231.63,189.68a84.37,84.37,0,0,1,2,8.78c.3,2.7-1.8,4.2-.9,5.7s3.21,6.2,2,6.81a9.24,9.24,0,0,1-3.3.6s-5.5,10.23-6.7,12-9.61-2.4-13.51-4.2-4.2-10.51-4.2-10.51l-.3-6S225.63,196,231.63,189.68Z" transform="translate(0 0.65)"/><path class="cls-15" d="M227.23,199.57c3.89-4.72,3.84.5,3.84.5" transform="translate(0 0.65)"/><path class="cls-4" d="M229.09,205.18c-.35,1.1-1,1.88-1.43,1.74s-.51-1.14-.17-2.24,1-1.87,1.43-1.73S229.43,204.09,229.09,205.18Z" transform="translate(0 0.65)"/><path class="cls-15" d="M208.82,205.29s-2.1-7.51-4.51-6-3.6,7.21-1.2,10.21,6.31,1.2,6.31,1.2" transform="translate(0 0.65)"/><path id="_Clipping_Path_5" data-name="&lt;Clipping Path&gt;" class="cls-13" d="M226.64,363.64l-67.83,2.14a5.7,5.7,0,0,1-5.88-5.52l-.31-9.73a5.7,5.7,0,0,1,5.52-5.88L226,342.51a5.7,5.7,0,0,1,5.88,5.52l.31,9.73A5.7,5.7,0,0,1,226.64,363.64Z" transform="translate(0 0.65)"/><g class="cls-16"><path class="cls-17" d="M226.64,363.64l-67.83,2.14a5.7,5.7,0,0,1-5.88-5.52l-.31-9.73a5.7,5.7,0,0,1,5.52-5.88L226,342.51a5.7,5.7,0,0,1,5.88,5.52l.31,9.73A5.7,5.7,0,0,1,226.64,363.64Z" transform="translate(0 0.65)"/><path class="cls-17" d="M226.64,369.26l-67.83,2.14a5.7,5.7,0,0,1-5.88-5.51l-.31-9.74a5.69,5.69,0,0,1,5.52-5.87L226,348.13a5.7,5.7,0,0,1,5.88,5.52l.31,9.73A5.7,5.7,0,0,1,226.64,369.26Z" transform="translate(0 0.65)"/></g><path id="_Clipping_Path_6" data-name="&lt;Clipping Path&gt;" class="cls-7" d="M226.64,363.64l-67.83,2.14a5.7,5.7,0,0,1-5.88-5.52l-.31-9.73a5.7,5.7,0,0,1,5.52-5.88L226,342.51a5.7,5.7,0,0,1,5.88,5.52l.31,9.73A5.7,5.7,0,0,1,226.64,363.64Z" transform="translate(0 0.65)"/><path class="cls-1" d="M205.39,355.92a2.81,2.81,0,0,1-1-.21,2.74,2.74,0,0,1-1.47-3.58c4.4-10.61,9.46-29.57,4.28-35.22-1.21-.83-8.49-2.6-47.76,1l-2.86.26c-2.74.21-5.08,3.7-5.69,4.91a2.73,2.73,0,0,1-4.89-2.45c.38-.76,3.89-7.44,10.16-7.92l2.78-.25c41.84-3.84,49.86-1.91,52.3.75,9.21,10.06-2,37.88-3.27,41A2.74,2.74,0,0,1,205.39,355.92Z" transform="translate(0 0.65)"/></g><g id="Table"><rect class="cls-18" x="229.52" y="303.65" width="215.46" height="15.1"/><rect class="cls-15" x="270.21" y="297.57" width="46.91" height="10.21"/><rect class="cls-11" x="361.19" y="287.92" width="46.91" height="7.57"/><rect class="cls-11" x="363.08" y="280.35" width="46.91" height="7.56"/><rect class="cls-11" x="364.02" y="295.3" width="46.91" height="12.48"/><rect class="cls-6" x="229.52" y="304" width="215.46" height="7.19"/><path class="cls-18" d="M230.7,443.63h0a1.5,1.5,0,0,1-1.5-1.49l-1-138.8h5l-1,138.8A1.5,1.5,0,0,1,230.7,443.63Z" transform="translate(0 0.65)"/><path class="cls-18" d="M443.67,443.63h0a1.49,1.49,0,0,1-1.49-1.49l-1-138.8h5l-1,138.8A1.49,1.49,0,0,1,443.67,443.63Z" transform="translate(0 0.65)"/><path class="cls-15" d="M346,300.86H322.79a1.68,1.68,0,0,1,0-3.36H346a4,4,0,0,0,3.83-5l-8.24-29.52a1.68,1.68,0,0,1,3.24-.9l8.24,29.52a7.33,7.33,0,0,1-7.07,9.3Z" transform="translate(0 0.65)"/><rect class="cls-15" x="333.78" y="223.55" width="5.3" height="68.47" transform="translate(33.05 -37.54) rotate(6.83)"/><path class="cls-18" d="M343.13,224.11s9.34,33.33-8.15,68Z" transform="translate(0 0.65)"/><path class="cls-15" d="M298.74,296.94a6.1,6.1,0,0,1-2.79-.74,7.26,7.26,0,0,1-4-7,4.55,4.55,0,0,1,1.85-3.47c2.32-1.66,5.85-.85,6.24-.75a1.34,1.34,0,1,1-.65,2.61c-.69-.17-2.92-.47-4,.32a1.89,1.89,0,0,0-.74,1.51,4.62,4.62,0,0,0,2.57,4.36,2.38,2.38,0,0,0,2.42.17,1.34,1.34,0,1,1,1.72,2.06A4,4,0,0,1,298.74,296.94Z" transform="translate(0 0.65)"/><path class="cls-15" d="M311.06,299.24c-1.74,1.45-7.33,1.45-9.07,0-3.13-2.59-3-15.95-3-15.95h15.13S314.19,296.65,311.06,299.24Z" transform="translate(0 0.65)"/><rect class="cls-18" x="224.23" y="300.69" width="226.04" height="6.26"/></g></svg>