<svg id="Table" xmlns="http://www.w3.org/2000/svg" viewBox="0 0 486.06 358.36"><defs><style>.cls-1,.cls-13,.cls-6,.cls-7{fill:#fff;}.cls-1,.cls-12,.cls-13,.cls-4,.cls-6{stroke:#0b0c3d;}.cls-1,.cls-13{stroke-linecap:round;stroke-linejoin:round;}.cls-2{fill:#0b0c3d;}.cls-3{fill:#de5e5e;}.cls-4,.cls-8{fill:#eebebe;}.cls-12,.cls-4,.cls-6{stroke-miterlimit:10;}.cls-5{fill:#9177e8;}.cls-9{fill:#1d1343;}.cls-10{fill:#403957;}.cls-11{fill:#5c4d6c;}.cls-12{fill:none;}.cls-13{stroke-width:1.44px;}</style></defs><title>image-3</title><path class="cls-1" d="M466.49,399.12a8.4,8.4,0,0,0,7.54-2.34,6.9,6.9,0,0,0,2.1-4.51v-.07c0-11.22,13.74-10.47,18.17-24.18s-13.06-14.87-23.05-6.4c-7.18,6.09-15.79-2.42-26.23,4.68-9.06,6.16-4,21.34-18.87,16.59-4.75-1.51-9-.05-12.58,2.64a21.28,21.28,0,0,0-7.94,12.15l1.18.84C436.13,416.49,449.33,396.26,466.49,399.12Z" transform="translate(-9.44 -74.07)"/><path class="cls-2" d="M437.45,398.52l38.86-24.94a1.12,1.12,0,0,0-1.21-1.89l-41.8,26.83Z" transform="translate(-9.44 -74.07)"/><path class="cls-3" d="M435.35,324.31c-1.64-24.45-1.91-50.09-.09-67.09,2.38-22.21,7.76-37.67,16-46a1.4,1.4,0,0,1,2,2c-14.39,14.48-19.56,53.35-15,112.49Z" transform="translate(-9.44 -74.07)"/><path class="cls-3" d="M439,237.6s-11.71,0-10.87-20.61C428.16,217,446.08,222.1,439,237.6Z" transform="translate(-9.44 -74.07)"/><path class="cls-3" d="M438.05,248.2s-.63-11.7,20-12C458,236.19,453.92,254.37,438.05,248.2Z" transform="translate(-9.44 -74.07)"/><path class="cls-3" d="M447,219.31s-4.5-10.82,14.83-18C461.84,201.33,464,219.84,447,219.31Z" transform="translate(-9.44 -74.07)"/><path class="cls-3" d="M435.42,269.45s-11,3.94-17.21-15.72C418.21,253.73,436.81,252.48,435.42,269.45Z" transform="translate(-9.44 -74.07)"/><path class="cls-3" d="M436.06,280.39s-2.65-11.41,17.59-15.28C453.65,265.11,452.75,283.73,436.06,280.39Z" transform="translate(-9.44 -74.07)"/><path class="cls-3" d="M435.44,295.47s-11,4.15-17.5-15.39C417.94,280.08,436.5,278.47,435.44,295.47Z" transform="translate(-9.44 -74.07)"/><path class="cls-1" d="M95.52,378.8l-3.2-.12-1.69-.07-4.79-.19s-44.32-75.24-16.56-99.77c8.55-7.56,23.49-1.29,20.19,33.42C86.41,344.25,95.52,378.8,95.52,378.8Z" transform="translate(-9.44 -74.07)"/><path class="cls-2" d="M92.32,378.68l-1.69-.07C82.89,360.38,79,340.8,77.05,327.05a238.81,238.81,0,0,1-2.41-28.29.77.77,0,0,1,1.53,0,236.94,236.94,0,0,0,2.4,28.11C80.52,340.67,84.47,360.42,92.32,378.68Z" transform="translate(-9.44 -74.07)"/><path class="cls-4" d="M104.32,393.87,100,395.48l-2.3.86-6.52,2.41S-10,322.92,13.46,274.66c7.21-14.85,30.67-14.81,45.6,33.42C72.9,352.78,104.32,393.87,104.32,393.87Z" transform="translate(-9.44 -74.07)"/><path class="cls-2" d="M100,395.48l-2.3.86c-20.5-20-36.63-44-46.88-61.33a346.23,346.23,0,0,1-19-36.45,1.11,1.11,0,1,1,2-.87,343.78,343.78,0,0,0,18.87,36.22C63,351.28,79.31,375.46,100,395.48Z" transform="translate(-9.44 -74.07)"/><path class="cls-4" d="M450,398.17a27.9,27.9,0,0,0-.64-5.27c-3.63-16.65,6.26-19.79,19.3-25S483.28,347,474.05,334s7.35-23.41,1.24-42.94-27.33-6.54-32,11.47c-3.34,12.94-20.3,10.14-26.58,26.93-5.46,14.57,12.83,28-8.3,34.72C401.7,366.32,398,371.5,396,377.56a30.2,30.2,0,0,0,.76,20.61Z" transform="translate(-9.44 -74.07)"/><path class="cls-2" d="M424.19,398.17,459,312.26a1.59,1.59,0,0,0-2.95-1.19l-35.28,87.1Z" transform="translate(-9.44 -74.07)"/><path class="cls-2" d="M134.26,138.46S135,123,125.58,120c-14.65-4.63-18.72,3-21,8-2.9,6.43-1.67,19,7.07,20.26C124.72,150.1,133.45,142.78,134.26,138.46Z" transform="translate(-9.44 -74.07)"/><path class="cls-2" d="M143.7,190.18a16.08,16.08,0,0,0,15.74-12.79c1.13-5.36,2.22-10.12,2.22-12.78v-.07q.1-1.28.12-2.52c.1-12.21-7.43-34.49-33.89-31,0,0-22,2.5-24.46,24,0,0-1,9.9-1.73,17.07,0,.13,0,.25,0,.38a16.09,16.09,0,0,0,16,17.7Z" transform="translate(-9.44 -74.07)"/><path class="cls-1" d="M175.11,215.68s4.68,37.07,10,56.1c0,0,7.59-3.53,17.53-8.34,10.78-5.2,26.27-14.7,26.27-14.7l3.92,9.43s-40,37.77-53.28,39.91-21.38-45.33-21.38-45.33Z" transform="translate(-9.44 -74.07)"/><path class="cls-1" d="M228.12,249.84s-1.1-5.26,1.26-8.83,5.94-10.23,10.16-11.63c3.52-1.16-1.68,4.79-1.83,8.56a58.71,58.71,0,0,0,9-1.88c3.33-1.08,9.91-2.43,13-3a.84.84,0,0,1,.73,1.45c-1,.9-3.21,2-7.71,3.12,0,0,11-2.08,12.1-.4s-12.62,4-12.62,4,10.67-.63,10.95,1c.17,1-10.89,3.36-10.89,3.36s10.09.27,7.65,1.86c-.71.46-20.24,2.66-27,10.69C232.86,258.17,228.29,253.44,228.12,249.84Z" transform="translate(-9.44 -74.07)"/><path class="cls-1" d="M107.63,208.38S85.24,215,66,219.33c0,0-.51-8.36-1-19.38-.55-12,.44-30.11.44-30.11l-10.16,1S41,224.06,45.47,236.74s60.62-5.09,60.62-5.09Z" transform="translate(-9.44 -74.07)"/><path class="cls-1" d="M64.81,171.09S70,169.55,72,165.78s7.57-11.35,4.14-14.16c-1.25-1-2.16,3.45-5.4,5.38a59.41,59.41,0,0,1-2.64-8.84c-.63-3.44-2.57-9.87-3.5-12.84a.84.84,0,0,0-1.62.05c-.3,1.34-.26,3.8.93,8.27,0,0-3.39-10.63-5.41-10.83s2.46,13,2.46,13-4.52-9.69-6.12-9.14c-1,.34,2.23,11.17,2.23,11.17s-5-8.74-5.28-5.84c-.07.85,7.29,19.07,3.46,28.88C55.23,170.89,61.56,172.66,64.81,171.09Z" transform="translate(-9.44 -74.07)"/><path class="cls-1" d="M174.28,359.31l.18.79C157,371.91,91.8,363.85,91.8,363.85c.12-1.37.26-2.8.45-4.28.2-1.65.46-3.36.75-5.13.78-4.75,1.84-9.88,3-15.16.38-1.66.76-3.35,1.16-5,1.18-5,2.43-10.15,3.62-15.13q.61-2.57,1.2-5.08c.55-2.33,1.06-4.62,1.55-6.85.65-2.95,1.22-5.79,1.7-8.47.32-1.8.6-3.52.82-5.16s.42-3.37.52-4.89c-1-3.83-2-7.58-2.9-11.22q-.67-2.78-1.32-5.46c-1.34-5.73-2.52-11.19-3.54-16.3-.37-1.86-.73-3.67-1.06-5.43-1.14-6-2.06-11.48-2.8-16.24-.29-1.9-.56-3.67-.79-5.34-.26-1.83-.49-3.52-.68-5.06-.88-6.75-1.18-10.57-1.18-10.57.15-.13.32-.24.48-.36a35.16,35.16,0,0,1,8.51-3.9c3.63-1.25,7.64-2.33,11.18-3.18l1.57-.38c4.65-1.08,8.13-1.71,8.13-1.71,15.81,3.31,20.32,1.18,20.32,1.18l8,2.37.95.33,5.85,2.06.24.09,10.51,3.69,7,2.46-2.72,12.55-1.18,5.47-3.58,16.51-1.18,5.46-3.57,16.45-1.17,5.41-3,13.63.59,2.6,1.15,5.06,1.83,8,1.66,7.27,1.14,5,3.45,15.15,1.14,5,3.42,15Z" transform="translate(-9.44 -74.07)"/><path class="cls-1" d="M151.51,207.38c-1.69,9.89-6.48,19.83-16.44,20.9-12,1.31-18.28-13.79-21-23.07,4.65-1.08,9.47-2.14,9.47-2.14,15.81,3.31,18.86,1.29,18.86,1.29l8.16,2.69Z" transform="translate(-9.44 -74.07)"/><path class="cls-2" d="M133.84,220c-12.61,0-15.63-15.58-15.66-15.74a.62.62,0,0,1,.5-.72.63.63,0,0,1,.73.5c.11.62,3,15.32,15.17,14.7,10.67-.54,11.29-12.38,11.32-12.89a.61.61,0,0,1,.64-.59.62.62,0,0,1,.6.64c0,.14-.69,13.48-12.5,14.08C134.37,220,134.1,220,133.84,220Z" transform="translate(-9.44 -74.07)"/><polygon class="cls-5" points="171.36 324.07 170.72 320.24 168.24 305.36 167.39 300.26 165.02 286.03 160.7 286.23 103.53 288.82 82.37 289.77 81.01 300.84 80.37 305.99 78.49 321.27 78.14 324.07 171.36 324.07"/><path class="cls-2" d="M180.8,398.14l-.59-3.46,0-.37-.42-2.45-.41-2.42-1.67-10-.49-3-.36-2.14,0-.31-2.16-13-.14-.92-.2-.8-.17-.7-1-4.3-1.92-8.39-.55-2.4-.95-4.2-1.14-5-.78-3.44-.55-2.4-2.11-9.3-.78-3.39-.36-1.65-.17-.75-1.48-6.53c-23.24,6.87-47.86,2.79-58.78.34-.48,2.21-1,4.51-1.55,6.84l-.36,1.53c-.2.8-.39,1.6-.59,2.4-.07.39-.17.75-.26,1.14-.9,3.81-1.85,7.69-2.77,11.55-.19.8-.36,1.6-.56,2.38-.09.41-.19.8-.29,1.21-.38,1.7-.77,3.39-1.16,5-.49,2.21-1,4.37-1.38,6.5-.17.8-.34,1.58-.49,2.36-.44,2.16-.82,4.27-1.16,6.3-.3,1.78-.54,3.47-.73,5.15-.07.51-.12,1-.2,1.5-.07.83-.16,1.63-.24,2.43,0,.12,0,.21,0,.34l-1.36,11.06-.22,1.72-.29,2.4-.12,1-1.5,12.1-.3,2.43-.09.78-.34,2.78Z" transform="translate(-9.44 -74.07)"/><path class="cls-6" d="M152.68,166s3.78-4.79,6.59-.83-1.17,15.66-8.05,12.8Z" transform="translate(-9.44 -74.07)"/><path class="cls-2" d="M152.73,174.37a.59.59,0,0,0,.56-.4c1.06-3.61,5-5.08,5-5.09a.56.56,0,0,0,.34-.72.61.61,0,0,0-.75-.32c-.19.07-4.53,1.67-5.75,5.83a.54.54,0,0,0,.4.68Z" transform="translate(-9.44 -74.07)"/><path class="cls-2" d="M156.7,172.55a.56.56,0,0,0,.31-.09.54.54,0,0,0,.18-.76A5.32,5.32,0,0,0,155,170a.59.59,0,0,0-.77.28.54.54,0,0,0,.29.73,4.17,4.17,0,0,1,1.68,1.26A.6.6,0,0,0,156.7,172.55Z" transform="translate(-9.44 -74.07)"/><path class="cls-7" d="M151,177.91a4.09,4.09,0,1,0,5.58-.49,4.12,4.12,0,0,0-1.65-.78.75.75,0,0,1,.15-.78,4.92,4.92,0,0,1,3.85,4.77,4.89,4.89,0,1,1-9.77,0,4.84,4.84,0,0,1,1.09-3.06Z" transform="translate(-9.44 -74.07)"/><path class="cls-6" d="M123.54,190.48v14.35s6.67,5.14,11.87,5.59,7-5.68,7-5.68V191.39Z" transform="translate(-9.44 -74.07)"/><path class="cls-8" d="M124.08,191.89v5.72c3.29,3.87,9.13,5.25,17.78,3.89v-8.71Z" transform="translate(-9.44 -74.07)"/><path class="cls-6" d="M155,171.47c-.17,1.38-.36,2.79-.61,4.2-1.65,9.33-7.55,19.41-15,21.1-16.1,3.65-22.78-9-25.35-18.31-.28-1,.25-2.23,0-3.45-.53-2.91-1.7-6.21-2-9.46-.18-2.26-.32-4.49-.41-6.5a13.16,13.16,0,0,1,8.16-12.91c7.39-2.94,18.63-5.27,29.27,1a13.28,13.28,0,0,1,6.48,11.24A98.64,98.64,0,0,1,155,171.47Z" transform="translate(-9.44 -74.07)"/><path class="cls-2" d="M134.54,178.69a.62.62,0,0,1-.1-1.24l2.15-.36-3-7.88a.63.63,0,1,1,1.17-.44l3.49,9.3-3.64.61Z" transform="translate(-9.44 -74.07)"/><path class="cls-2" d="M142.24,168.27c0,1.37.71,2.49,1.59,2.49s1.58-1.12,1.58-2.49-.71-2.5-1.58-2.5S142.24,166.89,142.24,168.27Z" transform="translate(-9.44 -74.07)"/><path class="cls-2" d="M124.72,168.27c0,1.37.71,2.49,1.59,2.49s1.58-1.12,1.58-2.49-.71-2.5-1.58-2.5S124.72,166.89,124.72,168.27Z" transform="translate(-9.44 -74.07)"/><path class="cls-2" d="M148.49,161.73a30.77,30.77,0,0,0-6.6-.57c-.72,0-1.3.57-1.2,1.15h0a1,1,0,0,0,1.15.73c1.87-.14,6.76-.11,9,.57a1.15,1.15,0,0,0-.48-1A3.7,3.7,0,0,0,148.49,161.73Z" transform="translate(-9.44 -74.07)"/><path class="cls-2" d="M123,162a30.72,30.72,0,0,1,6.59-.66c.72,0,1.31.56,1.22,1.13v0a1,1,0,0,1-1.14.74c-1.88-.12-6.77,0-9,.69a1.19,1.19,0,0,1,.47-1A3.71,3.71,0,0,1,123,162Z" transform="translate(-9.44 -74.07)"/><path class="cls-6" d="M142.24,182.41c-.46,2.19-2,6.22-7.19,6.22s-6.66-3.68-7.16-6.22Z" transform="translate(-9.44 -74.07)"/><path class="cls-2" d="M135.13,192.4a6.22,6.22,0,0,0,2.87-.84.62.62,0,0,0,.2-.85.63.63,0,0,0-.84-.2h0a4.87,4.87,0,0,1-2.23.66,5.19,5.19,0,0,1-2.36-.66.61.61,0,1,0-.63,1.05A6.41,6.41,0,0,0,135.13,192.4Z" transform="translate(-9.44 -74.07)"/><path class="cls-2" d="M155.6,170c-.15.13-.29.09-.43-.16-2.13-3.75-.13-11.22-6.42-14.09a13.31,13.31,0,0,1-6.51-6.67,13.57,13.57,0,0,1-4,3.6,113.66,113.66,0,0,1-14.75,7.18,24.43,24.43,0,0,0-4.94,2.49l.13,0s-2.08,3.39-.56,8.64S117.74,185,114.35,187c.06-.15,2.6-6.14,1.17-11-.83-2.8-.82-7.26-1.6-9.94-.87-.59-2.87-1.6-3.55-2-.2-2.3-.34-4.57-.43-6.62a13.41,13.41,0,0,1,8.59-13.17c7.8-3,19.64-5.37,30.86,1a13.5,13.5,0,0,1,6.84,11.46A98,98,0,0,1,155.6,170Z" transform="translate(-9.44 -74.07)"/><path class="cls-6" d="M113.92,166s-4.4-5.33-7-1.48,1.23,15.63,7.58,12.86Z" transform="translate(-9.44 -74.07)"/><path class="cls-7" d="M114.09,177.54a4.06,4.06,0,0,1,.36,2.9,4.1,4.1,0,1,1-5.66-4.73,4.07,4.07,0,0,1,1.79-.36.94.94,0,0,0,0-.79,4.93,4.93,0,0,0-2.28.49,4.89,4.89,0,1,0,6.55,2.34Z" transform="translate(-9.44 -74.07)"/><path class="cls-2" d="M113,173.41a.53.53,0,0,1-.51-.39c-1-3.51-4.62-4.93-4.66-5a.53.53,0,0,1,.38-1,9.23,9.23,0,0,1,5.31,5.66.54.54,0,0,1-.37.66Z" transform="translate(-9.44 -74.07)"/><path class="cls-2" d="M109.3,171.64a.6.6,0,0,1-.29-.08.55.55,0,0,1-.16-.75,4.85,4.85,0,0,1,2-1.62.54.54,0,1,1,.44,1,3.87,3.87,0,0,0-1.55,1.22A.54.54,0,0,1,109.3,171.64Z" transform="translate(-9.44 -74.07)"/><path class="cls-1" d="M346.72,281.77c-10.23,7.35-26.23,12.38-26.23,12.38l-3.28-11.78-2.55-9.2-1.81-6.48H294.51c1,3.44,2,6.95,3.05,10.41,1.32,4.46,2.65,8.83,3.9,12.85,1.77,5.67,3.4,10.65,4.72,14.21.31.84.66,1.74,1.06,2.71,2.45,6.62,4.43,13.8,13.79,9.29,8.24-4,19.41-9.46,25-13.11Z" transform="translate(-9.44 -74.07)"/><path class="cls-4" d="M293.67,212.77S312.8,258.4,321,273.18c0,0-11.53,9.8-22.77,10.07C298.26,283.25,291.79,233.15,293.67,212.77Z" transform="translate(-9.44 -74.07)"/><path class="cls-2" d="M248.87,398.18c.19-3.2.38-6.24.54-9.05.68-11.52,1.11-19.38,1.11-19.38l-4.51-.21-2.54-.11-30.67-1.36s-.55,8.79-1.21,21.7c-.14,2.64-.28,5.46-.42,8.41Z" transform="translate(-9.44 -74.07)"/><path class="cls-1" d="M244.4,398.18c.71-12.31,1.3-22.85,1.62-28.63l-2.55-.12c-.32,5.81-.9,16.4-1.61,28.75Z" transform="translate(-9.44 -74.07)"/><path class="cls-2" d="M258.76,398.18h37.69c-.13-2.95-.27-5.77-.41-8.41-.66-12.91-1.21-21.7-1.21-21.7l-30.67,1.36-2.54.11-4.52.21s.44,7.86,1.12,19.38C258.38,391.94,258.56,395,258.76,398.18Z" transform="translate(-9.44 -74.07)"/><path class="cls-1" d="M265.77,398.18c-.71-12.35-1.3-22.94-1.61-28.75l-2.55.12c.32,5.78.9,16.32,1.61,28.63Z" transform="translate(-9.44 -74.07)"/><path class="cls-1" d="M206.15,346.2c0,.63,0,1.26,0,1.87,0,11.22.07,19.91.12,24.17A178.35,178.35,0,0,0,238.78,378l1.47.11.79.05,1.74.11,1.94.11a173.8,173.8,0,0,0,22.12-.4c1.49-.13,3-.27,4.46-.43l.29,0,1.14-.13.68-.09a179.86,179.86,0,0,0,25.74-5c0-1.93,0-4.81,0-8.43v-2.09h0c0-5.18,0-11.63-.1-18.92,0-.63,0-1.25,0-1.89,0-4.85-.09-10.05-.16-15.48,0-.62,0-1.25,0-1.88-.07-5.56-.15-11.34-.25-17.2-.06-3.58-.12-7.19-.2-10.81s-.15-7.33-.24-11c0-.79,0-1.58-.06-2.38-.84-34.47-2.29-66.15-4.69-69.68-1.67-2.45-5.48-5.32-10-8.22l-1.67-1.06c-1.92-1.2-17.54-6.5-19.52-7.67l-16.51-1.15c-.1.06-15.88,5.38-16,5.44l-2,1.17c-5.84,3.37-11.61,6.92-14.93,10a17.5,17.5,0,0,0-1.29,1.31,9.13,9.13,0,0,0-.77,1,5,5,0,0,0-.57,1.45c-2,7.26-3.05,35.78-3.57,66.81q-.06,3.34-.1,6.7c0,1,0,2,0,3q0,1,0,2c0,.34,0,.68,0,1,0,1.69,0,3.37,0,5.05,0,1.24,0,2.48,0,3.71C206.18,318.65,206.13,333.83,206.15,346.2Z" transform="translate(-9.44 -74.07)"/><path class="cls-1" d="M176.63,390.52c-.41,4.41,5,2,3.44-6.91s2.79-17,4.64-16.75-1.53,9.75.12,13.16,3.78-3.22,5.9-7.25,2.07-13.31,1.07-19.83,10.81-46.1,10.87-57.57l1.44-4.86,5.27-17.8,8.24-27.88s-4.94-21.11-13.27-19.29c0,0-4.41,14.7-9.12,31.27-.8,2.82-1.61,5.69-2.41,8.55-3.36,12-6.51,23.88-8,30.92-3.88,18.59-4.18,57.23-4.18,57.23s-6.83,14.2-7,20.51C173.5,380.76,177,386.11,176.63,390.52Z" transform="translate(-9.44 -74.07)"/><path class="cls-4" d="M192.26,257.87c5,8.48,10,16.93,15,25.38,1.65-5.53,3.36-10.84,5-15.72,0,0,0,0,0,0l1.87-5.63a.36.36,0,0,1,0-.09c.2-.63.41-1.26.61-1.87h0c2.4-7.24,4.25-13,4.78-16.35,1.43-9-2.47-26.71-8-30.2h0c-.14.32-.57-.67-.83-.07-1,2.23-5.25,7.74-7.36,13.1-.28.68-.55,1.39-.84,2.11C199.48,236.38,195.73,246.64,192.26,257.87Z" transform="translate(-9.44 -74.07)"/><path class="cls-2" d="M231.45,157.93s-6.06-6.68-3.77-14.44,8.54-7.68,8.54-7.68,3.65-8.27,9.86-8.54S258.16,116,263.81,119s-.61,9.54-.61,9.54,9.69-10.22,12.88-7.22-4.43,11-4.43,11,8.14-5.72,10.81-3.54-6.38,11.58-6.38,11.58,5.86,10.56,0,15.3Z" transform="translate(-9.44 -74.07)"/><path class="cls-6" d="M273.78,160.17s3.87-5.17,6.75-.9-1.19,16.89-8.24,13.81Z" transform="translate(-9.44 -74.07)"/><path class="cls-2" d="M273.83,169.18a.59.59,0,0,0,.57-.44c1.09-3.89,5.13-5.47,5.17-5.48a.6.6,0,0,0-.42-1.12c-.19.07-4.64,1.8-5.9,6.28a.6.6,0,0,0,.41.74Z" transform="translate(-9.44 -74.07)"/><path class="cls-2" d="M277.9,167.22a.55.55,0,0,0,.32-.1.59.59,0,0,0,.18-.82,5.31,5.31,0,0,0-2.24-1.8.6.6,0,0,0-.79.3.59.59,0,0,0,.31.78,4.51,4.51,0,0,1,1.72,1.36A.58.58,0,0,0,277.9,167.22Z" transform="translate(-9.44 -74.07)"/><path class="cls-6" d="M233.85,160.17s-3.87-5.17-6.75-.9,1.19,16.89,8.24,13.81Z" transform="translate(-9.44 -74.07)"/><path class="cls-2" d="M233.81,169.18a.61.61,0,0,1-.58-.44c-1.09-3.89-5.13-5.47-5.17-5.48a.6.6,0,0,1,.43-1.12c.18.07,4.63,1.8,5.89,6.28a.6.6,0,0,1-.41.74Z" transform="translate(-9.44 -74.07)"/><path class="cls-2" d="M229.73,167.22a.55.55,0,0,1-.32-.1.59.59,0,0,1-.18-.82,5.4,5.4,0,0,1,2.24-1.8.6.6,0,0,1,.79.3.59.59,0,0,1-.3.78,4.49,4.49,0,0,0-1.73,1.36A.58.58,0,0,1,229.73,167.22Z" transform="translate(-9.44 -74.07)"/><path class="cls-6" d="M244.28,183.78v12.54s3.74,6.39,8.8,6.83,9.55-5.5,9.55-5.5v-13Z" transform="translate(-9.44 -74.07)"/><path class="cls-8" d="M244.76,183.78v5.56c3.21,3.77,8.89,4.71,17.31,3.39v-8.07Z" transform="translate(-9.44 -74.07)"/><path class="cls-6" d="M231.06,151.56a121.13,121.13,0,0,0,1.62,15.84v0a.43.43,0,0,1,0,.05h0c.22,1.19.48,2.3.76,3.31.17.59.36,1.21.56,1.84,3,9.33,9.86,22.83,27.18,16.65,7.29-2.59,11.09-10.12,13-18.29.11-.49.22-1,.31-1.44.07-.3.13-.6.19-.9l.08-.43c0-.08,0-.13,0-.16v0a89.32,89.32,0,0,0,1.24-17.17,13.09,13.09,0,0,0-6.65-11.14c-10.91-6.19-22.42-3.88-30-1A13,13,0,0,0,231.06,151.56Z" transform="translate(-9.44 -74.07)"/><path class="cls-2" d="M232.68,167.4v0a.43.43,0,0,1,0,.05h0c.11.4.72,2.64,1.32,5.15,3,9.33,9.86,22.83,27.18,16.65,7.29-2.59,11.09-10.12,13-18.29.11-.49.22-1,.31-1.44.07-.3.13-.6.19-.9l.08-.43c0-.08,0-.13,0-.16v0l-2.54-.52a19.37,19.37,0,0,1-2.89,6.7c-2.15-5.16-13.08-1.73-13.08-1.73l-.05,0a6.82,6.82,0,0,1-4.13,0s-10.8-3.58-13,1.34a68.8,68.8,0,0,1-3.76-6.6l-2.66.18Zm21.52,7.42c12.36-1.67,10.42,5,10.42,5a20.52,20.52,0,0,1-3.48,2.63,14.08,14.08,0,0,1-7.27,2c-1.9-.08-2.42.31-7.21-2.28a12.33,12.33,0,0,1-2.55-1.93h0C243.9,178.9,241.81,172.69,254.2,174.82Z" transform="translate(-9.44 -74.07)"/><path class="cls-2" d="M243,160.63c0,1.34.69,2.43,1.54,2.43s1.54-1.09,1.54-2.43-.69-2.42-1.54-2.42S243,159.29,243,160.63Z" transform="translate(-9.44 -74.07)"/><path class="cls-2" d="M262.27,160.63c0,1.34.69,2.43,1.54,2.43s1.54-1.09,1.54-2.43-.69-2.42-1.54-2.42S262.27,159.29,262.27,160.63Z" transform="translate(-9.44 -74.07)"/><path class="cls-2" d="M239.06,152.46s6.37-2.52,11.27-.4l-.49,2.73s-7.2-.61-10.83.86A4.73,4.73,0,0,1,239.06,152.46Z" transform="translate(-9.44 -74.07)"/><path class="cls-2" d="M269.34,152.47s-6.42-2.54-11.36-.4l.5,2.75s7.25-.62,10.9.86A4.72,4.72,0,0,0,269.34,152.47Z" transform="translate(-9.44 -74.07)"/><path class="cls-2" d="M253.61,171.47a6.5,6.5,0,0,1-2.16-.45.6.6,0,0,1,.45-1.11,3.6,3.6,0,0,0,2.39.23.66.66,0,0,0,.3-.56c.21-2.08-.36-9.05-.36-9.12a.59.59,0,1,1,1.18-.1,85.72,85.72,0,0,1,.36,9.35,1.8,1.8,0,0,1-.87,1.45A2.49,2.49,0,0,1,253.61,171.47Z" transform="translate(-9.44 -74.07)"/><path class="cls-6" d="M261.21,176c-.46,2.28-2,6.46-7,6.46s-6.5-3.82-7-6.46Z" transform="translate(-9.44 -74.07)"/><path class="cls-2" d="M231.05,151.56a123.42,123.42,0,0,0,1.63,15.85l2.66-.19s-.64-4.12-.94-6.8-.8-7.69,1.49-8.32.94-6.34,4.12-8.82,10.28-3.16,15-.28,10-.22,12.12.28,5.1,3.48,4.3,6.26,1.59,4.47,2.17,7.35-1.27,10.62-1.27,10.62l2.54.52a89.38,89.38,0,0,0,1.24-17.17,13.09,13.09,0,0,0-6.65-11.14c-10.91-6.19-22.42-3.88-30-1A13.07,13.07,0,0,0,231.05,151.56Z" transform="translate(-9.44 -74.07)"/><path class="cls-2" d="M253.3,210.91c7.15,0,12.19-6.53,12.4-6.8a1,1,0,0,0-.13-1.3.83.83,0,0,0-1.21.13c-.07.09-4.76,6.12-11.06,6.12s-10-6.83-10.07-6.9a.83.83,0,0,0-1.18-.33,1,1,0,0,0-.31,1.26C241.91,203.41,246.06,210.91,253.3,210.91Z" transform="translate(-9.44 -74.07)"/><path class="cls-1" d="M340.72,285.79c-1.62,14.78-11.27,47.79-18,54.25-8.69,8.42-37.31,26.14-52.22,35.23-2.69,1.64,9.94,12.55,9.94,12.55s39.58-16.92,54.7-30.26c4.27-3.78,13-15.68,22.76-38.36,3-6.88,10.17-20.75,9.8-29.79C367.32,279,350.78,280.72,340.72,285.79Z" transform="translate(-9.44 -74.07)"/><path class="cls-1" d="M309.84,370.67s-10.77,4.09-14.58,8.58-8.86,8.31-7.63,10.09,6.81-3.41,6.81-3.41,1.53,5.69,6.95,6.31,15.67-10,15.67-10Z" transform="translate(-9.44 -74.07)"/><path class="cls-1" d="M416.09,327.05c0,.93,0,2,0,3.29s0,2.64-.08,4.17c0,1-.06,2.15-.1,3.3,0,1-.07,2-.12,3s-.09,2.17-.15,3.31c-.74,15.48-2.56,36.84-6.54,54H325.33c2.79-12.45,7.07-32.08,10.46-57.56q.21-1.6.42-3.24c.14-1.1.27-2.2.41-3.31.07-.59.15-1.19.22-1.79s.11-1,.17-1.47q.23-2.06.42-4.05c.1-1.1.2-2.19.3-3.26,1.43-17.13.92-30,3-37.66,2.4-9,30.43-19.2,30.43-19.2l17.55.91s16.75,5.47,25.7,13.33,1.46,31.31,1.68,44.62C416.09,325.91,416.09,326.44,416.09,327.05Z" transform="translate(-9.44 -74.07)"/><path class="cls-2" d="M416.07,330.34a194.41,194.41,0,0,1-23.35,1.29,346.13,346.13,0,0,1-55.29-4.92c.1-1.1.2-2.19.3-3.26,6.74,1.19,45.75,7.64,78.36,3.6C416.1,328,416.09,329.09,416.07,330.34Z" transform="translate(-9.44 -74.07)"/><path class="cls-2" d="M416,334.51c0,1-.06,2.15-.1,3.3a195.7,195.7,0,0,1-23.17,1.27,347.09,347.09,0,0,1-56.1-5.06c.07-.59.15-1.19.22-1.79s.11-1,.17-1.47C340.89,331.47,381.91,338.71,416,334.51Z" transform="translate(-9.44 -74.07)"/><path class="cls-2" d="M415.77,340.85c0,1.07-.09,2.17-.15,3.31a193.55,193.55,0,0,1-24.17,1.39,346.86,346.86,0,0,1-55.66-5q.21-1.6.42-3.24C342.25,338.4,382.56,345.2,415.77,340.85Z" transform="translate(-9.44 -74.07)"/><path class="cls-2" d="M376.21,283.43c8.73,0,16.79-9.28,17.14-9.69a.62.62,0,1,0-.94-.8c-.08.1-8.52,9.82-17,9.23a.62.62,0,0,0-.09,1.23Q375.79,283.43,376.21,283.43Z" transform="translate(-9.44 -74.07)"/><path class="cls-2" d="M383.78,387.79a.61.61,0,0,0,.61-.54.62.62,0,0,0-.54-.69c-22.55-2.59-31.89-41.63-32-42a.61.61,0,0,0-.74-.46.62.62,0,0,0-.46.74c.39,1.64,9.64,40.27,33,43Z" transform="translate(-9.44 -74.07)"/><path class="cls-2" d="M374.8,376a.59.59,0,0,0,.52-.29.62.62,0,0,0-.2-.85c-12-7.4-13.77-18.3-13.79-18.41a.61.61,0,0,0-.7-.51.61.61,0,0,0-.52.7c.07.47,1.86,11.56,14.37,19.27A.62.62,0,0,0,374.8,376Z" transform="translate(-9.44 -74.07)"/><path class="cls-2" d="M357.1,226a24.71,24.71,0,1,0,24.7-24.71A24.7,24.7,0,0,0,357.1,226Z" transform="translate(-9.44 -74.07)"/><path class="cls-2" d="M357.5,221.58s-7-1.93-6.07-8.73c.78-5.77,7.57-2,7-6.54s-1.93-8.63,3.91-9.76c5.12-1,5.2,2.52,11.91-2.56,7.93-6,14,7.89,21.1,8.31,10.44.62,11.75,6.52,12.78,11.24s-3,8-3,8Z" transform="translate(-9.44 -74.07)"/><path class="cls-6" d="M361.25,232.92s-3.91-5.22-6.82-.9,1.2,17,8.32,13.94Z" transform="translate(-9.44 -74.07)"/><path class="cls-2" d="M361.2,242a.61.61,0,0,1-.58-.44c-1.11-3.94-5.18-5.53-5.22-5.55a.61.61,0,0,1-.35-.78.59.59,0,0,1,.77-.34c.19.07,4.69,1.81,6,6.34a.6.6,0,0,1-.42.74A.45.45,0,0,1,361.2,242Z" transform="translate(-9.44 -74.07)"/><path class="cls-2" d="M357.08,240a.62.62,0,0,1-.32-.09.6.6,0,0,1-.18-.83,5.48,5.48,0,0,1,2.26-1.83.6.6,0,0,1,.49,1.1,4.42,4.42,0,0,0-1.74,1.38A.6.6,0,0,1,357.08,240Z" transform="translate(-9.44 -74.07)"/><path class="cls-6" d="M389.63,256.77v12.68s-5.21,5.58-10.32,6-8.21-5.62-8.21-5.62V257.66Z" transform="translate(-9.44 -74.07)"/><path class="cls-8" d="M389.63,256.77v5.63c-3.43,3.8-9.52,4.75-18.53,3.42v-8.16Z" transform="translate(-9.44 -74.07)"/><path class="cls-6" d="M403,224.23a122.22,122.22,0,0,1-1.64,16c-.24,1.23-.5,2.39-.79,3.42-2.67,9.34-9.34,25.36-28,18.69-8.25-2.95-12.07-12.14-13.77-21.48a90.43,90.43,0,0,1-1.25-17.34,13.23,13.23,0,0,1,6.71-11.26c11-6.25,22.66-3.92,30.32-1A13.19,13.19,0,0,1,403,224.23Z" transform="translate(-9.44 -74.07)"/><path class="cls-2" d="M380.59,233.18v1a7.46,7.46,0,0,0,7.46,7.48h.24a6.67,6.67,0,0,0,4.64-2,7.36,7.36,0,0,0,2.16-5.25v-1.18a2.41,2.41,0,0,0-.18-.93,2.51,2.51,0,0,0-.59-.93,2.61,2.61,0,0,0-1.86-.77h-9.24a2.61,2.61,0,0,0-2.37,1.5,2.51,2.51,0,0,0-.26,1.06Zm1.09,0a1.54,1.54,0,0,1,1.54-1.54h9.24a1.54,1.54,0,0,1,1.54,1.54v1.18a6.25,6.25,0,0,1-1.83,4.47,5.66,5.66,0,0,1-3.9,1.74h-.22a6.38,6.38,0,0,1-6.37-6.39Z" transform="translate(-9.44 -74.07)"/><path class="cls-2" d="M362.08,233.18v1a7.48,7.48,0,0,0,2.21,5.32,7.39,7.39,0,0,0,5.25,2.16h.25a6.67,6.67,0,0,0,4.63-2,7.36,7.36,0,0,0,2.16-5.25v-1.23a2.62,2.62,0,0,0-2.62-2.58h-9.25a2.62,2.62,0,0,0-2,.95,2.51,2.51,0,0,0-.51,1A2.39,2.39,0,0,0,362.08,233.18Zm1.09,0a1.54,1.54,0,0,1,1.54-1.54H374a1.54,1.54,0,0,1,1.53,1.54v1.18a6.25,6.25,0,0,1-1.83,4.47,5.66,5.66,0,0,1-3.9,1.74h-.22a6.38,6.38,0,0,1-6.37-6.39Z" transform="translate(-9.44 -74.07)"/><path class="cls-2" d="M401.68,230.11a13,13,0,0,0-6.27,1.21c-.25.12-.91.55-.94.57l.52.92s.73-.43,1-.56a11.38,11.38,0,0,1,5.68-1.05Z" transform="translate(-9.44 -74.07)"/><path class="cls-2" d="M381.32,233.22l.36-1a11.32,11.32,0,0,0-3.28-.55,7.45,7.45,0,0,0-3,.57l.48,1a6.53,6.53,0,0,1,2.51-.46A10,10,0,0,1,381.32,233.22Z" transform="translate(-9.44 -74.07)"/><path class="cls-2" d="M358.26,230.37v1.09a14.32,14.32,0,0,1,4.38,1.21l.48-1A15,15,0,0,0,358.26,230.37Z" transform="translate(-9.44 -74.07)"/><path class="cls-2" d="M370.64,234.57c0,1.36-.7,2.45-1.56,2.45s-1.56-1.09-1.56-2.45.7-2.45,1.56-2.45S370.64,233.22,370.64,234.57Z" transform="translate(-9.44 -74.07)"/><path class="cls-2" d="M388.87,234.57c0,1.36-.69,2.45-1.55,2.45s-1.56-1.09-1.56-2.45.7-2.45,1.56-2.45S388.87,233.22,388.87,234.57Z" transform="translate(-9.44 -74.07)"/><path class="cls-2" d="M364,227.05s6.49-2.56,11.48-.4l-.42,2.31a21.12,21.12,0,0,0-10.7.77C364,228.66,363.59,228.15,364,227.05Z" transform="translate(-9.44 -74.07)"/><path class="cls-2" d="M393.68,227.05s-6.48-2.56-11.48-.4l.42,2.31a21.12,21.12,0,0,1,10.7.77C393.65,228.66,394.1,228.15,393.68,227.05Z" transform="translate(-9.44 -74.07)"/><path class="cls-2" d="M379.15,244.84a6.44,6.44,0,0,0,2.18-.46.6.6,0,1,0-.45-1.11,3.62,3.62,0,0,1-2.42.22.62.62,0,0,1-.29-.56,89.42,89.42,0,0,1,.36-9.22.6.6,0,1,0-1.2-.1,90.27,90.27,0,0,0-.36,9.45,1.85,1.85,0,0,0,.87,1.47A2.56,2.56,0,0,0,379.15,244.84Z" transform="translate(-9.44 -74.07)"/><path class="cls-7" d="M371.69,247.9c.49,2.47,2.13,7,7.64,7s7.07-4.17,7.6-7Z" transform="translate(-9.44 -74.07)"/><path class="cls-2" d="M379.25,258.07a6.4,6.4,0,0,0,2.94-.82.61.61,0,0,0,.2-.83.6.6,0,0,0-.83-.2,5.16,5.16,0,0,1-2.31.65,4.83,4.83,0,0,1-2.19-.65.6.6,0,1,0-.63,1A5.88,5.88,0,0,0,379.25,258.07Z" transform="translate(-9.44 -74.07)"/><path class="cls-2" d="M360.63,236.94c-.46-2.49-.9-5.69-.58-7.33.59-2.91,3-4.62,2.19-7.42s2.16-5.83,4.35-6.33,7.27.58,12.29-1.8c4.79-2.28,13.12-.65,14.48,2.42,1.64,3.73-.6,4.08,3.88,8.1,1.79,1.61-.33,5.77-.63,8.48a17.74,17.74,0,0,0-.11,3.2l0,.68h5.36c.59-4.21.93-8.84,1.12-12.72a13.2,13.2,0,0,0-8.45-12.93c-7.66-2.95-19.29-5.28-30.32,1a13.23,13.23,0,0,0-6.71,11.26,96.13,96.13,0,0,0,.65,13.42Z" transform="translate(-9.44 -74.07)"/><path class="cls-6" d="M399.51,239.25a22.51,22.51,0,0,1,.32-4.18c.34-1.89.89-3.61,2.82-4.39,1.55-.64,3.21-.65,4.4,1.1,2.91,4.32-.33,17.74-7.46,14.63Z" transform="translate(-9.44 -74.07)"/><path class="cls-2" d="M401,242.5a.6.6,0,0,0,.48-.54c.31-4.08,4-6.44,4-6.46a.6.6,0,0,0-.63-1c-.18.11-4.24,2.7-4.6,7.39a.59.59,0,0,0,.55.64A.47.47,0,0,0,401,242.5Z" transform="translate(-9.44 -74.07)"/><path class="cls-2" d="M404.61,239.75a.64.64,0,0,0,.31-.15.61.61,0,0,0,0-.85,5.51,5.51,0,0,0-2.57-1.35.6.6,0,0,0-.72.45.61.61,0,0,0,.45.73,4.32,4.32,0,0,1,2,1A.58.58,0,0,0,404.61,239.75Z" transform="translate(-9.44 -74.07)"/><path class="cls-1" d="M410.84,278.08c-8.8,13.33-42.48,59.44-50.08,64.8-9.89,7-36.85,16.89-52.33,27.23-5.26,3.51,7.16,13.45,7.16,13.45S353.33,373,370.32,362.1c4.81-3.07,24.81-23.1,37.56-40.87,4.36-6.08,11.47-14.54,12.5-23.53C421.56,287.35,418.31,281.82,410.84,278.08Z" transform="translate(-9.44 -74.07)"/><rect class="cls-9" x="227.32" y="310.85" width="109.76" height="13.21" rx="2.31" ry="2.31"/><path class="cls-10" d="M236.78,398.13l-20.63-77.26a6.83,6.83,0,0,1,6.6-8.6h45.4a6.84,6.84,0,0,1,6.58,5l22.72,80.87Z" transform="translate(-9.44 -74.07)"/><path class="cls-9" d="M274.73,317.26l22.53,80.2h5.19l-22.53-80.2a6.84,6.84,0,0,0-6.58-5h-5.19A6.83,6.83,0,0,1,274.73,317.26Z" transform="translate(-9.44 -74.07)"/><path class="cls-11" d="M263.06,358.66c1.18,5.09-2,9.23-7.09,9.23s-10.18-4.14-11.36-9.23,2-9.23,7.09-9.23A12.31,12.31,0,0,1,263.06,358.66Z" transform="translate(-9.44 -74.07)"/><path class="cls-12" d="M403.74,113.56a6.93,6.93,0,1,1,6.93-6.93A6.94,6.94,0,0,1,403.74,113.56Zm0-11.69a4.76,4.76,0,1,0,4.75,4.76A4.77,4.77,0,0,0,403.74,101.87Z" transform="translate(-9.44 -74.07)"/><path class="cls-12" d="M428.68,137.86a6.93,6.93,0,1,1,6.93-6.92A6.94,6.94,0,0,1,428.68,137.86Zm0-11.68a4.76,4.76,0,1,0,4.75,4.76A4.76,4.76,0,0,0,428.68,126.18Z" transform="translate(-9.44 -74.07)"/><path class="cls-3" d="M437.24,160.38a1.09,1.09,0,0,1-1.09-1.09V154.5a1.09,1.09,0,1,1,2.18,0v4.79A1.09,1.09,0,0,1,437.24,160.38Z" transform="translate(-9.44 -74.07)"/><path class="cls-3" d="M437.24,168.76a1.08,1.08,0,0,1-1.09-1.08v-4.79a1.09,1.09,0,0,1,2.18,0v4.79A1.08,1.08,0,0,1,437.24,168.76Z" transform="translate(-9.44 -74.07)"/><path class="cls-3" d="M444,162.17h-4.31a1.09,1.09,0,0,1,0-2.17H444a1.09,1.09,0,0,1,0,2.17Z" transform="translate(-9.44 -74.07)"/><path class="cls-3" d="M434.82,162.17h-4.31a1.09,1.09,0,0,1,0-2.17h4.31a1.09,1.09,0,0,1,0,2.17Z" transform="translate(-9.44 -74.07)"/><path class="cls-3" d="M399,133.52a1.08,1.08,0,0,1-1.08-1.08v-4.8a1.09,1.09,0,0,1,2.17,0v4.8A1.08,1.08,0,0,1,399,133.52Z" transform="translate(-9.44 -74.07)"/><path class="cls-3" d="M399,141.91a1.08,1.08,0,0,1-1.08-1.09V136a1.09,1.09,0,1,1,2.17,0v4.79A1.09,1.09,0,0,1,399,141.91Z" transform="translate(-9.44 -74.07)"/><path class="cls-3" d="M405.71,135.32h-4.3a1.09,1.09,0,1,1,0-2.17h4.3a1.09,1.09,0,1,1,0,2.17Z" transform="translate(-9.44 -74.07)"/><path class="cls-3" d="M396.56,135.32h-4.3a1.09,1.09,0,1,1,0-2.17h4.3a1.09,1.09,0,1,1,0,2.17Z" transform="translate(-9.44 -74.07)"/><path class="cls-12" d="M82.21,81.75a6.93,6.93,0,1,1,6.92,6.93A6.93,6.93,0,0,1,82.21,81.75Zm2.17,0A4.76,4.76,0,1,0,89.13,77,4.75,4.75,0,0,0,84.38,81.75Z" transform="translate(-9.44 -74.07)"/><path class="cls-12" d="M54.38,108.16a6.93,6.93,0,1,1,6.93,6.92A6.94,6.94,0,0,1,54.38,108.16Zm2.18,0a4.75,4.75,0,1,0,4.75-4.76A4.75,4.75,0,0,0,56.56,108.16Z" transform="translate(-9.44 -74.07)"/><path class="cls-3" d="M40,117.88a1.08,1.08,0,0,0,1.08-1.09V112a1.09,1.09,0,1,0-2.17,0v4.79A1.09,1.09,0,0,0,40,117.88Z" transform="translate(-9.44 -74.07)"/><path class="cls-3" d="M40,126.26a1.08,1.08,0,0,0,1.08-1.08v-4.79a1.09,1.09,0,1,0-2.17,0v4.79A1.08,1.08,0,0,0,40,126.26Z" transform="translate(-9.44 -74.07)"/><path class="cls-3" d="M33.25,119.68h4.31a1.09,1.09,0,0,0,0-2.18H33.25a1.09,1.09,0,0,0,0,2.18Z" transform="translate(-9.44 -74.07)"/><path class="cls-3" d="M42.4,119.68h4.31a1.09,1.09,0,0,0,0-2.18H42.4a1.09,1.09,0,1,0,0,2.18Z" transform="translate(-9.44 -74.07)"/><path class="cls-3" d="M65,81A1.09,1.09,0,0,0,66.11,80V75.16a1.09,1.09,0,1,0-2.18,0V80A1.09,1.09,0,0,0,65,81Z" transform="translate(-9.44 -74.07)"/><path class="cls-3" d="M65,89.42a1.08,1.08,0,0,0,1.09-1.08v-4.8a1.09,1.09,0,0,0-2.18,0v4.8A1.08,1.08,0,0,0,65,89.42Z" transform="translate(-9.44 -74.07)"/><path class="cls-3" d="M58.29,82.83H62.6a1.09,1.09,0,1,0,0-2.17H58.29a1.09,1.09,0,0,0,0,2.17Z" transform="translate(-9.44 -74.07)"/><path class="cls-3" d="M67.44,82.83h4.31a1.09,1.09,0,0,0,0-2.17H67.44a1.09,1.09,0,0,0,0,2.17Z" transform="translate(-9.44 -74.07)"/><path class="cls-12" d="M349.48,89.1v21.1a5.06,5.06,0,0,1-5.05,5H306.12l-11.57,4.15a1.47,1.47,0,0,1-1.86-1.92l4.37-11.29V89.1a5,5,0,0,1,5.05-5h42.32A5.06,5.06,0,0,1,349.48,89.1Z" transform="translate(-9.44 -74.07)"/><path class="cls-3" d="M341.4,95.07H306.26a1.39,1.39,0,0,1-1.39-1.39h0a1.4,1.4,0,0,1,1.39-1.4H341.4a1.4,1.4,0,0,1,1.4,1.4h0A1.4,1.4,0,0,1,341.4,95.07Z" transform="translate(-9.44 -74.07)"/><path class="cls-3" d="M341.4,100.69H306.26a1.4,1.4,0,0,1-1.39-1.4h0a1.39,1.39,0,0,1,1.39-1.39H341.4a1.4,1.4,0,0,1,1.4,1.39h0A1.4,1.4,0,0,1,341.4,100.69Z" transform="translate(-9.44 -74.07)"/><path class="cls-3" d="M341.4,106.3H306.26a1.39,1.39,0,0,1-1.39-1.39h0a1.4,1.4,0,0,1,1.39-1.4H341.4a1.4,1.4,0,0,1,1.4,1.4h0A1.4,1.4,0,0,1,341.4,106.3Z" transform="translate(-9.44 -74.07)"/><path class="cls-3" d="M462.47,414.5v1.57c0,9-3.53,16.36-7.88,16.36H46c-4.35,0-7.88-7.33-7.88-16.36V414.5c0-9,3.53-16.36,7.88-16.36h408.6C458.94,398.14,462.47,405.47,462.47,414.5Z" transform="translate(-9.44 -74.07)"/><path class="cls-13" d="M462.47,414.5v.79H38.11v-.79c0-9,3.53-16.36,7.88-16.36h408.6C458.94,398.14,462.47,405.47,462.47,414.5Z" transform="translate(-9.44 -74.07)"/></svg>