<svg xmlns="http://www.w3.org/2000/svg" xmlns:xlink="http://www.w3.org/1999/xlink" viewBox="0 0 601.12 467.96"><defs><style>.cls-1,.cls-10,.cls-14,.cls-3,.cls-31,.cls-35{fill:#fff;}.cls-1,.cls-10,.cls-11,.cls-12,.cls-18,.cls-20,.cls-23,.cls-27,.cls-28,.cls-3,.cls-31,.cls-4,.cls-5,.cls-9{stroke:#0b0c3d;}.cls-1,.cls-10,.cls-11,.cls-12,.cls-18,.cls-20,.cls-4,.cls-5,.cls-9{stroke-miterlimit:10;}.cls-2{fill:#92e3a9;}.cls-13,.cls-22,.cls-23,.cls-27,.cls-28,.cls-3,.cls-31,.cls-35,.cls-37,.cls-8{stroke-linecap:round;stroke-linejoin:round;}.cls-13,.cls-22,.cls-27,.cls-28,.cls-3,.cls-35,.cls-37,.cls-8{stroke-width:0.75px;}.cls-21,.cls-27,.cls-4{fill:#0b0c3d;}.cls-16,.cls-18,.cls-20,.cls-5{fill:#de5e5e;}.cls-11,.cls-12,.cls-6,.cls-7{fill:#eebebe;}.cls-7{opacity:0.6;}.cls-8{fill:#263238;}.cls-22,.cls-35,.cls-8{stroke:#263238;}.cls-13,.cls-22,.cls-23,.cls-28,.cls-37,.cls-9{fill:none;}.cls-10{opacity:0.4;}.cls-12,.cls-25{opacity:0.2;}.cls-13{stroke:#7f7f7f;}.cls-15{clip-path:url(#clip-path);}.cls-17{clip-path:url(#clip-path-2);}.cls-18{opacity:0.3;}.cls-19{clip-path:url(#clip-path-3);}.cls-20{opacity:0.7;}.cls-24{clip-path:url(#clip-path-4);}.cls-26{clip-path:url(#clip-path-5);}.cls-29{clip-path:url(#clip-path-6);}.cls-30{fill:#04053c;}.cls-32{clip-path:url(#clip-path-7);}.cls-33{clip-path:url(#clip-path-8);}.cls-34{clip-path:url(#clip-path-9);}.cls-36{clip-path:url(#clip-path-10);}.cls-37{stroke:#fff;}.cls-38{clip-path:url(#clip-path-11);}.cls-39{clip-path:url(#clip-path-12);}.cls-40{clip-path:url(#clip-path-13);}.cls-41{clip-path:url(#clip-path-14);}.cls-42{clip-path:url(#clip-path-15);}</style><clipPath id="clip-path" transform="translate(-49.17 -16.42)"><rect id="_Rectangle_" data-name="&lt;Rectangle&gt;" class="cls-1" x="237.54" y="113.29" width="209.94" height="209.94" rx="9.75" ry="9.75"/></clipPath><clipPath id="clip-path-2" transform="translate(-49.17 -16.42)"><rect id="_Rectangle_2" data-name="&lt;Rectangle&gt;" class="cls-5" x="430.66" y="121.3" width="11.57" height="11.57" rx="2.09" ry="2.09"/></clipPath><clipPath id="clip-path-3" transform="translate(-49.17 -16.42)"><rect id="_Rectangle_3" data-name="&lt;Rectangle&gt;" class="cls-5" x="402.17" y="121.3" width="11.57" height="11.57" rx="2.09" ry="2.09"/></clipPath><clipPath id="clip-path-4" transform="translate(-49.17 -16.42)"><path id="_Clipping_Path_" data-name="&lt;Clipping Path&gt;" class="cls-2" d="M496.88,221.7s-9.38-.4-15.35,16.46c0,0-7.06,4.12-21.43,35.48,0,0-2.47-3.31-7.78-12.38-4.64-7.92-11.72-18.15-17.56-33.12,0,0-4.71,5.79-14.78,5.46,0,0,21.83,73.75,37.12,73.75,16.86,0,35.42-39.2,35.42-39.2"/></clipPath><clipPath id="clip-path-5" transform="translate(-49.17 -16.42)"><path id="_Clipping_Path_2" data-name="&lt;Clipping Path&gt;" class="cls-3" d="M543.91,192.84s2.57,25.47,8.25,28.54c0,0-.91,9.73-17.5,9.73s-16.6-13.72-16.6-13.72Z"/></clipPath><clipPath id="clip-path-6" transform="translate(-49.17 -16.42)"><path id="_Clipping_Path_3" data-name="&lt;Clipping Path&gt;" class="cls-4" d="M504.21,165.54s-15.11-1.45-11.79-13.64,15.93-13.52,15.93-13.52-2.55,8.75,12.42,7,31.14-3.18,31.8,11.93a31.86,31.86,0,0,1-4,28.49c-9.81,14-18.82,2.67-18.82,2.67L522,171.77l-14.4-3.05Z"/></clipPath><clipPath id="clip-path-7" transform="translate(-49.17 -16.42)"><path id="_Clipping_Path_4" data-name="&lt;Clipping Path&gt;" class="cls-1" d="M489,331.38s-8.33-5.29-20.22-1A260.47,260.47,0,0,0,438,333.86s1.35-3.57-3.48-2.76c0,0-1.8-37.2-7.93-49.76,0,0-.73,3.59-22.12,4.48,0,0-1.52,66.53,6.3,76.28s73.39,2.19,73.39,2.19S495.82,342.77,489,331.38Z"/></clipPath><clipPath id="clip-path-8" transform="translate(-49.17 -16.42)"><path id="_Clipping_Path_5" data-name="&lt;Clipping Path&gt;" class="cls-1" d="M483.75,446.2s1.94-37.73,0-66.58-16.92-39.11,0-47.7,72.67-6.38,90.15,2.21,6.38,48.27,7.21,65.74S585,446.2,585,446.2Z"/></clipPath><clipPath id="clip-path-9" transform="translate(-49.17 -16.42)"><path id="_Clipping_Path_6" data-name="&lt;Clipping Path&gt;" class="cls-1" d="M502.52,332.1s12.76,28.78,17.93,27.92,8.88-12.66,14.06-18.54,5.69-11.06,5.34-14.29l-1.46-14.69-11.65-1.3L510.1,323.41Z"/></clipPath><clipPath id="clip-path-10" transform="translate(-49.17 -16.42)"><path id="_Clipping_Path_7" data-name="&lt;Clipping Path&gt;" class="cls-1" d="M92.56,234.09S82.29,239.16,80,249.35c0,0-2.91-2.91-4.07,9.61,0,0-25.92,48.06-26.22,68.74s48.64,54.17,48.64,54.17,5.25-7,4.08-13.4c0,0-18.93-35.82-28.54-40.19,0,0,10.77-26.21,18.06-31.16S92.56,234.09,92.56,234.09Z"/></clipPath><clipPath id="clip-path-11" transform="translate(-49.17 -16.42)"><path id="_Clipping_Path_8" data-name="&lt;Clipping Path&gt;" class="cls-1" d="M96.57,389.44s-.59-21-3.5-53.59S73.85,238,96.57,232.17s68-9.49,83.29,5.24c16.9,16.31,4.08,107.18,3.5,122.91s2.33,33.78,2.33,33.78S125.4,407.21,96.57,389.44Z"/></clipPath><clipPath id="clip-path-12" transform="translate(-49.17 -16.42)"><path id="_Clipping_Path_9" data-name="&lt;Clipping Path&gt;" class="cls-1" d="M158.86,228.58s21.5.09,29.7,6.79c0,0,0-3.49,6.45,0,0,0,19.51-2.33,28.54,0,0,0,11.07-27.38,17.77-34.66,0,0,9.61.59,12.23,4.95,1.24,2.08-1.7,13.5-4.44,25.13-3,12.84-6.07,25.94-8.67,27-4.95,2-57.08,6.7-57.08,6.7l-24.5-12.82Z"/></clipPath><clipPath id="clip-path-13" transform="translate(-49.17 -16.42)"><path id="_Clipping_Path_10" data-name="&lt;Clipping Path&gt;" class="cls-1" d="M192.24,360.57s34.88.89,39.89,4.58c0,0-3.13-5,2.5-3.4,0,0,.39-42.82,8-43.4l2.52-9.74a1.12,1.12,0,0,1,1.67-.68c2.09,1.29,6.42,3.62,10.45,3.67a1.1,1.1,0,0,1,1.08,1.12v8.35s3.89,1,3.69,6.6-3.74,56.14-10.15,61.61S200.4,392,200.4,392,189.33,381.34,192.24,360.57Z"/></clipPath><clipPath id="clip-path-14" transform="translate(-49.17 -16.42)"><path id="_Clipping_Path_11" data-name="&lt;Clipping Path&gt;" class="cls-1" d="M129,446.19s-27-56.95-6.29-75.07,64.35-13.32,71.75-11.1,14.79,23.67,15.16,35.14,7.64,11.3-2.71,51Z"/></clipPath><clipPath id="clip-path-15" transform="translate(-49.17 -16.42)"><path id="_Clipping_Path_12" data-name="&lt;Clipping Path&gt;" class="cls-1" d="M163.24,338.2l-5.37,15.72s11.47,12.2,21.45,13.13l4.07,4.78,4.44-5.34-1.11-6.84-1.79-2.89-1.54-.5,3.15-8.63L176.5,334h-9.75Z"/></clipPath></defs><title>image-2</title><g id="Shadow"><path class="cls-6" d="M596.78,446.19H85.86c-6.53,2.93-11.91,6.6-7.15,9.53,9.47,5.84,72.42-3.9,58.14,19.46s142.74-5.19,159.61-4.54,29.2,13.75,55.15,13.75,28.08-16.78,44.86-16.78,136,20.34,186.7,0C605.54,458.64,604.7,451.44,596.78,446.19Z" transform="translate(-49.17 -16.42)"/><path class="cls-7" d="M596.78,446.19H85.86c-6.53,2.93-11.91,6.6-7.15,9.53,9.47,5.84,72.42-3.9,58.14,19.46s142.74-5.19,159.61-4.54,29.2,13.75,55.15,13.75,28.08-16.78,44.86-16.78,136,20.34,186.7,0C605.54,458.64,604.7,451.44,596.78,446.19Z" transform="translate(-49.17 -16.42)"/></g><g id="Table"><line class="cls-8" x1="22.79" y1="429.77" x2="551.29" y2="429.77"/></g><g id="Cloud"><path class="cls-9" d="M426.82,84.71h31.47" transform="translate(-49.17 -16.42)"/><path class="cls-9" d="M421.09,84.71h2.81" transform="translate(-49.17 -16.42)"/><path class="cls-9" d="M416.62,37.14a23.79,23.79,0,0,0,0,47.57" transform="translate(-49.17 -16.42)"/><path class="cls-9" d="M445.61,16.92A23.77,23.77,0,0,0,422,37.78" transform="translate(-49.17 -16.42)"/><path class="cls-9" d="M468,84.71a21,21,0,0,0,1.29-42c.06-.66.1-1.33.1-2a23.79,23.79,0,0,0-18-23.07" transform="translate(-49.17 -16.42)"/><path class="cls-9" d="M509.38,114.53a15.93,15.93,0,0,0,1.39-2.4l3.11.05a18.47,18.47,0,0,0,1-3.78l-2.72-1.51c0-.45.07-.92.07-1.38s0-.93-.07-1.39l2.72-1.51a18.47,18.47,0,0,0-1-3.78l-3.11.06a15.55,15.55,0,0,0-1.39-2.41l1.6-2.66a19,19,0,0,0-2.76-2.77l-2.67,1.6a15.45,15.45,0,0,0-2.4-1.39l.05-3.11a19,19,0,0,0-3.77-1l-1.51,2.72" transform="translate(-49.17 -16.42)"/><path class="cls-9" d="M482.86,113.24c.25.45.52.87.81,1.29l-1.59,2.66a18.07,18.07,0,0,0,2.76,2.77l2.66-1.6a15.55,15.55,0,0,0,2.41,1.39l-.05,3.11a18.86,18.86,0,0,0,3.77,1l1.51-2.72c.46,0,.92.06,1.39.06s.93,0,1.39-.06l1.51,2.72a19,19,0,0,0,3.77-1l-.05-3.11a15.45,15.45,0,0,0,2.4-1.39l2.67,1.6a18.53,18.53,0,0,0,2.76-2.77" transform="translate(-49.17 -16.42)"/><path class="cls-9" d="M480.4,98.85l-1.22,0a18.49,18.49,0,0,0-1,3.78l2.72,1.51c0,.46-.06.92-.06,1.39s0,.93.06,1.38l-2.72,1.51a18.49,18.49,0,0,0,1,3.78l3.1-.05" transform="translate(-49.17 -16.42)"/><path class="cls-9" d="M495.14,89.86l-1.51-2.72a18.86,18.86,0,0,0-3.77,1l.05,3.11a15.55,15.55,0,0,0-2.41,1.39l-2.66-1.6a18.53,18.53,0,0,0-2.76,2.77l1.59,2.66a16.4,16.4,0,0,0-1.39,2.41" transform="translate(-49.17 -16.42)"/><path class="cls-9" d="M494.49,115.42a10.12,10.12,0,0,1,2-20" transform="translate(-49.17 -16.42)"/><path class="cls-9" d="M506.37,107.88a10.13,10.13,0,0,1-9.84,7.75" transform="translate(-49.17 -16.42)"/><path class="cls-9" d="M506.61,106.39c0,.24-.05.47-.09.71" transform="translate(-49.17 -16.42)"/><path class="cls-9" d="M500.22,96.08a10.13,10.13,0,0,1,6.43,9.43" transform="translate(-49.17 -16.42)"/><path class="cls-9" d="M523.77,83.82a8.37,8.37,0,0,0,.77-1.33l1.72,0a9.76,9.76,0,0,0,.56-2.09l-1.5-.83c0-.26,0-.51,0-.77s0-.52,0-.77l1.5-.83a9.6,9.6,0,0,0-.56-2.09l-1.72,0a8,8,0,0,0-.77-1.33l.89-1.48a11.06,11.06,0,0,0-1.53-1.53l-1.48.89a8,8,0,0,0-1.33-.77l0-1.72a9.6,9.6,0,0,0-2.09-.56l-.83,1.5" transform="translate(-49.17 -16.42)"/><path class="cls-9" d="M509.1,83.11c.14.24.29.48.45.71l-.88,1.48a10.47,10.47,0,0,0,1.52,1.53l1.48-.89a9.21,9.21,0,0,0,1.33.77l0,1.72a9.6,9.6,0,0,0,2.09.56l.83-1.51a7.43,7.43,0,0,0,1.54,0l.83,1.51a9.6,9.6,0,0,0,2.09-.56l0-1.72a8.7,8.7,0,0,0,1.33-.77l1.48.89a11.06,11.06,0,0,0,1.53-1.53" transform="translate(-49.17 -16.42)"/><path class="cls-9" d="M507.74,75.15h-.68a9.6,9.6,0,0,0-.56,2.09l1.51.83a6.51,6.51,0,0,0,0,.77,6.62,6.62,0,0,0,0,.77l-1.51.83a9.76,9.76,0,0,0,.56,2.09l1.72,0" transform="translate(-49.17 -16.42)"/><path class="cls-9" d="M515.89,70.17l-.83-1.5a9.6,9.6,0,0,0-2.09.56L513,71a8.37,8.37,0,0,0-1.33.77l-1.48-.89a10.47,10.47,0,0,0-1.52,1.53l.88,1.48a8.7,8.7,0,0,0-.77,1.33" transform="translate(-49.17 -16.42)"/><path class="cls-9" d="M245.78,83.8h23.07" transform="translate(-49.17 -16.42)"/><path class="cls-9" d="M241.58,83.8h2.06" transform="translate(-49.17 -16.42)"/><path class="cls-9" d="M238.3,48.94a17.43,17.43,0,0,0,0,34.86" transform="translate(-49.17 -16.42)"/><path class="cls-9" d="M259.56,34.12a17.43,17.43,0,0,0-17.29,15.29" transform="translate(-49.17 -16.42)"/><path class="cls-9" d="M276,83.8a15.4,15.4,0,0,0,1-30.78c0-.49.08-1,.08-1.47a17.43,17.43,0,0,0-13.17-16.9" transform="translate(-49.17 -16.42)"/><path class="cls-9" d="M217.4,115.11a15.49,15.49,0,0,0,1.48-2.56l3.31.06a19.84,19.84,0,0,0,1.08-4l-2.9-1.61a14.19,14.19,0,0,0,.07-1.47,14.52,14.52,0,0,0-.07-1.48l2.9-1.61a19.92,19.92,0,0,0-1.08-4l-3.31,0a15.91,15.91,0,0,0-1.48-2.56l1.7-2.83a20,20,0,0,0-2.94-2.95l-2.83,1.71a15.91,15.91,0,0,0-2.56-1.48l0-3.31a19.92,19.92,0,0,0-4-1.08l-1.61,2.9" transform="translate(-49.17 -16.42)"/><path class="cls-9" d="M189.17,113.74c.27.47.56.93.87,1.37l-1.7,2.84a19.46,19.46,0,0,0,2.94,2.94l2.84-1.7a17.05,17.05,0,0,0,2.56,1.48l-.06,3.31a19.19,19.19,0,0,0,4,1.07l1.61-2.89c.48,0,1,.07,1.47.07s1,0,1.48-.07l1.61,2.89a19.27,19.27,0,0,0,4-1.07l0-3.31a17.56,17.56,0,0,0,2.56-1.48l2.83,1.7A19.46,19.46,0,0,0,219.1,118" transform="translate(-49.17 -16.42)"/><path class="cls-9" d="M186.56,98.43l-1.31,0a19.27,19.27,0,0,0-1.07,4l2.89,1.61c0,.49-.07,1-.07,1.48s0,1,.07,1.47l-2.89,1.61a19.19,19.19,0,0,0,1.07,4l3.31-.06" transform="translate(-49.17 -16.42)"/><path class="cls-9" d="M202.25,88.86,200.64,86a19.84,19.84,0,0,0-4,1.08l.06,3.31a15.49,15.49,0,0,0-2.56,1.48l-2.84-1.71a20,20,0,0,0-2.94,2.95L190,95.9a17.56,17.56,0,0,0-1.48,2.56" transform="translate(-49.17 -16.42)"/><path class="cls-9" d="M201.55,116.06a10.78,10.78,0,0,1,2.17-21.33" transform="translate(-49.17 -16.42)"/><path class="cls-9" d="M214.2,108a10.79,10.79,0,0,1-10.48,8.25" transform="translate(-49.17 -16.42)"/><path class="cls-9" d="M214.46,106.45c0,.25-.06.5-.1.75" transform="translate(-49.17 -16.42)"/><path class="cls-9" d="M207.65,95.47a10.78,10.78,0,0,1,6.85,10" transform="translate(-49.17 -16.42)"/><path class="cls-9" d="M176.19,104.58a12.61,12.61,0,0,0,1.11-1.92l2.49,0a15.09,15.09,0,0,0,.81-3l-2.18-1.21c0-.36.05-.73.05-1.11s0-.74-.05-1.11L180.6,95a15.18,15.18,0,0,0-.81-3l-2.49,0a12.15,12.15,0,0,0-1.11-1.92L177.47,88a14.83,14.83,0,0,0-2.21-2.2l-2.13,1.27A13.61,13.61,0,0,0,171.2,86l0-2.48a14.53,14.53,0,0,0-3-.81L167,84.85" transform="translate(-49.17 -16.42)"/><path class="cls-9" d="M155,103.55c.2.35.42.7.65,1l-1.28,2.13a15.39,15.39,0,0,0,2.21,2.21l2.13-1.28a11.92,11.92,0,0,0,1.93,1.11l-.05,2.49a14.62,14.62,0,0,0,3,.81l1.21-2.18a10.19,10.19,0,0,0,1.11,0,10.31,10.31,0,0,0,1.11,0l1.21,2.18a14.53,14.53,0,0,0,3-.81l0-2.49a11.92,11.92,0,0,0,1.93-1.11l2.13,1.28a15.39,15.39,0,0,0,2.21-2.21" transform="translate(-49.17 -16.42)"/><path class="cls-9" d="M153,92h-1a15.18,15.18,0,0,0-.81,3l2.18,1.21c0,.37-.05.74-.05,1.11s0,.75.05,1.11l-2.18,1.21a15.09,15.09,0,0,0,.81,3l2.49,0" transform="translate(-49.17 -16.42)"/><path class="cls-9" d="M164.8,84.85l-1.21-2.17a14.62,14.62,0,0,0-3,.81l.05,2.48a13.61,13.61,0,0,0-1.93,1.11l-2.13-1.27a14.83,14.83,0,0,0-2.21,2.2l1.28,2.14a11.42,11.42,0,0,0-1.11,1.92" transform="translate(-49.17 -16.42)"/><path class="cls-9" d="M164.8,102.77a5.52,5.52,0,0,1,1.11-10.93" transform="translate(-49.17 -16.42)"/><path class="cls-9" d="M171.28,98.66a5.53,5.53,0,0,1-5.37,4.23" transform="translate(-49.17 -16.42)"/><path class="cls-9" d="M167.93,92.22a5.51,5.51,0,0,1,3.5,5.14" transform="translate(-49.17 -16.42)"/></g><g id="Plant"><path class="cls-1" d="M349.94,408.68s-32.77-18.95-28.4-24.22,19.39,9.47,19.39,9.47-28.95-36.32-23.76-40,19.93,20.34,19.93,20.34-17.75-40.06-10.92-41.19,17.75,34.63,17.75,34.63-4.64-25.39,0-25.94S351.85,382,351.85,382s-.23-19.19,3.84-19.06S361.41,406,349.94,408.68Z" transform="translate(-49.17 -16.42)"/><path class="cls-10" d="M349.94,408.68s-32.77-18.95-28.4-24.22,19.39,9.47,19.39,9.47-28.95-36.32-23.76-40,19.93,20.34,19.93,20.34-17.75-40.06-10.92-41.19,17.75,34.63,17.75,34.63-4.64-25.39,0-25.94S351.85,382,351.85,382s-.23-19.19,3.84-19.06S361.41,406,349.94,408.68Z" transform="translate(-49.17 -16.42)"/><path class="cls-11" d="M355.07,407.08s26-15,22.5-19.18-15.36,7.51-15.36,7.51,22.93-28.77,18.82-31.69-15.79,16.11-15.79,16.11,14.06-31.72,8.65-32.62-14.06,27.43-14.06,27.43,3.68-20.11,0-20.54S353.56,386,353.56,386s.18-15.19-3-15.09S346,404.92,355.07,407.08Z" transform="translate(-49.17 -16.42)"/><path class="cls-12" d="M355.07,407.08s26-15,22.5-19.18-15.36,7.51-15.36,7.51,22.93-28.77,18.82-31.69-15.79,16.11-15.79,16.11,14.06-31.72,8.65-32.62-14.06,27.43-14.06,27.43,3.68-20.11,0-20.54S353.56,386,353.56,386s.18-15.19-3-15.09S346,404.92,355.07,407.08Z" transform="translate(-49.17 -16.42)"/><path id="_Path_" data-name="&lt;Path&gt;" class="cls-1" d="M327.09,402v2a3.91,3.91,0,0,0,2.78,3.73l3,31.49a8.07,8.07,0,0,0,8,7.32h21.94a8.08,8.08,0,0,0,8-7.32l3-31.49a3.9,3.9,0,0,0,2.79-3.73v-2Z" transform="translate(-49.17 -16.42)"/><path class="cls-13" d="M330.37,413a3.27,3.27,0,0,0,2.78-.91l2.58-2.59a3.25,3.25,0,0,1,4.58,0l2.58,2.59a3.25,3.25,0,0,0,4.58,0l2.6-2.59a3.24,3.24,0,0,1,4.57,0l2.59,2.59a3.24,3.24,0,0,0,4.57,0l2.6-2.59a3.25,3.25,0,0,1,4.58,0l2.58,2.59a3.09,3.09,0,0,0,1.76.9" transform="translate(-49.17 -16.42)"/></g><g id="Interface"><rect id="_Rectangle_4" data-name="&lt;Rectangle&gt;" class="cls-14" x="188.37" y="96.87" width="209.94" height="209.94" rx="9.75" ry="9.75"/><g class="cls-15"><rect class="cls-1" x="188.37" y="96.87" width="209.94" height="209.94" rx="9.75" ry="9.75"/></g><rect id="_Rectangle_5" data-name="&lt;Rectangle&gt;" class="cls-9" x="188.37" y="96.87" width="209.94" height="209.94" rx="9.75" ry="9.75"/><rect id="_Rectangle_6" data-name="&lt;Rectangle&gt;" class="cls-14" x="193.61" y="122.09" width="199.44" height="179.47" rx="9.75" ry="9.75"/><rect id="_Rectangle_7" data-name="&lt;Rectangle&gt;" class="cls-9" x="193.61" y="122.09" width="199.44" height="179.47" rx="9.75" ry="9.75"/><rect id="_Rectangle_8" data-name="&lt;Rectangle&gt;" class="cls-16" x="381.49" y="104.88" width="11.57" height="11.57" rx="2.09" ry="2.09"/><g class="cls-17"><rect class="cls-18" x="381.49" y="104.88" width="11.57" height="11.57" rx="2.09" ry="2.09"/></g><rect id="_Rectangle_9" data-name="&lt;Rectangle&gt;" class="cls-9" x="381.49" y="104.88" width="11.57" height="11.57" rx="2.09" ry="2.09"/><rect class="cls-5" x="367.24" y="104.88" width="11.57" height="11.57" rx="2.09" ry="2.09"/><rect id="_Rectangle_10" data-name="&lt;Rectangle&gt;" class="cls-16" x="353" y="104.88" width="11.57" height="11.57" rx="2.09" ry="2.09"/><g class="cls-19"><rect class="cls-20" x="353" y="104.88" width="11.57" height="11.57" rx="2.09" ry="2.09"/></g><rect id="_Rectangle_11" data-name="&lt;Rectangle&gt;" class="cls-9" x="353" y="104.88" width="11.57" height="11.57" rx="2.09" ry="2.09"/></g><g id="Character_4" data-name="Character 4"><path class="cls-21" d="M503.26,383.26s1.67,11,1.27,14.65c-1.32,12.27-7.61,24.44-10.27,48.28H596.43s.93-43.48-3.08-62.93Z" transform="translate(-49.17 -16.42)"/><path id="_Clipping_Path_13" data-name="&lt;Clipping Path&gt;" class="cls-14" d="M502.67,389.51s-2.52-42.76-7.46-83.92c-3-24.69-7.92-49.15-9-67.43-1.49-23.91,27.71-17.27,53.13-18.33s50.11-4.36,51.88,17.86,4.18,150.42,4.18,150.42S547.19,401,502.67,389.51Z" transform="translate(-49.17 -16.42)"/><path id="_Clipping_Path_14" data-name="&lt;Clipping Path&gt;" class="cls-9" d="M502.67,389.51s-2.52-42.76-7.46-83.92c-3-24.69-7.92-49.15-9-67.43-1.49-23.91,27.71-17.27,53.13-18.33s50.11-4.36,51.88,17.86,4.18,150.42,4.18,150.42S547.19,401,502.67,389.51Z" transform="translate(-49.17 -16.42)"/><path class="cls-1" d="M544.22,446.19a47.31,47.31,0,0,0-3.32-6.73c-6.24-8.31-5.46-15.39-7.75-23.13-.7-2.37-5.49-8.23-5.49-8.23" transform="translate(-49.17 -16.42)"/><polygon class="cls-9" points="557.28 323.61 549.85 332.43 552.13 347.89 563.45 335.98 557.28 323.61"/><path class="cls-1" d="M600.38,349.5c-.31-1.5-.48-5.33-1.93-5.83-2.66-.92-7.78,3.92-9.4,6.22-.76,1.09-2.4,3.41-2.38,4.73,0,.68.6,2.29,1.26,2.4,1.17.18,2.49-2.52,3.39-3.28a46.15,46.15,0,0,1,5.35-3.05s-3.15,4.57-4.43,5.62c-1.92,1.57-9.88,6-4.82,8.64,0,0-1.95,2.87,1.1,3.62s7.92-3.46,7.92-3.46a18.62,18.62,0,0,1-3.1,3.35c-1.94,1.73-4.8,1.35-4.12,2.57,1,1.89,3.65,2.06,6.42,1.13a10.66,10.66,0,0,0,6.62-5.29C604.76,362.72,601.27,353.78,600.38,349.5Z" transform="translate(-49.17 -16.42)"/><path class="cls-1" d="M589.51,364.32a55.46,55.46,0,0,0,6.28-3.69,11.8,11.8,0,0,0,3.23-3.8" transform="translate(-49.17 -16.42)"/><path id="_Clipping_Path_15" data-name="&lt;Clipping Path&gt;" class="cls-14" d="M567.17,219.09s24.76,1.47,24.62,9.08c0,0,12.4,5.28,13.06,11.24s52.95,62,43.89,78.26c-7.92,14.2-39.86,40.62-39.86,40.62s-3.06-6.86-6.51-14.87c0,0,14-30.57,20.43-33.71L589.16,267" transform="translate(-49.17 -16.42)"/><path id="_Clipping_Path_16" data-name="&lt;Clipping Path&gt;" class="cls-9" d="M567.17,219.09s24.76,1.47,24.62,9.08c0,0,12.4,5.28,13.06,11.24s52.95,62,43.89,78.26c-7.92,14.2-39.86,40.62-39.86,40.62s-3.06-6.86-6.51-14.87c0,0,14-30.57,20.43-33.71L589.16,267" transform="translate(-49.17 -16.42)"/><path class="cls-22" d="M639.77,308.53c-5.51-3.88-13.33.2-13.33-2.35s9.41-2.78,8.63-5.41" transform="translate(-49.17 -16.42)"/><path class="cls-22" d="M596.59,255.71a44.18,44.18,0,0,0,2.61-15" transform="translate(-49.17 -16.42)"/><path class="cls-22" d="M592.57,237.44c.29,5.81.58,14.07.32,20.37a1.35,1.35,0,0,0,2.57.62" transform="translate(-49.17 -16.42)"/><path class="cls-22" d="M592.14,230.33s.09,1.24.22,3.27" transform="translate(-49.17 -16.42)"/><path class="cls-22" d="M479.15,247s-1.48,10.29,0,17.64" transform="translate(-49.17 -16.42)"/><path class="cls-1" d="M435.89,236.7l-5.67-16.32S428.45,209.21,427,207a33.34,33.34,0,0,0-5.29-5.29,38.85,38.85,0,0,0-4.68-5.44c-1.93-1.62-13.25-7.5-14.13-7.06s-2.28,3.09,5.07,7.2a18.8,18.8,0,0,0-7.28,1c-3.23,1.33-5.44,1.69-4,3.09s2.57,2.06,7.79.66a41,41,0,0,0,6.62.22l1.61,1.91a3.18,3.18,0,0,0-4,1.25c-1.47,2.35-3.16,5.29-2.42,7,0,0-5.66-2.93-7.21-.51s3.24,4.63,5.15,6.1,6.54,5.44,6.54,5.44S414.05,230,421,232.73c0,0,2.67,3.09,1.91,6Z" transform="translate(-49.17 -16.42)"/><polyline class="cls-23" points="362.38 181.98 364.8 183.97 367.52 188.67 369.36 194.85"/><path class="cls-23" d="M420.08,211.27s-3.86,4.63-6.6,5.29A25.71,25.71,0,0,1,410,214.8c-.49-.43-1.23-1.26-2.72-2.45" transform="translate(-49.17 -16.42)"/><path class="cls-23" d="M415.81,210.9l-.35-1.25a8.21,8.21,0,0,1-3.47,0l-.88,1.25A16.7,16.7,0,0,1,415.81,210.9Z" transform="translate(-49.17 -16.42)"/><path class="cls-23" d="M411.92,205.68a6.32,6.32,0,0,1,.51,3.17" transform="translate(-49.17 -16.42)"/><path class="cls-23" d="M409.64,209.65a7.39,7.39,0,0,1,2.54,6.33" transform="translate(-49.17 -16.42)"/><polyline class="cls-23" points="365.02 188.08 366.64 189.85 366.64 191.83"/><path id="_Clipping_Path_17" data-name="&lt;Clipping Path&gt;" class="cls-2" d="M496.88,221.7s-9.38-.4-15.35,16.46c0,0-7.06,4.12-21.43,35.48,0,0-2.47-3.31-7.78-12.38-4.64-7.92-11.72-18.15-17.56-33.12,0,0-4.71,5.79-14.78,5.46,0,0,21.83,73.75,37.12,73.75,16.86,0,35.42-39.2,35.42-39.2" transform="translate(-49.17 -16.42)"/><g class="cls-24"><g class="cls-25"><path d="M495.38,252a83.57,83.57,0,0,1-28.25,35.15l2.39,5.46c-2.76,2.33-7.82.19-8.08-3.4Q460,296.59,458.57,304l-9.16-.29c4.48,4.55,12.36,3.87,17.64.28s8.62-9.33,11.91-14.79S485.9,278.07,491.5,275q10.08,47.34,20.17,94.69c1.08,5.1,2.24,10.36,5.3,14.58,6.34,8.74,18.62,10.33,29.42,10.23A190.18,190.18,0,0,0,593.85,388q-.6-58.1-1.19-116.19l30.8,38.31-15.05,20.79a37.32,37.32,0,0,1,28.77-16.39,7.67,7.67,0,0,0-7.29-2l9.52-3.05-7.44-.64,4.15-6.73c-1,1.92-3.62,2.47-5.65,1.77s-3.61-2.32-5.1-3.88c-6.78-7.11-13.64-14.31-18.49-22.86s-7.56-18.72-5.4-28.31q-1.72,4.32-3.46,8.63l-5.29-14.76a13.76,13.76,0,0,1-4.15,13c-1.35,1.22-3,2.23-3.79,3.87-1.06,2.21-.22,4.81.49,7.16,4.39,14.66,2.31,31.48-6.88,43.71s-25.74,19-40.56,15.16-26.34-18.87-24.76-34.09a171.48,171.48,0,0,0,49.3,10.16c-14.12-3-28.33-7.1-40.24-15.28S500.85,265.33,500,250.92Z" transform="translate(-49.17 -16.42)"/></g></g><path class="cls-1" d="M496.88,221.7s-9.38-.4-15.35,16.46c0,0-7.06,4.12-21.43,35.48,0,0-2.47-3.31-7.78-12.38-4.64-7.92-11.72-18.15-17.56-33.12,0,0-4.71,5.79-14.78,5.46,0,0,21.83,73.75,37.12,73.75,16.86,0,35.42-39.2,35.42-39.2" transform="translate(-49.17 -16.42)"/><path class="cls-9" d="M486.4,241.87c-.1-1.19-.18-2.43-.24-3.71" transform="translate(-49.17 -16.42)"/><path class="cls-9" d="M488,264.21c2.73-.3.35-5.91-1.1-17.22" transform="translate(-49.17 -16.42)"/><path class="cls-9" d="M481,243.26s2.28,13.32,4.9,18.72" transform="translate(-49.17 -16.42)"/><path id="_Clipping_Path_18" data-name="&lt;Clipping Path&gt;" class="cls-14" d="M543.91,192.84s2.57,25.47,8.25,28.54c0,0-.91,9.73-17.5,9.73s-16.6-13.72-16.6-13.72Z" transform="translate(-49.17 -16.42)"/><g class="cls-26"><path class="cls-27" d="M508.05,165.28s-2.69,16-2.25,19.37-.38,6.82.3,12.25,4.82,20.58,14.7,22.89C526,221,537.12,216,541.74,205.68c.32-.69,2.17-8.6,2.17-8.6s4.58,3.09,6.05-1.92,3.95-9.58.77-12.57-7.47,3.49-8.07,5.88-2.95-.32-2.95-.32-1.46-11-4.91-14,3-8.59-.28-12.44S516.75,158.77,508.05,165.28Z" transform="translate(-49.17 -16.42)"/></g><path id="_Clipping_Path_19" data-name="&lt;Clipping Path&gt;" class="cls-28" d="M543.91,192.84s2.57,25.47,8.25,28.54c0,0-.91,9.73-17.5,9.73s-16.6-13.72-16.6-13.72Z" transform="translate(-49.17 -16.42)"/><path id="_Clipping_Path_20" data-name="&lt;Clipping Path&gt;" class="cls-21" d="M504.21,165.54s-15.11-1.45-11.79-13.64,15.93-13.52,15.93-13.52-2.55,8.75,12.42,7,31.14-3.18,31.8,11.93a31.86,31.86,0,0,1-4,28.49c-9.81,14-18.82,2.67-18.82,2.67L522,171.77l-14.4-3.05Z" transform="translate(-49.17 -16.42)"/><g class="cls-29"><path class="cls-4" d="M526,157.37s17.88,2.07,26.62,0,11.13,21.6,11.13,21.6l-2.12,14.44-23.85,4.11-11-9.81L522.23,174Z" transform="translate(-49.17 -16.42)"/></g><path id="_Clipping_Path_21" data-name="&lt;Clipping Path&gt;" class="cls-9" d="M504.21,165.54s-15.11-1.45-11.79-13.64,15.93-13.52,15.93-13.52-2.55,8.75,12.42,7,31.14-3.18,31.8,11.93a31.86,31.86,0,0,1-4,28.49c-9.81,14-18.82,2.67-18.82,2.67L522,171.77l-14.4-3.05Z" transform="translate(-49.17 -16.42)"/><path class="cls-1" d="M502,163.57S498.55,179.72,499,183s-.59,6.86.08,12.29,3,25.8,14.77,24.23c11.56-1.53,27.46-11,28.87-20.39.12-.76.81-3,.81-3a5.34,5.34,0,0,0,6.65-3.56c1.82-5.06,4.81-9.7,1.17-12.63-3.79-3.06-8.78,3.66-9.53,6.08s-3.42-.26-3.42-.26-1.46-11-5.41-13.89,3.66-8.69-.06-12.47S512.3,156.86,502,163.57Z" transform="translate(-49.17 -16.42)"/><path class="cls-1" d="M508.07,182.8c0,3-5.6,8.16-4.94,10.81.36,1.45,4.13,2.16,4.91,3.44a2.81,2.81,0,0,1,.31,1.22" transform="translate(-49.17 -16.42)"/><path class="cls-9" d="M509.86,177.31s5-4,11.62.25" transform="translate(-49.17 -16.42)"/><path class="cls-1" d="M524.07,200.78s-11,9.76-15.73,1.26" transform="translate(-49.17 -16.42)"/><path class="cls-9" d="M496.51,180.14s3.31-4.54,8.93-1.19" transform="translate(-49.17 -16.42)"/><path class="cls-30" d="M505.71,161.36s-16.3,1.06-8.13,11.24C497.58,172.6,497.4,165.27,505.71,161.36Z" transform="translate(-49.17 -16.42)"/><path class="cls-1" d="M505.71,184.49c0,2.78-2,5-4.42,5s-4.41-2.25-4.41-5,2-4,4.41-4S505.71,181.7,505.71,184.49Z" transform="translate(-49.17 -16.42)"/><path class="cls-1" d="M521.22,182.58a5.55,5.55,0,0,1-11.05,0c0-2.78,2.47-4,5.52-4S521.22,179.8,521.22,182.58Z" transform="translate(-49.17 -16.42)"/><path class="cls-1" d="M505.38,182.58c0-1.21,4.79-1.83,4.79-.62" transform="translate(-49.17 -16.42)"/><line class="cls-4" x1="471.69" y1="164.19" x2="494.74" y2="166.16"/><path class="cls-9" d="M507.68,315.55c9.63,17.07,34.05,52.92,70.13,55" transform="translate(-49.17 -16.42)"/><path class="cls-9" d="M503.08,306.65s.7,1.57,2.07,4.23" transform="translate(-49.17 -16.42)"/><path class="cls-11" d="M556.12,219.09c-1.6,0-3.22.1-4.86.17-.88,7.43-9.56,9.58-17.58,9.58-7.82,0-12.26-2.05-12.88-9.05-1.64,0-3.26,0-4.85,0,.64,9.91,7.17,13.81,17.73,13.81C544.47,233.55,555.46,229.48,556.12,219.09Z" transform="translate(-49.17 -16.42)"/><path class="cls-9" d="M459.31,292.56s-.44-12.35,1.32-12.94,1.76,6.76,6.47,6.47" transform="translate(-49.17 -16.42)"/><path class="cls-30" d="M502.72,184.56c-.08,1.16-.61,2.06-1.19,2s-1-1-.89-2.17.62-2.06,1.19-2S502.8,183.4,502.72,184.56Z" transform="translate(-49.17 -16.42)"/><path class="cls-30" d="M515.76,182.66c-.08,1.21-.64,2.15-1.24,2.11s-1-1.06-.93-2.27.65-2.15,1.24-2.11S515.85,181.45,515.76,182.66Z" transform="translate(-49.17 -16.42)"/><path class="cls-9" d="M401.66,209.92l-117.47-4a4.42,4.42,0,0,1-4.26-4.57l.32-9.3a4.41,4.41,0,0,1,4.56-4.26l117.47,4a4.42,4.42,0,0,1,4.26,4.56l-.32,9.31A4.41,4.41,0,0,1,401.66,209.92Z" transform="translate(-49.17 -16.42)"/><path class="cls-21" d="M335.85,199.82v-1l4.07-1.75v1.06l-2.8,1.19,2.8,1.18v1.07Z" transform="translate(-49.17 -16.42)"/><path class="cls-21" d="M344.44,194.67h1.26L342,204h-1.27Z" transform="translate(-49.17 -16.42)"/><path class="cls-21" d="M346.54,200.51l2.81-1.18-2.81-1.19v-1.06l4.07,1.75v1l-4.07,1.76Z" transform="translate(-49.17 -16.42)"/><line class="cls-22" x1="224.77" y1="177.56" x2="221.9" y2="177.56"/></g><g id="Character_3" data-name="Character 3"><path class="cls-31" d="M425,288.64l-3.35-14.49-6.58-24.69L408.13,242l-9.19-7s-10.16-4.29-10.5-2.08a2.56,2.56,0,0,0,1.53,2.89s-2.89-1-3.57.77,4,3.06,6.63,5.36a39.22,39.22,0,0,1,4.26,4.27s-3.69,4.6-3.21,7.09l.31,1.14s-7.36-4-8.06-.77,4.34,3.9,7.22,7a44.65,44.65,0,0,0,5.57,5.11s2.85,7.2,9,9.75l.38,15.82S418,293.34,425,288.64Z" transform="translate(-49.17 -16.42)"/><path class="cls-23" d="M390.73,236.73a57.89,57.89,0,0,0,6.91,4.09l5.85,6.13a32.46,32.46,0,0,1,3.66,5.8" transform="translate(-49.17 -16.42)"/><path class="cls-23" d="M398.3,247.28a48.7,48.7,0,0,0,3.41,5c1.36,1.61,1.21,2.54.26,3.65" transform="translate(-49.17 -16.42)"/><path class="cls-23" d="M396.1,255.51a13.34,13.34,0,0,1,2.2,2c.94,1.09,3.34,1.87,4.74.89s5.13-3.65,4.62-4.65" transform="translate(-49.17 -16.42)"/><path class="cls-23" d="M398.94,250.72s0,1.5-1,2,1.43-.58,2.4.34" transform="translate(-49.17 -16.42)"/><path id="_Clipping_Path_22" data-name="&lt;Clipping Path&gt;" class="cls-14" d="M489,331.38s-8.33-5.29-20.22-1A260.47,260.47,0,0,0,438,333.86s1.35-3.57-3.48-2.76c0,0-1.8-37.2-7.93-49.76,0,0-.73,3.59-22.12,4.48,0,0-1.52,66.53,6.3,76.28s73.39,2.19,73.39,2.19S495.82,342.77,489,331.38Z" transform="translate(-49.17 -16.42)"/><g class="cls-32"><path class="cls-6" d="M404.32,348.83s9.66,15,26.35,13.27,54.64-17.37,56-3.25-16.76,11.45-16.76,11.45l-44.32,6.84s-4.65,8-18.81-4.17l-14.16-12.21Z" transform="translate(-49.17 -16.42)"/></g><path id="_Clipping_Path_23" data-name="&lt;Clipping Path&gt;" class="cls-9" d="M489,331.38s-8.33-5.29-20.22-1A260.47,260.47,0,0,0,438,333.86s1.35-3.57-3.48-2.76c0,0-1.8-37.2-7.93-49.76,0,0-.73,3.59-22.12,4.48,0,0-1.52,66.53,6.3,76.28s73.39,2.19,73.39,2.19S495.82,342.77,489,331.38Z" transform="translate(-49.17 -16.42)"/><path class="cls-9" d="M419.67,344.67s13-13.86,15.26-10.81-3.53,3.32-6.9,16.64" transform="translate(-49.17 -16.42)"/><path id="_Clipping_Path_24" data-name="&lt;Clipping Path&gt;" class="cls-14" d="M483.75,446.2s1.94-37.73,0-66.58-16.92-39.11,0-47.7,72.67-6.38,90.15,2.21,6.38,48.27,7.21,65.74S585,446.2,585,446.2Z" transform="translate(-49.17 -16.42)"/><g class="cls-33"><path class="cls-6" d="M526.37,388.41s-11.59-8-17.94,1.94,28.05,59.78,34,60,34.27,0,34.27,0l15.27-33.66S585.3,346,572.73,344.67s-21.08,25.81-22.93,41.66-.13,22.24-.13,22.24Z" transform="translate(-49.17 -16.42)"/></g><path id="_Clipping_Path_25" data-name="&lt;Clipping Path&gt;" class="cls-9" d="M483.75,446.2s1.94-37.73,0-66.58-16.92-39.11,0-47.7,72.67-6.38,90.15,2.21,6.38,48.27,7.21,65.74S585,446.2,585,446.2Z" transform="translate(-49.17 -16.42)"/><path class="cls-30" d="M518.14,410.51a1.94,1.94,0,1,1-1.94-1.94A1.94,1.94,0,0,1,518.14,410.51Z" transform="translate(-49.17 -16.42)"/><path class="cls-30" d="M518.14,432.62a1.94,1.94,0,1,1-1.94-1.94A1.94,1.94,0,0,1,518.14,432.62Z" transform="translate(-49.17 -16.42)"/><path class="cls-11" d="M519.34,362.1c3.36,0,5.74,6.84,8.92,6.8S539.5,346.74,543,340.53s1.93-13.86-3.35-15.27-36.24,0-36.24,0a13.12,13.12,0,0,0-.9,12.2c3,6.66,4.06,28.48,8.32,29.22S515.09,362.1,519.34,362.1Z" transform="translate(-49.17 -16.42)"/><path class="cls-30" d="M412,296.55a1.94,1.94,0,1,1-1.16-2.49A1.94,1.94,0,0,1,412,296.55Z" transform="translate(-49.17 -16.42)"/><path class="cls-30" d="M412,305.22a1.94,1.94,0,1,1-1.16-2.49A2,2,0,0,1,412,305.22Z" transform="translate(-49.17 -16.42)"/><path id="_Clipping_Path_26" data-name="&lt;Clipping Path&gt;" class="cls-14" d="M502.52,332.1s12.76,28.78,17.93,27.92,8.88-12.66,14.06-18.54,5.69-11.06,5.34-14.29l-1.46-14.69-11.65-1.3L510.1,323.41Z" transform="translate(-49.17 -16.42)"/><g class="cls-34"><path class="cls-4" d="M489.46,285.12s-1.28,16.9-.36,20.22.36,7.05,1.81,12.48,6.69,25.79,18.4,22.56c11.54-3.19,28.41-16.31,27.42-26l-.53-1.92a5.47,5.47,0,0,0,6.26-4.55c1.15-5.39,3.52-10.53-.58-13-4.29-2.58-8.41,5-8.83,7.51s-3.51.22-3.51.22-3-11-7.46-13.36,2.5-9.34-1.8-12.66S499,276.86,489.46,285.12Z" transform="translate(-49.17 -16.42)"/></g><path id="_Clipping_Path_27" data-name="&lt;Clipping Path&gt;" class="cls-9" d="M502.52,332.1s12.76,28.78,17.93,27.92,8.88-12.66,14.06-18.54,5.69-11.06,5.34-14.29l-1.46-14.69-11.65-1.3L510.1,323.41Z" transform="translate(-49.17 -16.42)"/><path class="cls-35" d="M496.71,275.33s-5.84,16.27-5.84,19.79-1.57,7-1.62,12.76-.42,27.18,12,27.18c12.21,0,32.36-8.32,34-18.12v-2a5.58,5.58,0,0,0,7.39-2.77c2.59-5,6.33-9.4,3-12.95s-9.61,2.59-10.72,5-3.52-.74-3.52-.74,0-11.65-3.69-15.17,5-8.5,1.66-12.94S508.3,269.78,496.71,275.33Z" transform="translate(-49.17 -16.42)"/><path class="cls-27" d="M542.83,303.32s7-9.87,2.22-21.52c0,0-3.88-19.6-27.74-21.63,0,0,6.1-4.63,2.22-6.48-5.88-2.8-16.22,6.66-16.22,6.66s4.85-7.33,2.49-7.45-19,18.55-9.09,25.21,24.52.92,24.52.92l7.18,24.29,1.11,3.08,10.42.74Z" transform="translate(-49.17 -16.42)"/><path class="cls-9" d="M529.37,268.12c6.67,3.87,11,10.92,9.21,26.44" transform="translate(-49.17 -16.42)"/><path class="cls-9" d="M509.75,266.71c4.34-.43,10.75-2.55,16.62-.07" transform="translate(-49.17 -16.42)"/><path class="cls-9" d="M515.83,256.47s-13.29,6.47-10.25,9.43" transform="translate(-49.17 -16.42)"/><path class="cls-9" d="M497.8,268.49c3.05,2.4,6.75-.19,13.22,0" transform="translate(-49.17 -16.42)"/><path class="cls-9" d="M501.59,258.5s-3.27,3.63-4.28,6.66" transform="translate(-49.17 -16.42)"/><path class="cls-1" d="M496.71,275.33s-5.84,16.27-5.84,19.79-1.57,7-1.62,12.76-.42,27.18,12,27.18c12.21,0,32.36-8.32,34-18.12v-2a5.58,5.58,0,0,0,7.39-2.77c2.59-5,6.33-9.4,3-12.95s-9.61,2.59-10.72,5-3.52-.74-3.52-.74,0-11.65-3.69-15.17,5-8.5,1.66-12.94S508.3,269.78,496.71,275.33Z" transform="translate(-49.17 -16.42)"/><path class="cls-9" d="M502.52,296.41s-6.8,6.59-6.48,9.43c.18,1.56,4,2.82,4.63,4.25a7.88,7.88,0,0,1,0,2.41" transform="translate(-49.17 -16.42)"/><path class="cls-30" d="M497.5,296.93c-.44,1.31-1.49,2.14-2.36,1.85s-1.23-1.58-.8-2.89,1.49-2.14,2.37-1.85S497.93,295.62,497.5,296.93Z" transform="translate(-49.17 -16.42)"/><path class="cls-30" d="M514.26,296.93c-.43,1.31-1.49,2.14-2.36,1.85s-1.22-1.58-.79-2.89,1.49-2.14,2.36-1.85S514.7,295.62,514.26,296.93Z" transform="translate(-49.17 -16.42)"/><path class="cls-9" d="M508.43,291.4s5.74-3.5,12,1.87" transform="translate(-49.17 -16.42)"/><path class="cls-9" d="M496.71,314s9,3.14,17.73.92C514.44,314.9,500.71,324.15,496.71,314Z" transform="translate(-49.17 -16.42)"/><path class="cls-9" d="M493.09,292.34s4.06-4.25,9.43,0" transform="translate(-49.17 -16.42)"/><path class="cls-9" d="M528.29,336.65c-1.72,5.1-4.31,12-7.06,16.21" transform="translate(-49.17 -16.42)"/><path class="cls-9" d="M530.38,330s-.39,1.39-1.06,3.54" transform="translate(-49.17 -16.42)"/><path class="cls-1" d="M525.24,373.63l-5.79-7s-7-10.2-9.7-18.2-3.06-12.25-7.31-12.25-19.23-1-18.71,4.08a8.39,8.39,0,0,0,0,5.79,15.28,15.28,0,0,0,2.4,6.46c2,2.9,3.23,2.34,3.23,2.34s1.36,2.26,2.72,2.26c0,0,1.19,6.12,10.38,11.4l6.46,7,6.81,12.59L528.42,378Z" transform="translate(-49.17 -16.42)"/><path class="cls-1" d="M504.14,343.13a31.14,31.14,0,0,1-4.72,1.66c-2.17.51-9.57,1.66-10.08,3.83s2.42,7.66,4,7.91,7,0,7.28-1.15a10.85,10.85,0,0,1,0,3.07c-.26,1.53-1.41,3.95.51,7.91" transform="translate(-49.17 -16.42)"/><path class="cls-1" d="M483.71,346.07a5,5,0,0,1,3-2c1.91-.39,9.57-2.3,10.78-3.19" transform="translate(-49.17 -16.42)"/><path class="cls-1" d="M483.73,340.28a11.29,11.29,0,0,1,2.93-1c1.53-.26,9.38-2.49,12-2.2" transform="translate(-49.17 -16.42)"/><path class="cls-1" d="M499.55,353.57s-1.85-1.46-2.84-1-1.33,1.53-2.61,2.22" transform="translate(-49.17 -16.42)"/><path class="cls-1" d="M496.71,352.53a12.41,12.41,0,0,0,4.37-2.21" transform="translate(-49.17 -16.42)"/><path class="cls-1" d="M577.5,335.8c-9.51-5.21-22.47,13.87-22.74,36.89s-.56,27.18-.56,27.18l-28.57-30.79s-1.94,8.05-15.53,14.43A170.85,170.85,0,0,0,527.85,419c11.65,17.48,23,33,30.24,33s20.61-16.93,25.51-39.11C594.14,365.2,597.25,346.62,577.5,335.8Z" transform="translate(-49.17 -16.42)"/><path class="cls-9" d="M559.51,403.94a.61.61,0,0,1,.57-1.06c4.22,1.43,11.77,5.29,16.59,15.3" transform="translate(-49.17 -16.42)"/><path class="cls-9" d="M570.29,422.06A35.26,35.26,0,0,0,562,406.25" transform="translate(-49.17 -16.42)"/><path class="cls-9" d="M579.36,404.73q1.08,1,2.16,2.31" transform="translate(-49.17 -16.42)"/><path class="cls-9" d="M559.28,399s8.51-3.63,17.93,3.81" transform="translate(-49.17 -16.42)"/><path class="cls-9" d="M556.78,374.92c-.27,1.43-.48,2.9-.64,4.43" transform="translate(-49.17 -16.42)"/><path class="cls-9" d="M570.4,348.83a49.32,49.32,0,0,0-12.37,21" transform="translate(-49.17 -16.42)"/><path class="cls-30" d="M520.08,390.35a1.94,1.94,0,1,1-1.94-1.94A1.94,1.94,0,0,1,520.08,390.35Z" transform="translate(-49.17 -16.42)"/><path class="cls-30" d="M524,398.16a1.95,1.95,0,1,1-1.94-2A1.94,1.94,0,0,1,524,398.16Z" transform="translate(-49.17 -16.42)"/><line class="cls-9" x1="500.5" y1="378.57" x2="476.46" y2="352.66"/><path class="cls-9" d="M564.76,340.73c-5.48,6.76-9.84,18.71-10,32-.28,23-.56,27.18-.56,27.18" transform="translate(-49.17 -16.42)"/><path class="cls-9" d="M571,335.62a14,14,0,0,0-3.84,2.55" transform="translate(-49.17 -16.42)"/><path class="cls-9" d="M510.1,383.51A170.85,170.85,0,0,0,527.85,419c6.74,10.11,13.39,19.57,19.19,25.75" transform="translate(-49.17 -16.42)"/><path class="cls-5" d="M481.91,447.12h44.46a0,0,0,0,1,0,0v4.07a0,0,0,0,1,0,0H481.55a1.32,1.32,0,0,1-1.32-1.32v-1.07A1.68,1.68,0,0,1,481.91,447.12Z" transform="translate(957.43 881.87) rotate(180)"/><path class="cls-4" d="M458.63,379.8h5.63a4,4,0,0,1,3.82,2.88l18.43,63.41a4,4,0,0,1-3.82,5.09H477.8Z" transform="translate(-49.17 -16.42)"/><path class="cls-5" d="M399,451.18h81.73a4,4,0,0,0,3.82-5.09l-18.43-63.41a4,4,0,0,0-3.82-2.88H380.59a4,4,0,0,0-3.82,5.1l18.42,63.41A4,4,0,0,0,399,451.18Z" transform="translate(-49.17 -16.42)"/><rect id="_Rectangle_12" data-name="&lt;Rectangle&gt;" class="cls-16" x="217.14" y="218.84" width="126.36" height="18.15" rx="4.42" ry="4.42"/><rect id="_Rectangle_13" data-name="&lt;Rectangle&gt;" class="cls-9" x="217.14" y="218.84" width="126.36" height="18.15" rx="4.42" ry="4.42"/><path class="cls-14" d="M324.4,246.1v-5a2.16,2.16,0,1,1,4.31,0v1h-1.38V241c0-.61-.3-.86-.74-.86s-.73.25-.73.86v5.21c0,.61.29.85.73.85s.74-.24.74-.85v-1.43h1.38v1.32a2.16,2.16,0,1,1-4.31,0Z" transform="translate(-49.17 -16.42)"/><path class="cls-14" d="M331.19,244.12H329.4v-1h1.79v-1.8h1v1.8H334v1h-1.78v1.82h-1Z" transform="translate(-49.17 -16.42)"/><path class="cls-14" d="M336.51,244.12h-1.78v-1h1.78v-1.8h1v1.8h1.78v1h-1.78v1.82h-1Z" transform="translate(-49.17 -16.42)"/></g><g id="Character_1" data-name="Character 1"><path class="cls-5" d="M382.92,168.59,266.73,186.27a4.41,4.41,0,0,1-5-3.7l-1.41-9.21a4.43,4.43,0,0,1,3.71-5l116.19-17.68a4.42,4.42,0,0,1,5,3.7l1.4,9.2A4.42,4.42,0,0,1,382.92,168.59Z" transform="translate(-49.17 -16.42)"/><path id="_Clipping_Path_28" data-name="&lt;Clipping Path&gt;" class="cls-14" d="M92.56,234.09S82.29,239.16,80,249.35c0,0-2.91-2.91-4.07,9.61,0,0-25.92,48.06-26.22,68.74s48.64,54.17,48.64,54.17,5.25-7,4.08-13.4c0,0-18.93-35.82-28.54-40.19,0,0,10.77-26.21,18.06-31.16S92.56,234.09,92.56,234.09Z" transform="translate(-49.17 -16.42)"/><g class="cls-36"><path class="cls-6" d="M91.53,306.1s-11.4-32.77-15.41-25.52S61.75,325,67.66,330.46s-3.69,5.76.74,13,33.29,34.36,36.25,33.56-10.71-46.56-10.71-46.56Z" transform="translate(-49.17 -16.42)"/></g><path id="_Clipping_Path_29" data-name="&lt;Clipping Path&gt;" class="cls-9" d="M92.56,234.09S82.29,239.16,80,249.35c0,0-2.91-2.91-4.07,9.61,0,0-25.92,48.06-26.22,68.74s48.64,54.17,48.64,54.17,5.25-7,4.08-13.4c0,0-18.93-35.82-28.54-40.19,0,0,10.77-26.21,18.06-31.16S92.56,234.09,92.56,234.09Z" transform="translate(-49.17 -16.42)"/><path class="cls-9" d="M79.08,260.89s1,15,4.45,23.57" transform="translate(-49.17 -16.42)"/><path class="cls-9" d="M71.93,331.25s-5.46,5.85-13,5.06" transform="translate(-49.17 -16.42)"/><line class="cls-9" x1="44.21" y1="341.29" x2="44.77" y2="359.04"/><path class="cls-21" d="M180.74,388.86S193,427.22,195.3,446.19H95.69s-.87-45,2.91-59.37Z" transform="translate(-49.17 -16.42)"/><path class="cls-37" d="M138.85,436c2.24,2,6.6,10.15,6.6,10.15" transform="translate(-49.17 -16.42)"/><path class="cls-37" d="M117.83,410.12A170.8,170.8,0,0,0,134.76,432" transform="translate(-49.17 -16.42)"/><path class="cls-27" d="M144.91,158.19s7.58-6.79,5.83-11.07c-2.28-5.57-8.16,2.72-8.16,2.72s2.33-8.54-2.65-10.68c-5.33-2.28-9.77,7.77-9.77,7.77s-1.38-8.63-8.93-6.8c-6.41,1.56-1.17,8.74-6.41,11.07s-22.53,8.35-19.23,20c0,0-4.65-9.13-6.4-5.44s4.27,8.74,6.6,9.32c0,0-3.69,7.77-.78,9.91s2.33-5.64,2.33-5.64,1.9,21.41,22.53,32.63,20.06-26,20.06-26l5.18-16.7Z" transform="translate(-49.17 -16.42)"/><path class="cls-23" d="M118.64,156.64c-8.68,2.72-21.74,6-16.08,23.3" transform="translate(-49.17 -16.42)"/><path class="cls-23" d="M122.39,143.63s3.24,6.75-.15,10.76" transform="translate(-49.17 -16.42)"/><path class="cls-23" d="M112.49,190.62c.46,1.1,1,2.24,1.55,3.42" transform="translate(-49.17 -16.42)"/><path class="cls-23" d="M135.53,150.64a17.4,17.4,0,0,1-7.51,6.58c-9,4.32-23.17,9.29-17.2,28.81" transform="translate(-49.17 -16.42)"/><path class="cls-23" d="M137.92,142.85a13.7,13.7,0,0,1-.65,3.91" transform="translate(-49.17 -16.42)"/><path class="cls-23" d="M122.3,166.54c-4.6,3.54,2,8.23,4.75,14.17" transform="translate(-49.17 -16.42)"/><path class="cls-23" d="M148,149.07s-8.54,11.65-21,15.33" transform="translate(-49.17 -16.42)"/><path id="_Clipping_Path_30" data-name="&lt;Clipping Path&gt;" class="cls-14" d="M96.57,389.44s-.59-21-3.5-53.59S73.85,238,96.57,232.17s68-9.49,83.29,5.24c16.9,16.31,4.08,107.18,3.5,122.91s2.33,33.78,2.33,33.78S125.4,407.21,96.57,389.44Z" transform="translate(-49.17 -16.42)"/><g class="cls-38"><path class="cls-6" d="M88.11,326.06S79.38,269.22,109.4,266s69.58-1.89,73.74,23.19,13.32,85.09,13.32,85.09l6.21,27.14L154,410.6l-65.1-7Z" transform="translate(-49.17 -16.42)"/></g><path id="_Clipping_Path_31" data-name="&lt;Clipping Path&gt;" class="cls-9" d="M96.57,389.44s-.59-21-3.5-53.59S73.85,238,96.57,232.17s68-9.49,83.29,5.24c16.9,16.31,4.08,107.18,3.5,122.91s2.33,33.78,2.33,33.78S125.4,407.21,96.57,389.44Z" transform="translate(-49.17 -16.42)"/><path class="cls-1" d="M143.94,223.43v-6.6s11.28,1.75,12.83-1.17-1-14.95-1-14.95,5.43.2,5.43-2.33-6.4-13.2-6.4-13.2.77-8.54,0-11.26-8.74-18.06-8.74-18.06-11.65,6.4-11.26,9.9,3.69,6.8,1,9.71-6.41,10.77-5.25,14.51l-1.74,1.22s-1-7-4.86-8.16-7,6.61-4.27,12,5.83,4.47,5.83,4.47-1.56,9.32-5.63,12.43l-1.23,9.7Z" transform="translate(-49.17 -16.42)"/><path class="cls-21" d="M152.68,183c0,1.29-.57,2.33-1.26,2.33s-1.26-1-1.26-2.33.56-2.33,1.26-2.33S152.68,181.76,152.68,183Z" transform="translate(-49.17 -16.42)"/><path class="cls-28" d="M142.78,199s.91,2.52,8.22,2.91" transform="translate(-49.17 -16.42)"/><path class="cls-28" d="M151.42,176.45a5,5,0,0,0-5.34,3.49" transform="translate(-49.17 -16.42)"/><path class="cls-11" d="M110.93,232.61s-7.76-10.54,0-11.7,39.61-3.89,44.66,0-7.76,2.72-8.54,9.32S110.93,232.61,110.93,232.61Z" transform="translate(-49.17 -16.42)"/><path class="cls-28" d="M158.86,185c0,3.75-1.09,6.78-2.44,6.78s-2.44-3-2.44-6.78,1.09-6.78,2.44-6.78S158.86,181.22,158.86,185Z" transform="translate(-49.17 -16.42)"/><path class="cls-23" d="M158.32,180.71l-26.84,2a9.59,9.59,0,0,0-5.23,2" transform="translate(-49.17 -16.42)"/><path class="cls-1" d="M239.3,206.49l6.34-14.12s3.7-15.31,6.63-18.64,7.69-9.35,9.2-7.68c1.1,1.2-.26,5.3-2.68,8.45-2.62,3.42-.49,6.63.47,8s6.67,4.18,11.13,4.76,13.35-5.06,16.41-3.08-3.18,4.16-3.18,4.16,4.81-.64,5.82,2.06c.59,1.6-4.35,1.57-6.75,1.81s-7.31,1-7.31,1,8.78,1.12,8.67,3.52-6.59.15-11.51.34c0,0,7.06,1.82,6.67,4.13s-4.12-.12-10-1.14l-13.66-1.73-4.31,15.94Z" transform="translate(-49.17 -16.42)"/><path class="cls-23" d="M280.05,189.14a13.36,13.36,0,0,1-10.26,1.31s.58,1.89,0,2.69-.51,2.4-2,3.42a21.65,21.65,0,0,1-2.33,1.46" transform="translate(-49.17 -16.42)"/><path id="_Clipping_Path_32" data-name="&lt;Clipping Path&gt;" class="cls-14" d="M158.86,228.58s21.5.09,29.7,6.79c0,0,0-3.49,6.45,0,0,0,19.51-2.33,28.54,0,0,0,11.07-27.38,17.77-34.66,0,0,9.61.59,12.23,4.95,1.24,2.08-1.7,13.5-4.44,25.13-3,12.84-6.07,25.94-8.67,27-4.95,2-57.08,6.7-57.08,6.7l-24.5-12.82Z" transform="translate(-49.17 -16.42)"/><g class="cls-39"><path class="cls-6" d="M188.56,266.85s-4.87-17.41,2.95-15.78,38.88,4.82,44.61-.11,9.4-46.65,16.82-44.65,2.27,38.51,2.27,38.51,4.64,10.1-9.9,17.87l-14.55,7.76-25.69,2.22Z" transform="translate(-49.17 -16.42)"/></g><path id="_Clipping_Path_33" data-name="&lt;Clipping Path&gt;" class="cls-9" d="M158.86,228.58s21.5.09,29.7,6.79c0,0,0-3.49,6.45,0,0,0,19.51-2.33,28.54,0,0,0,11.07-27.38,17.77-34.66,0,0,9.61.59,12.23,4.95,1.24,2.08-1.7,13.5-4.44,25.13-3,12.84-6.07,25.94-8.67,27-4.95,2-57.08,6.7-57.08,6.7l-24.5-12.82Z" transform="translate(-49.17 -16.42)"/><path class="cls-9" d="M226.17,236.54s4.37.87,9.61,7.86" transform="translate(-49.17 -16.42)"/><path class="cls-9" d="M190.93,240.47a45.54,45.54,0,0,1,0,20.24" transform="translate(-49.17 -16.42)"/><path class="cls-9" d="M172.59,232.61s14,7.38,15,28.1" transform="translate(-49.17 -16.42)"/><path class="cls-9" d="M173.47,367a16.53,16.53,0,0,0,2.32-4" transform="translate(-49.17 -16.42)"/><path class="cls-9" d="M106.66,378.18s46.18,6.08,63.71-8.07" transform="translate(-49.17 -16.42)"/><path class="cls-14" d="M316.77,171.56l-.81-4.94a2.16,2.16,0,1,1,4.25-.7l.16,1-1.36.22-.18-1.06c-.1-.6-.43-.8-.86-.73s-.68.36-.58,1l.84,5.13c.1.61.43.79.86.72s.69-.35.59-1l-.23-1.4,1.36-.22.22,1.29a2.16,2.16,0,1,1-4.26.71Z" transform="translate(-49.17 -16.42)"/><path class="cls-14" d="M321.66,170.7l-.08-.53,1.36-.23.11.64c.11.65.43.84.89.76s.71-.35.6-1-.5-1.2-1.58-1.87c-1.38-.86-1.9-1.55-2.07-2.6a2,2,0,0,1,1.78-2.64c1.4-.23,2.23.5,2.48,2l.06.38-1.36.22-.08-.47c-.11-.66-.42-.86-.87-.79s-.69.37-.58,1,.49,1.11,1.57,1.78A3.6,3.6,0,0,1,326,170a2.08,2.08,0,0,1-1.8,2.7C322.75,172.89,321.91,172.17,321.66,170.7Z" transform="translate(-49.17 -16.42)"/><path class="cls-14" d="M326.55,169.89l-.09-.53,1.37-.22.1.63c.11.66.44.85.9.77s.71-.36.6-1-.5-1.2-1.58-1.87c-1.38-.87-1.9-1.55-2.07-2.6a2,2,0,0,1,1.77-2.64c1.41-.23,2.24.49,2.48,2l.07.38-1.37.23-.08-.47c-.11-.66-.41-.87-.87-.79s-.68.37-.57,1,.49,1.1,1.57,1.77a3.62,3.62,0,0,1,2.07,2.68,2.06,2.06,0,0,1-1.79,2.7C327.64,172.08,326.79,171.36,326.55,169.89Z" transform="translate(-49.17 -16.42)"/></g><g id="Character_2" data-name="Character 2"><path class="cls-27" d="M163.05,284.75s-23.11,6.67-22.19,23.86,5.36,16.21-4.44,21.89-.55,16.39-3.33,21.2-20.34,18.12-12.75,25,45.67-6.84,59,0,23.83-7.67,27.36-11.43-6.83-9.09-6.46-16.67,7-49.47-1.48-55.06S170.4,281.69,163.05,284.75Z" transform="translate(-49.17 -16.42)"/><path class="cls-1" d="M245.31,312.5l4.24-15.4s1.66-10.54,3-12.62a31.81,31.81,0,0,1,5-5,37,37,0,0,1,4.42-5.13c1.82-1.53,12.5-7.08,13.33-6.66s2.15,2.91-4.78,6.8a17.63,17.63,0,0,1,6.87,1c3.05,1.24,5.13,1.59,3.81,2.91s-2.43,1.94-7.35.62a38.23,38.23,0,0,1-6.24.21l-1.53,1.8a3,3,0,0,1,3.75,1.18c1.38,2.22,3,5,2.28,6.59,0,0,5.34-2.77,6.8-.49s-3.05,4.37-4.85,5.76-6.18,5.13-6.18,5.13-3.12,7-9.63,9.57a9.23,9.23,0,0,0-.7,5.62Z" transform="translate(-49.17 -16.42)"/><polyline class="cls-1" points="217.99 259.94 215.7 261.81 213.13 266.25 211.4 272.08"/><path class="cls-1" d="M259.12,288.5s3.63,4.37,6.22,5a24.24,24.24,0,0,0,3.28-1.67c.46-.4,1.15-1.18,2.56-2.31" transform="translate(-49.17 -16.42)"/><path class="cls-1" d="M263.14,288.16l.33-1.18a7.87,7.87,0,0,0,3.28,0l.83,1.18A15.33,15.33,0,0,0,263.14,288.16Z" transform="translate(-49.17 -16.42)"/><path class="cls-1" d="M266.82,283.23a5.9,5.9,0,0,0-.49,3" transform="translate(-49.17 -16.42)"/><path class="cls-1" d="M269,287a7,7,0,0,0-2.41,6" transform="translate(-49.17 -16.42)"/><polyline class="cls-1" points="215.49 265.7 213.97 267.36 213.97 269.24"/><path id="_Clipping_Path_34" data-name="&lt;Clipping Path&gt;" class="cls-14" d="M192.24,360.57s34.88.89,39.89,4.58c0,0-3.13-5,2.5-3.4,0,0,.39-42.82,8-43.4l2.52-9.74a1.12,1.12,0,0,1,1.67-.68c2.09,1.29,6.42,3.62,10.45,3.67a1.1,1.1,0,0,1,1.08,1.12v8.35s3.89,1,3.69,6.6-3.74,56.14-10.15,61.61S200.4,392,200.4,392,189.33,381.34,192.24,360.57Z" transform="translate(-49.17 -16.42)"/><g class="cls-40"><path class="cls-6" d="M203.1,371.83s10.71,16.94,27.63,15.34,12-8,14.58-10.48,11,1.21,15.26-30.32,13.19,22.16,13.19,22.16l-2.58,26.19-16,11.65-15,2.93-35.13,2.87-10.62-29.94Z" transform="translate(-49.17 -16.42)"/></g><path id="_Clipping_Path_35" data-name="&lt;Clipping Path&gt;" class="cls-9" d="M192.24,360.57s34.88.89,39.89,4.58c0,0-3.13-5,2.5-3.4,0,0,.39-42.82,8-43.4l2.52-9.74a1.12,1.12,0,0,1,1.67-.68c2.09,1.29,6.42,3.62,10.45,3.67a1.1,1.1,0,0,1,1.08,1.12v8.35s3.89,1,3.69,6.6-3.74,56.14-10.15,61.61S200.4,392,200.4,392,189.33,381.34,192.24,360.57Z" transform="translate(-49.17 -16.42)"/><path class="cls-22" d="M236.12,369.89s2.53,1.94,4.08,8" transform="translate(-49.17 -16.42)"/><path class="cls-22" d="M238.16,365.23a23.57,23.57,0,0,1,8.26,6.6" transform="translate(-49.17 -16.42)"/><path class="cls-9" d="M245.31,319.71s3.3,2.33,9.9,3.11" transform="translate(-49.17 -16.42)"/><path id="_Clipping_Path_36" data-name="&lt;Clipping Path&gt;" class="cls-14" d="M129,446.19s-27-56.95-6.29-75.07,64.35-13.32,71.75-11.1,14.79,23.67,15.16,35.14,7.64,11.3-2.71,51Z" transform="translate(-49.17 -16.42)"/><g class="cls-41"><path class="cls-6" d="M137.81,403.82s14-15.29,14.89-10.26-16.28,34.17,1.48,41.93,30.33-.83,40.27,0,14.27,6.84,24.44,7.44,8,15,8,15l-28.32,6.1H139.75l-21.3-5.27-5.88-10.38v-23.3Z" transform="translate(-49.17 -16.42)"/></g><path id="_Clipping_Path_37" data-name="&lt;Clipping Path&gt;" class="cls-9" d="M129,446.19s-27-56.95-6.29-75.07,64.35-13.32,71.75-11.1,14.79,23.67,15.16,35.14,7.64,11.3-2.71,51Z" transform="translate(-49.17 -16.42)"/><path class="cls-9" d="M155.66,409.39,172.11,404s6.85-10.89,10.36-13.66,5.73-3.7,9.24-2l5.92-.82s2.5-3.18,5.36-2.5,13.32,3.88,12.21,6.1-10-1.85-11.28-.74c0,0,2.91,5.22,2.91,8.41s.83,8.05-1,8.05-3.33-2-3.19-4.62c0,0-.55,5.73-2.36,5.45s-3.05-1.81-2.77-4.16c0,0-4.16,12.9-14.7,12.76L163.7,424S159.82,423.08,155.66,409.39Z" transform="translate(-49.17 -16.42)"/><path class="cls-9" d="M186.58,403.48s2.5-5,1.81-7.35l3.6-1.39s1.53,2.08,2.64,1.53l-.56,2.84s-2.77,3.39-1.25,5.34,3.75-2.5,5-3.75,1.52-6.75.55-8.5-4.55-1.57-5.6-2.73" transform="translate(-49.17 -16.42)"/><path class="cls-9" d="M198,388.31s3.15-.37,4.07,1.16a15.09,15.09,0,0,1,1.66,7,44.72,44.72,0,0,1-.83,4.62" transform="translate(-49.17 -16.42)"/><line class="cls-9" x1="148.83" y1="385.77" x2="149.39" y2="382.68"/><path class="cls-9" d="M200.88,388.58s1.79-.78,3,1.77" transform="translate(-49.17 -16.42)"/><polygon class="cls-9" points="145.18 381.24 143.6 381.88 144.39 383.4 144.9 382.68 145.18 381.24"/><path class="cls-9" d="M177.11,411.43s.74,1.85,4.06,3.7" transform="translate(-49.17 -16.42)"/><path id="_Clipping_Path_38" data-name="&lt;Clipping Path&gt;" class="cls-14" d="M163.24,338.2l-5.37,15.72s11.47,12.2,21.45,13.13l4.07,4.78,4.44-5.34-1.11-6.84-1.79-2.89-1.54-.5,3.15-8.63L176.5,334h-9.75Z" transform="translate(-49.17 -16.42)"/><g class="cls-42"><path class="cls-27" d="M186.54,347.63,176.5,334h-9.75l-1.14,1.38c.67,3.12,2.09,8.44,4.47,11.56,2.53,3.33,9.65,7.13,13.45,9Z" transform="translate(-49.17 -16.42)"/></g><path id="_Clipping_Path_39" data-name="&lt;Clipping Path&gt;" class="cls-9" d="M163.24,338.2l-5.37,15.72s11.47,12.2,21.45,13.13l4.07,4.78,4.44-5.34-1.11-6.84-1.79-2.89-1.54-.5,3.15-8.63L176.5,334h-9.75Z" transform="translate(-49.17 -16.42)"/><path class="cls-1" d="M166,330.5s1.85,11.4,6.84,15.1,22.93,10.51,26.26,7.29,6.66-13.58,7.4-18.94-1.11-14.2-.74-19.58.74-14.45-6.66-17.22-34.4,10.61-34.4,10.61L163.05,318Z" transform="translate(-49.17 -16.42)"/><path class="cls-9" d="M200.87,314.37s-1.11,4.51,0,6.17c.75,1.13,2.71,3.84,3.9,5.48a1.58,1.58,0,0,1-.38,2.22c-1.42,1-3.54,2.63-4,3.67a4.2,4.2,0,0,0,0,1.39" transform="translate(-49.17 -16.42)"/><path class="cls-9" d="M200.48,336.1s-5,4-10-1.11" transform="translate(-49.17 -16.42)"/><path class="cls-9" d="M186.54,316.1s2.19-4.85,9.92-2.36" transform="translate(-49.17 -16.42)"/><path class="cls-9" d="M201.17,313a2.74,2.74,0,0,1,3.86,0" transform="translate(-49.17 -16.42)"/><path class="cls-21" d="M194.41,317.92c.31,1.15.1,2.2-.47,2.36s-1.29-.66-1.59-1.81-.1-2.2.47-2.35S194.1,316.77,194.41,317.92Z" transform="translate(-49.17 -16.42)"/><path class="cls-21" d="M204.93,316.75c.22,1.05,0,2-.54,2.09s-1.12-.64-1.34-1.69,0-2,.53-2.1S204.71,315.7,204.93,316.75Z" transform="translate(-49.17 -16.42)"/><path class="cls-27" d="M191.75,283.89s9.42-5.4,23.58,7.13c12.8,11.32-2.84,4.83-2.84,4.83s6.5,12.15-.43,14.65-3.15-4.85-18.68-8.36c0,0,6.93,5.62,2.18,8.9-6.1,4.21-10.13-3-14.94-1.32,0,0-2.59,14.24-7.77,16.65,0,0-5,19.09-11.67,17.86s1.5-3.81-2.2-15.46-11.65-22.65-5.54-35.27S181.44,279.51,191.75,283.89Z" transform="translate(-49.17 -16.42)"/><path class="cls-1" d="M132.72,368c-5.22.08-10,2-12.2,5.37-8.24,12.3-18.49,35.14-25.15,50.3S92,448,95.37,449.15s15.16,4.81,38.09-6.28,20.72-13.32,20.72-13.32l13.15-6.07a.74.74,0,0,0,.12-1.28c-2.09-1.5-6.31-5.74-6.6-15.6a.75.75,0,0,0-1-.68l-12.31,5s-1.85-2-12.58,2c0,0,10.73-7.77,15.54-13.69,2.26-2.78,3-8,2.19-13.34" transform="translate(-49.17 -16.42)"/><path class="cls-9" d="M112.57,420.49c3.55-2.94,18.49-4.44,18.68-6.66s-12.58,3.15-12.39,0" transform="translate(-49.17 -16.42)"/><path class="cls-9" d="M142.53,391.09s3.7,5.9,3.69,9.24,4.44-5.36,4.44-9.24" transform="translate(-49.17 -16.42)"/><path class="cls-9" d="M148.26,413.28s-.37,4.44,3.7,11.83" transform="translate(-49.17 -16.42)"/><path class="cls-6" d="M171.5,373.72c-2.27,0-5.72-2.19-12-6.16-3.38-2.15-7.58-4.82-12.88-8,1-2.84,3.85-9,6.73-9a2,2,0,0,1,.72.14C160.2,353,177.34,361,182,369.85a5.43,5.43,0,0,0-3.08-1.12c-1.61,0-3.06.95-4.3,2.82C173.63,373.1,172.72,373.72,171.5,373.72Z" transform="translate(-49.17 -16.42)"/><path class="cls-21" d="M153.37,351.06a1.58,1.58,0,0,1,.55.11c5.7,2.12,21.1,9.31,26.73,17.37a4.92,4.92,0,0,0-1.69-.31c-1.79,0-3.38,1-4.72,3-1.14,1.71-2,1.94-2.74,1.94-2.13,0-5.73-2.29-11.71-6.08-3.31-2.11-7.4-4.71-12.54-7.76,1.3-3.5,3.87-8.32,6.12-8.32m0-1c-4,0-7.34,9.76-7.34,9.76,15.5,9.15,21.74,14.4,25.47,14.4,1.43,0,2.5-.77,3.57-2.39,1.3-1.95,2.65-2.6,3.89-2.6,2.46,0,4.43,2.6,4.43,2.6-3-10.57-24.68-19.95-29.12-21.6a2.7,2.7,0,0,0-.9-.17Z" transform="translate(-49.17 -16.42)"/><path class="cls-6" d="M191.6,370.42c-.07,0-.27,0-.7-.35a5.11,5.11,0,0,0-3.1-1.12,5.63,5.63,0,0,0-3.06,1,24.15,24.15,0,0,0,.79-12.78,15.18,15.18,0,0,1,2.88,2.06c1.25,1.6,3.69,8.59,3.33,10.82-.05.3-.13.37-.13.37Z" transform="translate(-49.17 -16.42)"/><path class="cls-21" d="M186.23,358.2a9.74,9.74,0,0,1,1.79,1.34c1.37,1.74,3.39,8.25,3.27,10.19l-.08-.06a5.63,5.63,0,0,0-3.41-1.22,5.48,5.48,0,0,0-2.18.47,24.25,24.25,0,0,0,.61-10.72m-1-1.77a.26.26,0,0,0-.26.33,22.94,22.94,0,0,1-1.54,15.07s1.86-2.38,4.41-2.38a4.59,4.59,0,0,1,2.8,1,1.83,1.83,0,0,0,1,.45c2.1,0-1.17-9.95-2.79-12a18.94,18.94,0,0,0-3.45-2.43.27.27,0,0,0-.16-.06Z" transform="translate(-49.17 -16.42)"/><path class="cls-4" d="M119.91,430.69h44.83a0,0,0,0,1,0,0v4.07a0,0,0,0,1,0,0H120.27a1.68,1.68,0,0,1-1.68-1.68V432A1.32,1.32,0,0,1,119.91,430.69Z"/><path class="cls-6" d="M235.5,379.8h-5.63a4,4,0,0,0-3.82,2.88l-18.43,63.41a4,4,0,0,0,3.82,5.09h4.89Z" transform="translate(-49.17 -16.42)"/><path class="cls-4" d="M307.32,451.18H213.39a4,4,0,0,1-3.83-5.09L228,382.68a4,4,0,0,1,3.83-2.88h93.93a4,4,0,0,1,3.82,5.1l-18.43,63.41A4,4,0,0,1,307.32,451.18Z" transform="translate(-49.17 -16.42)"/><path class="cls-27" d="M165.61,335.33s-7.55,11.79-3.11,22.41.55,16.13-4.63,12.15-7.58-8.35-30.88-4.66l15.54-15.17,10.54-14.13,9.87-4.64Z" transform="translate(-49.17 -16.42)"/><path class="cls-27" d="M211.55,302.14a6.71,6.71,0,0,1,.93,3.54" transform="translate(-49.17 -16.42)"/><path class="cls-27" d="M181.17,290c14-.23,22.81,4,27.4,8.38" transform="translate(-49.17 -16.42)"/><path class="cls-27" d="M141.87,350.33a22,22,0,0,0,.66-8c-1.11-12.48,8.87-8.24,11.09-24.09,2-14.35,4.4-25.55,21.63-27.83" transform="translate(-49.17 -16.42)"/><path class="cls-27" d="M135.59,359.2a13,13,0,0,0,3.86-3.73" transform="translate(-49.17 -16.42)"/><path class="cls-27" d="M155.39,358.66a25.2,25.2,0,0,0,1.56,3.48" transform="translate(-49.17 -16.42)"/><path class="cls-27" d="M167.74,300.23c-6.81,6-.8,17.75-4,25-3,6.72-11,16.55-9.55,28.28" transform="translate(-49.17 -16.42)"/><path class="cls-27" d="M193.38,306.93s-9.39-13.6-21.87-8.88" transform="translate(-49.17 -16.42)"/><rect id="_Rectangle_14" data-name="&lt;Rectangle&gt;" class="cls-14" x="223.27" y="253.16" width="126.36" height="18.14" rx="4.42" ry="4.42"/><rect id="_Rectangle_15" data-name="&lt;Rectangle&gt;" class="cls-9" x="223.27" y="253.16" width="126.36" height="18.14" rx="4.42" ry="4.42"/><path class="cls-21" d="M326.78,273.57h2.16c1.46,0,2.18.81,2.18,2.31v.91c0,1.49-.72,2.31-2.18,2.31h-.7v3.79h-1.46Zm2.16,4.2c.46,0,.71-.22.71-.88v-1.11c0-.66-.25-.88-.71-.88h-.7v2.87Z" transform="translate(-49.17 -16.42)"/><path class="cls-21" d="M331.92,273.57h1.46v3.8H335v-3.8h1.47v9.32H335V278.7h-1.57v4.19h-1.46Z" transform="translate(-49.17 -16.42)"/><path class="cls-21" d="M337.51,273.57h2.16c1.46,0,2.18.81,2.18,2.31v.91c0,1.49-.72,2.31-2.18,2.31H339v3.79h-1.47Zm2.16,4.2c.46,0,.72-.22.72-.88v-1.11c0-.66-.26-.88-.72-.88H339v2.87Z" transform="translate(-49.17 -16.42)"/></g></svg>